#N canvas 113 91 999 671 10;
#X obj 45 54 makenote;
#X floatatom 45 84 5 0 0 0 - - -;
#X floatatom 90 84 5 0 0 0 - - -;
#X obj 47 199 fmsynth 1 0.1;
#X obj 90 167 line~;
#X obj 46 159 mtof;
#X obj 90 139 pack \$1 100;
#X obj 137 166 print velocity;
#X obj 90 108 / 127;
#X obj 47 263 dac~;
#X obj 47 225 *~ 0.5;
#X msg 45 25 60 85 1000;
#X connect 0 0 1 0;
#X connect 0 1 2 0;
#X connect 1 0 5 0;
#X connect 2 0 8 0;
#X connect 3 0 10 0;
#X connect 4 0 3 1;
#X connect 5 0 3 0;
#X connect 6 0 4 0;
#X connect 6 0 7 0;
#X connect 8 0 6 0;
#X connect 10 0 9 0;
#X connect 10 0 9 1;
#X connect 11 0 0 0;
