#N canvas 328 117 1106 569 10;
#X obj 376 114 oscparse;
#X obj 376 92 netreceive -u -b;
#X msg 136 164 connect localhost 5000;
#X obj 128 190 netsend -u -b;
#X obj 128 115 list prepend send;
#X obj 128 140 list trim;
#X text 198 31 sending;
#X text 403 31 receiving;
#X obj 128 88 oscformat charlesbox synth;
#X msg 128 64 23.5 text 1.3 6;
#X msg 376 69 listen 5000;
#X obj 304 214 unpack f s f f;
#X floatatom 276 239 5 0 0 0 - - -;
#X floatatom 356 244 5 0 0 0 - - -;
#X floatatom 412 253 5 0 0 0 - - -;
#X symbolatom 301 264 10 0 0 0 - - -;
#X obj 345 153 route charlesbox;
#X obj 316 190 route synth;
#X obj 372 133 list trim;
#X connect 0 0 18 0;
#X connect 1 0 0 0;
#X connect 2 0 3 0;
#X connect 4 0 5 0;
#X connect 5 0 3 0;
#X connect 8 0 4 0;
#X connect 9 0 8 0;
#X connect 10 0 1 0;
#X connect 11 0 12 0;
#X connect 11 1 15 0;
#X connect 11 2 13 0;
#X connect 11 3 14 0;
#X connect 16 0 17 0;
#X connect 17 0 11 0;
#X connect 18 0 16 0;
