#N canvas 76 96 1288 620 12;
#X msg 132 170 listen 3001;
#X obj 47 50 vsl 19 162 0 127 0 0 empty empty empty 0 -9 0 12 #fcfcfc #000000 #000000 0 1;
#X obj 376 58 vsl 19 162 0 127 0 0 empty empty empty 0 -9 0 12 #fcfcfc #000000 #000000 0 1;
#X obj 133 228 print;
#X text 406 64 Password: 5.42675e+07;
#X text 406 43 Router: TP-Link_1E4C;
#X text 399 105 Charles IP: 192.168.0.178;
#X text 399 127 Multicast IP: 192.168.0.255;
#X obj 187 228 unpack s f;
#X symbolatom 185 262 21 0 0 0 - - - 0;
#X obj 134 71 netsend -u;
#X obj 132 199 netreceive -u 3001;
#X msg 134 19 connect 192.168.0.255 3001;
#X msg 122 44 send charles \$1;
#X obj 101 141 bng 19 250 50 0 empty empty click\ this\ to\ start\ "listening" 20 0 0 12 #fcfcfc #000000 #000000;
#X text 403 150 (this one connects to everyone);
#X connect 0 0 11 0;
#X connect 1 0 13 0;
#X connect 8 0 9 0;
#X connect 8 1 2 0;
#X connect 11 0 3 0;
#X connect 11 0 8 0;
#X connect 12 0 10 0;
#X connect 13 0 10 0;
#X connect 14 0 0 0;
