#N canvas 121 146 314 200 12;
#X obj 22 47 route synth pad;
#X msg 22 20 synth filter 1 on 0.1 1.56 12 32.4;
#X obj 22 73 route filter envelope lfo;
#X obj 22 97 route 1 2 3;
#X obj 22 122 unpack s f f f f;
#X symbolatom 22 158 10 0 0 0 - - - 0;
#X floatatom 100 158 5 0 0 0 - - - 0;
#X floatatom 141 158 5 0 0 0 - - - 0;
#X floatatom 183 158 5 0 0 0 - - - 0;
#X floatatom 225 158 5 0 0 0 - - - 0;
#X connect 0 0 2 0;
#X connect 1 0 0 0;
#X connect 2 0 3 0;
#X connect 3 0 4 0;
#X connect 4 0 5 0;
#X connect 4 1 6 0;
#X connect 4 2 7 0;
#X connect 4 3 8 0;
#X connect 4 4 9 0;
