#N canvas 179 61 803 447 12;
#X obj 225 388 netsend -u -b;
#X msg 248 343 connect 127.0.0.1 57110;
#X obj 229 293 oscformat s_new;
#X listbox 357 282 44 0 0 0 - - - 0;
#X obj 357 254 oscparse;
#X obj 96 39 metro 500;
#X obj 83 9 tgl 19 0 empty empty empty 0 -10 0 12 #fcfcfc #000000 #000000 0 1;
#X obj 223 90 f;
#X obj 254 89 + 1;
#X obj 258 52 t b b;
#X obj 291 89 random 1200;
#X obj 238 124 pack f f;
#X msg 240 160 list default \$1 0 0 freq \$2 dur 0.5;
#X connect 1 0 0 0;
#X connect 2 0 4 0;
#X connect 2 0 0 0;
#X connect 4 0 3 0;
#X connect 5 0 9 0;
#X connect 6 0 5 0;
#X connect 7 0 8 0;
#X connect 7 0 11 0;
#X connect 8 0 7 1;
#X connect 9 0 7 0;
#X connect 9 1 10 0;
#X connect 10 0 11 1;
#X connect 11 0 12 0;
#X connect 12 0 2 0;
