#N canvas 466 84 928 486 12;
#N canvas 688 469 330 323 unique-numbers 0;
#X obj 53 46 r get_unique;
#X obj 54 146 f;
#X obj 85 145 + 1, f 4;
#X obj 50 268 s send_unique;
#X obj 53 199 list prepend;
#X obj 54 171 list;
#X obj 52 84 t b a;
#X connect 0 0 6 0;
#X connect 1 0 2 0;
#X connect 1 0 5 0;
#X connect 2 0 1 1;
#X connect 4 0 3 0;
#X connect 5 0 4 0;
#X connect 6 0 1 0;
#X connect 6 1 4 1;
#X restore 122 60 pd unique-numbers;
#X obj 397 298 oscformat s_new;
#X listbox 322 370 85 0 0 0 - - - 0;
#X obj 452 325 oscparse;
#X obj 398 324 s send;
#N canvas 150 175 364 284 unq 0;
#X obj 16 15 inlet;
#X obj 72 209 outlet;
#X obj 33 68 s get_unique;
#X obj 46 99 r send_unique;
#X obj 115 134 list trim;
#X obj 142 37 t a a;
#X obj 141 170 route symbol;
#X obj 235 34 list prepend;
#X obj 206 122 symbol;
#X connect 0 0 5 0;
#X connect 3 0 4 0;
#X connect 4 0 6 0;
#X connect 5 0 2 0;
#X connect 5 1 8 0;
#X connect 6 0 1 0;
#X connect 8 0 6 1;
#X restore 399 154 pd unq;
#N canvas 179 204 450 300 pattern 0;
#X obj 22 15 loadbang;
#X msg 22 38 0 60 63 62 67 72 65 84 77 65 67;
#X obj 22 61 s quavs;
#X obj 22 85 table quavs 10;
#X connect 0 0 1 0;
#X connect 1 0 2 0;
#X restore 122 36 pd pattern;
#X obj 481 133 mod 10;
#X obj 481 156 tabread quavs;
#X obj 510 109 + 1;
#X obj 481 109 f;
#X obj 481 178 mtof;
#X obj 608 114 random 100;
#X obj 608 162 + 0.5;
#X obj 608 138 / 500;
#X obj 397 54 r pulse;
#X obj 130 132 r pulse;
#N canvas 266 291 450 300 pick 0;
#X obj 37 13 inlet;
#X obj 39 228 outlet;
#X obj 38 78 random 100;
#X obj 38 119 > 95;
#X obj 38 159 select 1;
#X connect 0 0 2 0;
#X connect 2 0 3 0;
#X connect 3 0 4 0;
#X connect 4 0 1 0;
#X restore 130 159 pd pick;
#X floatatom 86 269 5 0 0 0 - - - 0;
#X obj 85 218 random 14;
#N canvas 237 262 579 414 aeolian 0;
#X obj 45 81 t a a;
#X obj 110 146 * 12;
#X obj 45 237 +;
#X obj 45 304 outlet;
#X obj 45 41 inlet;
#X obj 289 191 loadbang;
#X obj 293 45 inlet;
#X obj 45 260 + \$1;
#X text 293 24 base note;
#X text 41 18 major step;
#X floatatom 57 146 5 0 0 0 - - - 0;
#X obj 45 120 mod 7;
#X obj 110 120 div 7;
#X obj 45 181 tabread \$0-scale;
#X obj 290 237 s \$0-scale;
#X obj 289 261 table \$0-scale 7;
#X msg 289 214 0 0 2 3 5 7 8 10;
#X connect 0 0 11 0;
#X connect 0 1 12 0;
#X connect 1 0 2 1;
#X connect 2 0 7 0;
#X connect 4 0 0 0;
#X connect 5 0 16 0;
#X connect 6 0 7 1;
#X connect 7 0 3 0;
#X connect 11 0 10 0;
#X connect 11 0 13 0;
#X connect 12 0 1 0;
#X connect 13 0 2 0;
#X connect 16 0 14 0;
#X restore 95 244 pd aeolian;
#X msg 163 217 36;
#X obj 206 206 random 100;
#X obj 46 372 oscformat s_new;
#X listbox 45 422 59 0 0 0 - - - 0;
#X obj 101 399 oscparse;
#X obj 47 398 s send;
#X msg 400 116 p;
#N canvas 150 175 364 284 unq 0;
#X obj 16 15 inlet;
#X obj 72 209 outlet;
#X obj 33 68 s get_unique;
#X obj 46 99 r send_unique;
#X obj 115 134 list trim;
#X obj 142 37 t a a;
#X obj 141 170 route symbol;
#X obj 235 34 list prepend;
#X obj 206 122 symbol;
#X connect 0 0 5 0;
#X connect 3 0 4 0;
#X connect 4 0 6 0;
#X connect 5 0 2 0;
#X connect 5 1 8 0;
#X connect 6 0 1 0;
#X connect 8 0 6 1;
#X restore 27 251 pd unq;
#X msg 27 228 q;
#X obj 132 270 mtof;
#X obj 206 254 + 3;
#X obj 206 230 / 25;
#N canvas 324 349 450 300 metro 0;
#X obj 235 191 metro 125;
#X obj 105 129 tgl 19 0 empty empty start/stop 20 10 0 12 #ff0400 #000000 #000000 0 1;
#X obj 235 223 s pulse;
#X obj 106 154 bng 19 250 50 0 empty empty step 20 10 0 12 #ff8300 #000000 #000000;
#X connect 0 0 2 0;
#X connect 1 0 0 0;
#X connect 3 0 2 0;
#X coords 0 -1 1 1 100 80 1 100 100;
#X restore 15 10 pd metro;
#N canvas 746 446 241 134 sender 0;
#X obj 14 82 netsend -u -b;
#X msg 38 55 connect 127.0.0.1 57110;
#X obj 38 32 loadbang;
#X obj 15 8 r send;
#X connect 1 0 0 0;
#X connect 2 0 1 0;
#X connect 3 0 0 0;
#X restore 121 12 pd sender;
#X obj 294 257 - 1;
#X obj 294 206 random 200;
#X obj 294 230 / 100;
#X obj 44 308 pack f f f f;
#X obj 128 183 t b b b b b;
#X msg 43 340 list default \$1 0 0 freq \$2 dur \$3 pan \$4;
#N canvas 301 375 450 300 cos-slow 0;
#X obj 94 166 cos;
#X floatatom 95 190 7 0 0 0 - - - 0;
#X obj 93 147 / 57;
#X obj 89 65 inlet;
#X obj 96 216 outlet;
#X obj 119 107 + 1;
#X obj 90 107 f;
#X connect 0 0 1 0;
#X connect 1 0 4 0;
#X connect 2 0 0 0;
#X connect 3 0 6 0;
#X connect 5 0 6 1;
#X connect 6 0 5 0;
#X connect 6 0 2 0;
#X restore 701 112 pd cos-slow;
#X obj 398 239 pack f f f f f;
#X obj 698 142 * 0.5;
#N canvas 301 375 450 300 cos-slow 0;
#X obj 94 166 cos;
#X floatatom 95 190 7 0 0 0 - - - 0;
#X obj 89 65 inlet;
#X obj 96 216 outlet;
#X obj 119 107 + 1;
#X obj 90 107 f;
#X obj 93 147 / 34;
#X connect 0 0 1 0;
#X connect 1 0 3 0;
#X connect 2 0 5 0;
#X connect 4 0 5 1;
#X connect 5 0 4 0;
#X connect 5 0 6 0;
#X connect 6 0 0 0;
#X restore 793 117 pd cos-slow;
#X obj 397 81 t b b b b b;
#X msg 397 269 list default \$1 0 0 freq \$2 dur \$3 amp 0.2 pan \$4 cutoff \$5;
#X obj 811 158 * 2000;
#X obj 797 191 + 2200;
#X connect 1 0 3 0;
#X connect 1 0 4 0;
#X connect 3 0 2 0;
#X connect 5 0 42 0;
#X connect 7 0 8 0;
#X connect 8 0 11 0;
#X connect 9 0 10 1;
#X connect 10 0 7 0;
#X connect 10 0 9 0;
#X connect 11 0 42 1;
#X connect 12 0 14 0;
#X connect 13 0 42 2;
#X connect 14 0 13 0;
#X connect 15 0 45 0;
#X connect 16 0 17 0;
#X connect 17 0 39 0;
#X connect 18 0 30 0;
#X connect 19 0 20 0;
#X connect 20 0 18 0;
#X connect 21 0 20 1;
#X connect 22 0 32 0;
#X connect 23 0 25 0;
#X connect 23 0 26 0;
#X connect 25 0 24 0;
#X connect 27 0 5 0;
#X connect 28 0 38 0;
#X connect 29 0 28 0;
#X connect 30 0 38 1;
#X connect 31 0 38 2;
#X connect 32 0 31 0;
#X connect 35 0 38 3;
#X connect 36 0 37 0;
#X connect 37 0 35 0;
#X connect 38 0 40 0;
#X connect 39 0 29 0;
#X connect 39 1 19 0;
#X connect 39 2 21 0;
#X connect 39 3 22 0;
#X connect 39 4 36 0;
#X connect 40 0 23 0;
#X connect 41 0 43 0;
#X connect 42 0 46 0;
#X connect 43 0 42 3;
#X connect 44 0 47 0;
#X connect 45 0 27 0;
#X connect 45 1 10 0;
#X connect 45 2 12 0;
#X connect 45 3 41 0;
#X connect 45 4 44 0;
#X connect 46 0 1 0;
#X connect 47 0 48 0;
#X connect 48 0 42 4;
