#N canvas 219 80 564 415 10;
#X obj 239 355 dac~;
#X obj 248 330 *~ 0.1;
#X obj 66 175 random 2500;
#X obj 66 197 + 50;
#X obj 247 308 osc~;
#X obj 66 152 bng 15 250 50 0 empty empty empty 17 7 0 10 -262144 -1
-1;
#X floatatom 247 284 5 0 0 0 - - -;
#X obj 66 104 tgl 15 0 empty empty empty 17 7 0 10 -262144 -1 -1 0
1;
#X obj 399 212 mtof;
#X obj 359 59 tgl 15 0 empty empty empty 17 7 0 10 -262144 -1 -1 1
1;
#X msg 317 173 60;
#X msg 354 173 62;
#X msg 393 174 64;
#X msg 430 172 66;
#X msg 468 171 68;
#X obj 359 107 random 5;
#X obj 66 126 metro 50;
#X obj 359 142 select 0 1 2 3 4;
#X obj 359 84 metro 200;
#X connect 1 0 0 0;
#X connect 1 0 0 1;
#X connect 2 0 3 0;
#X connect 3 0 6 0;
#X connect 4 0 1 0;
#X connect 5 0 2 0;
#X connect 6 0 4 0;
#X connect 7 0 16 0;
#X connect 8 0 6 0;
#X connect 9 0 18 0;
#X connect 10 0 8 0;
#X connect 11 0 8 0;
#X connect 12 0 8 0;
#X connect 13 0 8 0;
#X connect 14 0 8 0;
#X connect 15 0 17 0;
#X connect 16 0 5 0;
#X connect 17 0 10 0;
#X connect 17 1 11 0;
#X connect 17 2 12 0;
#X connect 17 3 13 0;
#X connect 17 4 14 0;
#X connect 18 0 15 0;
