#N canvas 0 118 850 580 10;
#X obj 360 510 dac~;
#X obj 366 463 *~ 0.1;
#X obj 73 77 metro;
#X obj 73 52 tgl 15 0 empty empty empty 17 7 0 10 -262144 -1 -1 1 1
;
#X floatatom 119 77 5 0 0 0 - - -;
#X obj 112 8 bng 15 250 50 0 empty empty empty 17 7 0 10 -262144 -1
-1;
#X obj 72 103 bng 15 250 50 0 empty empty empty 17 7 0 10 -262144 -1
-1;
#X obj 400 265 osc~;
#X obj 449 265 osc~;
#X floatatom 387 212 5 0 0 0 - - -;
#X obj 449 234 * 2;
#X obj 497 263 osc~;
#X obj 594 264 osc~;
#X obj 497 232 * 4;
#X obj 595 233 * 8;
#X obj 452 384 +~;
#X obj 468 326 +~;
#X obj 469 351 +~;
#X obj 444 293 *~ 0.1;
#X obj 498 294 *~ 0.2;
#X obj 602 290 *~ 0.5;
#X obj 383 132 random 50;
#X obj 384 160 + 36;
#X obj 385 187 mtof;
#X obj 248 367 vline~;
#X obj 249 407 *~;
#X msg 248 340 1 25 \, 0 1000 25;
#X obj 104 30 random 1500;
#X obj 104 50 + 100;
#X obj 462 159 random 100;
#X obj 462 183 / 10;
#X obj 533 156 random 100;
#X obj 533 179 / 10;
#X obj 603 156 random 100;
#X obj 603 179 / 10;
#X obj 532 121 bng 15 250 50 0 empty empty empty 17 7 0 10 -262144
-1 -1;
#X obj 672 262 osc~;
#X obj 673 231 * 8;
#X obj 680 288 *~ 0.5;
#X obj 681 154 random 100;
#X obj 681 177 / 10;
#X obj 752 262 osc~;
#X obj 753 231 * 8;
#X obj 760 288 *~ 0.5;
#X obj 761 154 random 100;
#X obj 761 177 / 10;
#X obj 31 17 loadbang;
#X connect 1 0 0 0;
#X connect 1 0 0 1;
#X connect 2 0 6 0;
#X connect 3 0 2 0;
#X connect 5 0 27 0;
#X connect 6 0 21 0;
#X connect 6 0 26 0;
#X connect 6 0 27 0;
#X connect 7 0 15 0;
#X connect 8 0 18 0;
#X connect 9 0 7 0;
#X connect 9 0 10 0;
#X connect 9 0 13 0;
#X connect 9 0 14 0;
#X connect 9 0 37 0;
#X connect 9 0 42 0;
#X connect 10 0 8 0;
#X connect 11 0 19 0;
#X connect 12 0 20 0;
#X connect 13 0 11 0;
#X connect 14 0 12 0;
#X connect 15 0 25 1;
#X connect 16 0 17 0;
#X connect 17 0 15 1;
#X connect 18 0 16 0;
#X connect 19 0 16 1;
#X connect 20 0 17 1;
#X connect 21 0 22 0;
#X connect 21 0 35 0;
#X connect 22 0 23 0;
#X connect 23 0 9 0;
#X connect 24 0 25 0;
#X connect 25 0 1 0;
#X connect 26 0 24 0;
#X connect 27 0 28 0;
#X connect 28 0 2 1;
#X connect 28 0 4 0;
#X connect 29 0 30 0;
#X connect 30 0 10 1;
#X connect 31 0 32 0;
#X connect 32 0 13 1;
#X connect 33 0 34 0;
#X connect 34 0 14 1;
#X connect 35 0 29 0;
#X connect 35 0 31 0;
#X connect 35 0 33 0;
#X connect 35 0 39 0;
#X connect 35 0 44 0;
#X connect 36 0 38 0;
#X connect 37 0 36 0;
#X connect 38 0 15 1;
#X connect 39 0 40 0;
#X connect 40 0 37 1;
#X connect 41 0 43 0;
#X connect 42 0 41 0;
#X connect 43 0 15 1;
#X connect 44 0 45 0;
#X connect 45 0 42 1;
#X connect 46 0 3 0;
