#N canvas 658 152 688 704 10;
#X msg 295 24 devices;
#X obj 295 53 comport 2 9600;
#X floatatom 295 87 5 0 0 0 - - -;
#X obj 293 309 dac~;
#X obj 298 243 osc~;
#X obj 298 279 *~ 0.05;
#X floatatom 297 145 5 0 0 0 - - -;
#X obj 295 116 * 10;
#X msg 297 177 \$1 1;
#X obj 297 200 line;
#X connect 0 0 1 0;
#X connect 1 0 2 0;
#X connect 2 0 7 0;
#X connect 4 0 5 0;
#X connect 5 0 3 0;
#X connect 5 0 3 1;
#X connect 6 0 8 0;
#X connect 7 0 6 0;
#X connect 8 0 9 0;
#X connect 9 0 4 0;
