#N canvas 707 116 665 636 10;
#X declare .;
#X obj 214 124 notein;
#X floatatom 184 153 5 0 0 0 - - -;
#X floatatom 220 151 5 0 0 0 - - -;
#X floatatom 257 151 5 0 0 0 - - -;
#X obj 216 421 dac~;
#X obj 14 11 loadbang;
#X obj 14 66 soundfiler;
#X msg 14 39 read -resize ./fieldrecording-30s.wav field-table;
#N canvas 0 22 450 278 (subpatch) 0;
#X array field-table 1.323e+06 float 2;
#X coords 0 1 1.323e+06 -1 200 140 1;
#X restore 448 25 graph;
#X obj 281 320 tabread4~ field-table;
#X obj 222 395 *~ 0.8;
#X obj 136 12 declare .;
#X obj 283 277 +~ 200000;
#X obj 220 370 *~;
#X obj 142 329 vline~;
#X msg 92 282 1 25 \, 0 1000 25;
#X obj 282 224 phasor~ 1;
#X obj 283 256 *~ 44100;
#X obj 184 209 * 44100;
#X floatatom 144 210 5 0 0 0 - - -;
#X obj 90 253 bng 15 250 50 0 empty empty empty 17 7 0 10 -262144 -1
-1;
#X obj 233 182 / 127;
#X obj 163 351 *~;
#X obj 343 470 sendOSC;
#X msg 404 421 connect localhost 3000;
#X msg 309 422 send /note \$1;
#X obj 182 180 % 12;
#X obj 337 198 * 60000;
#X connect 0 0 1 0;
#X connect 0 1 2 0;
#X connect 0 2 3 0;
#X connect 1 0 25 0;
#X connect 1 0 26 0;
#X connect 2 0 21 0;
#X connect 5 0 7 0;
#X connect 7 0 6 0;
#X connect 9 0 13 1;
#X connect 10 0 4 0;
#X connect 10 0 4 1;
#X connect 12 0 9 0;
#X connect 13 0 10 0;
#X connect 14 0 22 0;
#X connect 15 0 14 0;
#X connect 16 0 17 0;
#X connect 17 0 12 0;
#X connect 18 0 12 1;
#X connect 20 0 15 0;
#X connect 21 0 22 1;
#X connect 21 0 27 0;
#X connect 22 0 13 0;
#X connect 24 0 23 0;
#X connect 25 0 23 0;
#X connect 26 0 19 0;
#X connect 26 0 18 0;
#X connect 26 0 20 0;
#X connect 27 0 17 1;
