#N canvas 387 317 841 654 10;
#X obj 121 351 dac~;
#X floatatom 223 182 5 0 0 0 - - -;
#X obj 123 300 *~ 0.5;
#X obj 134 170 noise~;
#X obj 123 252 bp~ 100 100;
#X connect 1 0 4 1;
#X connect 2 0 0 1;
#X connect 2 0 0 0;
#X connect 3 0 4 0;
#X connect 4 0 2 0;
