#N canvas 387 317 379 288 10;
#X obj 89 243 dac~;
#X obj 91 192 *~ 0.5;
#X obj 24 101 noise~;
#X obj 97 55 osc~ 1;
#X obj 160 33 osc~ 0.1;
#X obj 157 86 *~ 10;
#X floatatom 173 136 5 0 0 0 - - -;
#X obj 158 110 snapshot~;
#X obj 209 85 metro 1;
#X obj 227 61 tgl 15 0 empty empty empty 17 7 0 10 -262144 -1 -1 1
1;
#X obj 96 86 +~ 1;
#X obj 156 61 +~ 1;
#X obj 95 109 *~ 4000;
#X obj 91 146 vcf~;
#X obj 234 36 loadbang;
#X msg 251 58 1;
#X connect 1 0 0 1;
#X connect 1 0 0 0;
#X connect 2 0 13 0;
#X connect 3 0 10 0;
#X connect 4 0 11 0;
#X connect 5 0 7 0;
#X connect 7 0 6 0;
#X connect 7 0 13 2;
#X connect 8 0 7 0;
#X connect 9 0 8 0;
#X connect 10 0 12 0;
#X connect 11 0 5 0;
#X connect 12 0 13 1;
#X connect 13 0 1 0;
#X connect 14 0 15 0;
#X connect 15 0 9 0;
