#N canvas 575 363 625 499 10;
#X obj 188 440 dac~;
#X obj 190 389 *~ 0.5;
#X obj 187 175 noise~;
#X obj 170 39 tgl 15 0 empty empty empty 17 7 0 10 -262144 -1 -1 1
1;
#X obj 177 14 loadbang;
#X msg 194 36 1;
#X obj 233 172 vline~;
#X obj 221 199 *~;
#X obj 419 265 / 1000;
#X obj 418 285 + 0.3;
#X obj 420 243 random 700;
#X obj 354 227 t b b;
#X obj 361 327 *~;
#X obj 354 206 r pulse;
#X obj 179 95 s pulse;
#X obj 476 116 + 100;
#X obj 471 74 r pulse;
#X obj 512 136 s freq, f 11;
#X floatatom 476 137 5 0 0 0 - - -;
#X obj 335 271 *;
#X obj 307 244 r freq;
#X obj 364 265 + 1;
#X obj 353 245 random 30;
#N canvas 1011 428 450 300 filter 0;
#X obj 167 107 / 1000;
#X obj 166 127 + 0.3;
#X obj 168 85 random 700;
#X obj 102 69 t b b;
#X obj 109 169 *~;
#X obj 102 48 r pulse;
#X obj 83 113 *;
#X obj 55 86 r freq;
#X obj 112 107 + 1;
#X obj 101 87 random 30;
#X obj 62 17 inlet~;
#X obj 92 211 outlet~;
#X obj 69 137 bp~ 1000 100;
#X connect 0 0 1 0;
#X connect 1 0 4 1;
#X connect 2 0 0 0;
#X connect 3 0 9 0;
#X connect 3 1 2 0;
#X connect 4 0 11 0;
#X connect 5 0 3 0;
#X connect 6 0 12 1;
#X connect 7 0 6 0;
#X connect 8 0 6 1;
#X connect 9 0 8 0;
#X connect 10 0 12 0;
#X connect 12 0 4 0;
#X restore 191 314 pd filter;
#X msg 169 124 1 10 \, 0 3000 10;
#X obj 171 70 metro 3000;
#X obj 321 295 bp~ 1000 100;
#N canvas 1011 428 450 300 filter 0;
#X obj 167 107 / 1000;
#X obj 166 127 + 0.3;
#X obj 168 85 random 700;
#X obj 102 69 t b b;
#X obj 109 169 *~;
#X obj 102 48 r pulse;
#X obj 83 113 *;
#X obj 55 86 r freq;
#X obj 112 107 + 1;
#X obj 101 87 random 30;
#X obj 62 17 inlet~;
#X obj 92 211 outlet~;
#X obj 69 137 bp~ 1000 100;
#X connect 0 0 1 0;
#X connect 1 0 4 1;
#X connect 2 0 0 0;
#X connect 3 0 9 0;
#X connect 3 1 2 0;
#X connect 4 0 11 0;
#X connect 5 0 3 0;
#X connect 6 0 12 1;
#X connect 7 0 6 0;
#X connect 8 0 6 1;
#X connect 9 0 8 0;
#X connect 10 0 12 0;
#X connect 12 0 4 0;
#X restore 114 296 pd filter;
#N canvas 1011 428 450 300 filter 0;
#X obj 167 107 / 1000;
#X obj 166 127 + 0.3;
#X obj 168 85 random 700;
#X obj 102 69 t b b;
#X obj 109 169 *~;
#X obj 102 48 r pulse;
#X obj 83 113 *;
#X obj 55 86 r freq;
#X obj 112 107 + 1;
#X obj 101 87 random 30;
#X obj 62 17 inlet~;
#X obj 92 211 outlet~;
#X obj 69 137 bp~ 1000 100;
#X connect 0 0 1 0;
#X connect 1 0 4 1;
#X connect 2 0 0 0;
#X connect 3 0 9 0;
#X connect 3 1 2 0;
#X connect 4 0 11 0;
#X connect 5 0 3 0;
#X connect 6 0 12 1;
#X connect 7 0 6 0;
#X connect 8 0 6 1;
#X connect 9 0 8 0;
#X connect 10 0 12 0;
#X connect 12 0 4 0;
#X restore 43 282 pd filter;
#N canvas 1011 428 450 300 filter 0;
#X obj 167 107 / 1000;
#X obj 166 127 + 0.3;
#X obj 168 85 random 700;
#X obj 102 69 t b b;
#X obj 109 169 *~;
#X obj 102 48 r pulse;
#X obj 83 113 *;
#X obj 55 86 r freq;
#X obj 112 107 + 1;
#X obj 101 87 random 30;
#X obj 62 17 inlet~;
#X obj 92 211 outlet~;
#X obj 69 137 bp~ 1000 100;
#X connect 0 0 1 0;
#X connect 1 0 4 1;
#X connect 2 0 0 0;
#X connect 3 0 9 0;
#X connect 3 1 2 0;
#X connect 4 0 11 0;
#X connect 5 0 3 0;
#X connect 6 0 12 1;
#X connect 7 0 6 0;
#X connect 8 0 6 1;
#X connect 9 0 8 0;
#X connect 10 0 12 0;
#X connect 12 0 4 0;
#X restore 204 342 pd filter;
#N canvas 1011 428 450 300 filter 0;
#X obj 167 107 / 1000;
#X obj 166 127 + 0.3;
#X obj 168 85 random 700;
#X obj 102 69 t b b;
#X obj 109 169 *~;
#X obj 102 48 r pulse;
#X obj 83 113 *;
#X obj 55 86 r freq;
#X obj 112 107 + 1;
#X obj 101 87 random 30;
#X obj 62 17 inlet~;
#X obj 92 211 outlet~;
#X obj 69 137 bp~ 1000 100;
#X connect 0 0 1 0;
#X connect 1 0 4 1;
#X connect 2 0 0 0;
#X connect 3 0 9 0;
#X connect 3 1 2 0;
#X connect 4 0 11 0;
#X connect 5 0 3 0;
#X connect 6 0 12 1;
#X connect 7 0 6 0;
#X connect 8 0 6 1;
#X connect 9 0 8 0;
#X connect 10 0 12 0;
#X connect 12 0 4 0;
#X restore 127 324 pd filter;
#N canvas 1011 428 450 300 filter 0;
#X obj 167 107 / 1000;
#X obj 166 127 + 0.3;
#X obj 168 85 random 700;
#X obj 102 69 t b b;
#X obj 109 169 *~;
#X obj 102 48 r pulse;
#X obj 83 113 *;
#X obj 55 86 r freq;
#X obj 112 107 + 1;
#X obj 101 87 random 30;
#X obj 62 17 inlet~;
#X obj 92 211 outlet~;
#X obj 69 137 bp~ 1000 100;
#X connect 0 0 1 0;
#X connect 1 0 4 1;
#X connect 2 0 0 0;
#X connect 3 0 9 0;
#X connect 3 1 2 0;
#X connect 4 0 11 0;
#X connect 5 0 3 0;
#X connect 6 0 12 1;
#X connect 7 0 6 0;
#X connect 8 0 6 1;
#X connect 9 0 8 0;
#X connect 10 0 12 0;
#X connect 12 0 4 0;
#X restore 56 310 pd filter;
#X obj 476 97 random 50;
#X connect 1 0 0 0;
#X connect 1 0 0 1;
#X connect 2 0 7 0;
#X connect 3 0 25 0;
#X connect 4 0 5 0;
#X connect 5 0 3 0;
#X connect 6 0 7 1;
#X connect 7 0 26 0;
#X connect 7 0 23 0;
#X connect 7 0 27 0;
#X connect 7 0 28 0;
#X connect 7 0 31 0;
#X connect 7 0 30 0;
#X connect 7 0 29 0;
#X connect 8 0 9 0;
#X connect 9 0 12 1;
#X connect 10 0 8 0;
#X connect 11 0 22 0;
#X connect 11 1 10 0;
#X connect 12 0 1 0;
#X connect 13 0 11 0;
#X connect 15 0 17 0;
#X connect 15 0 18 0;
#X connect 16 0 32 0;
#X connect 19 0 26 1;
#X connect 20 0 19 0;
#X connect 21 0 19 1;
#X connect 22 0 21 0;
#X connect 23 0 1 0;
#X connect 24 0 6 0;
#X connect 25 0 24 0;
#X connect 25 0 14 0;
#X connect 26 0 12 0;
#X connect 27 0 1 0;
#X connect 28 0 1 0;
#X connect 29 0 1 0;
#X connect 30 0 1 0;
#X connect 31 0 1 0;
#X connect 32 0 15 0;
