#N canvas 698 181 446 500 10;
#X obj 190 341 dac~;
#X obj 125 147 osc~;
#X obj 174 147 osc~;
#X floatatom 113 42 5 0 0 0 - - -;
#X obj 174 116 * 2;
#X obj 222 145 osc~;
#X obj 267 149 osc~;
#X obj 222 114 * 4;
#X obj 268 118 * 8;
#X obj 177 266 +~;
#X obj 191 297 *~ 0.1;
#X obj 193 208 +~;
#X obj 194 233 +~;
#X obj 169 175 *~ 0.1;
#X obj 223 176 *~ 0.2;
#X obj 275 175 *~ 0.5;
#X connect 1 0 9 0;
#X connect 2 0 13 0;
#X connect 3 0 1 0;
#X connect 3 0 4 0;
#X connect 3 0 7 0;
#X connect 3 0 8 0;
#X connect 4 0 2 0;
#X connect 5 0 14 0;
#X connect 6 0 15 0;
#X connect 7 0 5 0;
#X connect 8 0 6 0;
#X connect 9 0 10 0;
#X connect 10 0 0 0;
#X connect 10 0 0 1;
#X connect 11 0 12 0;
#X connect 12 0 9 1;
#X connect 13 0 11 0;
#X connect 14 0 11 1;
#X connect 15 0 12 1;
