#N canvas 0 96 547 366 10;
#X obj 112 204 dac~;
#X obj 113 157 readsf~ 2;
#X obj 111 92 bng 15 250 50 0 empty empty empty 17 7 0 10 -262144 -1
-1;
#X msg 113 125 open ./fieldrecording-30s.wav \, 1;
#X connect 1 0 0 0;
#X connect 1 1 0 1;
#X connect 1 2 2 0;
#X connect 2 0 3 0;
#X connect 3 0 1 0;
