#N canvas 193 615 533 529 10;
#X declare .;
#X obj 212 449 dac~;
#X obj 6 36 loadbang;
#X obj 6 91 soundfiler;
#X msg 6 64 read -resize ./fieldrecording-30s.wav field-table;
#N canvas 0 22 450 278 (subpatch) 0;
#X array field-table 1.323e+06 float 2;
#X coords 0 1 1.323e+06 -1 200 140 1;
#X restore 314 39 graph;
#X obj 177 343 tabread4~ field-table;
#X obj 63 255 line~;
#X obj 63 230 pack 0 100;
#X floatatom 60 161 5 0 0 0 - - -;
#X floatatom 115 201 10 0 0 0 - - -;
#X obj 221 389 *~ 0.8;
#X obj 128 37 declare .;
#X obj 63 202 * 441;
#X obj 268 289 *~ 88200;
#X obj 235 252 phasor~ 0.5;
#X obj 213 111 vsl 15 128 0 127 0 0 empty empty empty 0 -9 0 10 -262144
-1 -1 0 1;
#X floatatom 235 226 5 0 0 0 - - -;
#X obj 235 203 / 100;
#X obj 317 251 osc~ 0.2;
#X obj 268 310 +~ 200000;
#X connect 1 0 3 0;
#X connect 3 0 2 0;
#X connect 5 0 10 0;
#X connect 6 0 5 0;
#X connect 7 0 6 0;
#X connect 8 0 12 0;
#X connect 10 0 0 0;
#X connect 10 0 0 1;
#X connect 12 0 7 0;
#X connect 12 0 9 0;
#X connect 13 0 19 0;
#X connect 14 0 13 0;
#X connect 15 0 17 0;
#X connect 16 0 14 0;
#X connect 16 0 18 0;
#X connect 17 0 16 0;
#X connect 19 0 5 0;
