#N canvas 240 303 868 448 10;
#X obj 25 105 osc~ 440;
#X obj 179 214 dac~;
#X obj 64 136 *~;
#X obj 92 108 vline~;
#X obj 29 77 bng 15 250 50 0 empty empty empty 17 7 0 10 -262144 -1
-1;
#X msg 52 77 1 15 \, 0 150 15;
#X obj 266 81 *~ 1;
#X obj 336 386 delwrite~ A 1000;
#X obj 471 386 delwrite~ B 1000;
#X obj 698 385 delwrite~ D 1000;
#X obj 585 386 delwrite~ C 1000;
#X obj 325 54 delread~ A 101;
#X obj 459 54 delread~ B 143;
#X obj 579 54 delread~ C 165;
#X obj 719 53 delread~ D 177;
#X obj 328 111 +~;
#X obj 458 113 +~;
#X obj 578 209 +~;
#X obj 722 203 -~;
#X obj 327 216 +~;
#X obj 454 214 -~;
#X obj 459 311 +~;
#X obj 731 310 -~;
#X obj 336 314 +~;
#X obj 580 310 -~;
#X obj 334 353 *~ 0.4;
#X obj 474 354 *~ 0.37;
#X obj 583 353 *~ 0.333;
#X obj 699 355 *~ 0.3;
#X obj 29 56 metro 1000;
#X obj 23 12 loadbang;
#X obj 23 33 f 1;
#X obj 61 160 *~ 0.2;
#X connect 0 0 2 0;
#X connect 2 0 32 0;
#X connect 3 0 2 1;
#X connect 4 0 5 0;
#X connect 5 0 3 0;
#X connect 6 0 15 0;
#X connect 6 0 16 0;
#X connect 11 0 15 1;
#X connect 12 0 16 1;
#X connect 13 0 17 0;
#X connect 13 0 18 0;
#X connect 14 0 18 1;
#X connect 14 0 17 1;
#X connect 15 0 1 0;
#X connect 15 0 19 1;
#X connect 15 0 20 0;
#X connect 16 0 1 1;
#X connect 16 0 20 1;
#X connect 16 0 19 0;
#X connect 17 0 24 1;
#X connect 17 0 23 1;
#X connect 18 0 22 1;
#X connect 18 0 21 1;
#X connect 19 0 23 0;
#X connect 19 0 24 0;
#X connect 20 0 21 0;
#X connect 20 0 22 0;
#X connect 21 0 26 0;
#X connect 22 0 28 0;
#X connect 23 0 25 0;
#X connect 24 0 27 0;
#X connect 25 0 7 0;
#X connect 26 0 8 0;
#X connect 27 0 10 0;
#X connect 28 0 9 0;
#X connect 29 0 4 0;
#X connect 30 0 31 0;
#X connect 31 0 29 0;
#X connect 32 0 1 0;
#X connect 32 0 1 1;
#X connect 32 0 6 0;
