#N canvas -1275 152 450 300 10;
#X obj 119 270 dac~;
#X obj 128 210 *~ 0.1;
#X obj 128 166 osc~;
#X obj 128 137 +~;
#X floatatom 60 111 5 0 0 0 - - -;
#X obj 212 107 *~;
#X floatatom 236 83 5 0 0 0 - - -;
#X obj 195 84 osc~;
#X floatatom 195 58 5 0 0 0 - - -;
#X obj 54 90 mtof;
#X msg 36 9 60;
#X msg 35 30 62;
#X msg 35 51 64;
#X msg 234 13 400;
#X msg 200 15 300;
#X msg 275 14 800;
#X connect 1 0 0 0;
#X connect 1 0 0 1;
#X connect 2 0 1 0;
#X connect 3 0 2 0;
#X connect 4 0 3 0;
#X connect 5 0 3 1;
#X connect 6 0 5 1;
#X connect 7 0 5 0;
#X connect 8 0 7 0;
#X connect 9 0 4 0;
#X connect 10 0 9 0;
#X connect 11 0 9 0;
#X connect 12 0 9 0;
#X connect 13 0 6 0;
#X connect 13 0 8 0;
#X connect 14 0 8 0;
#X connect 14 0 6 0;
#X connect 15 0 6 0;
#X connect 15 0 8 0;
