#N canvas -1063 96 547 366 10;
#X declare .;
#X obj 119 284 dac~;
#X obj 360 11 declare .;
#X obj 113 157 readsf~ 2;
#X obj 183 158 bng 15 250 50 0 empty empty empty 17 7 0 10 -262144
-1 -1;
#X msg 24 100 open ./fieldrecording-30s.wav \, 1;
#X connect 2 0 0 0;
#X connect 2 1 0 1;
#X connect 2 2 3 0;
#X connect 3 0 4 0;
#X connect 4 0 2 0;
