#N canvas -984 281 516 621 10;
#X obj 172 399 dac~;
#X obj 129 248 osc~ 440;
#X obj 181 339 *~ 0.1;
#X obj 201 248 vline~;
#X obj 181 285 *~;
#X msg 35 99 1 1000;
#X msg 95 100 0 1000;
#X msg 152 101 1 1000 \, 0 1000 1000;
#X msg 208 152 1 25 \, 0 1000 25;
#X msg 315 153 1 25 \, 0.8 100 25 \, 0 1000 100;
#X connect 1 0 4 0;
#X connect 2 0 0 0;
#X connect 2 0 0 1;
#X connect 3 0 4 1;
#X connect 4 0 2 0;
#X connect 5 0 3 0;
#X connect 6 0 3 0;
#X connect 7 0 3 0;
#X connect 8 0 3 0;
#X connect 9 0 3 0;
