#N canvas -1722 107 910 342 10;
#X obj 219 220 print;
#X msg 20 163 message;
#X obj 122 162 bng 15 250 50 0 empty empty empty 17 7 0 10 -262144
-1 -1;
#X obj 174 163 tgl 15 0 empty empty empty 17 7 0 10 -262144 -1 -1 0
1;
#X floatatom 213 164 5 0 0 0 - - -;
#X obj 262 50 vsl 15 128 0 127 0 0 empty empty empty 0 -9 0 10 -262144
-1 -1 10700 1;
#X obj 299 167 hsl 128 15 0 127 0 0 empty empty empty -2 -8 0 10 -262144
-1 -1 0 1;
#X floatatom 270 237 5 0 0 0 - - -;
#X obj 453 55 vradio 15 1 0 8 empty empty empty 0 -8 0 10 -262144 -1
-1 6;
#N canvas -887 322 450 300 morestuff 0;
#X obj 75 226 outlet;
#X obj 239 225 outlet;
#X obj 73 148 tgl 15 0 empty empty empty 17 7 0 10 -262144 -1 -1 1
1;
#X floatatom 112 149 5 0 0 0 - - -;
#X obj 161 35 vsl 15 128 0 127 0 0 empty empty empty 0 -9 0 10 -262144
-1 -1 5300 1;
#X connect 2 0 0 0;
#X connect 3 0 0 0;
#X connect 4 0 1 0;
#X restore 587 163 pd morestuff;
#X floatatom 645 241 5 0 0 0 - - -;
#X connect 1 0 0 0;
#X connect 2 0 0 0;
#X connect 3 0 0 0;
#X connect 4 0 0 0;
#X connect 5 0 0 0;
#X connect 5 0 7 0;
#X connect 6 0 0 0;
#X connect 6 0 7 0;
#X connect 8 0 7 0;
#X connect 8 0 0 0;
#X connect 9 0 0 0;
#X connect 9 0 7 0;
#X connect 9 1 10 0;
