#N canvas 817 628 710 428 10;
#X obj 176 199 dac~;
#X obj 185 90 osc~ 440;
#X obj 185 139 *~ 0.1;
#X obj 307 42 vsl 15 128 0 127 0 0 empty empty empty 0 -9 0 10 -262144
-1 -1 0 1;
#X obj 306 181 / 127;
#X floatatom 306 206 5 0 0 0 - - -;
#X connect 1 0 2 0;
#X connect 2 0 0 0;
#X connect 2 0 0 1;
#X connect 3 0 4 0;
#X connect 4 0 2 1;
#X connect 4 0 5 0;
