#N canvas -2322 -42 365 557 12;
#X obj 9 218 phasor~;
#X obj 73 219 phasor~;
#X obj 73 195 *;
#X obj 9 166 mtof;
#X floatatom 93 167 5 0 0 0 - - - 0;
#X obj 93 116 loadbang;
#X obj 8 6 notein;
#X obj 9 242 -~ 0.5;
#X obj 9 266 *~ 1.5;
#X obj 73 267 *~ 1.5;
#X obj 73 243 -~ 0.5;
#X obj 12 517 dac~;
#X obj 47 355 vline~;
#X obj 57 455 vline~;
#X floatatom 47 166 5 0 0 0 - - - 0;
#X obj 22 455 *~;
#X msg 93 142 1.01;
#N canvas -1945 16 450 300 keystate 0;
#X obj 92 227 outlet;
#X obj 261 263 outlet;
#X obj 83 26 inlet;
#X obj 100 51 unpack 0 0;
#X obj 111 129 sel;
#X obj 262 137 f;
#X obj 282 186 sel 0;
#X obj 97 78 t f f;
#X obj 114 161 t b;
#X obj 270 218 t b;
#X obj 250 207 bng 15 250 50 0 empty empty empty 17 7 0 10 #fcfcfc #000000 #000000;
#X obj 76 191 t b;
#X obj 16 81 stripnote;
#X obj 14 231 outlet;
#X obj 258 74 sel 0;
#X floatatom 320 104 5 0 0 0 - - - 0;
#X obj 320 127 s vel;
#X connect 2 0 3 0;
#X connect 2 0 12 0;
#X connect 3 0 7 0;
#X connect 3 1 5 1;
#X connect 3 1 14 0;
#X connect 4 0 8 0;
#X connect 5 0 6 0;
#X connect 6 0 9 0;
#X connect 7 0 4 1;
#X connect 7 1 4 0;
#X connect 8 0 5 0;
#X connect 9 0 10 0;
#X connect 9 0 1 0;
#X connect 11 0 0 0;
#X connect 12 0 13 0;
#X connect 12 1 11 0;
#X connect 14 1 15 0;
#X connect 15 0 16 0;
#X restore 7 55 pd keystate;
#X obj 12 386 vcf~ 6;
#X obj 8 31 pack 0 0;
#X text 104 194 detune;
#X text 134 239 2x sawtooth waves;
#X text 66 384 low-pass filter;
#X obj 57 431 r amplitude-env;
#X obj 47 333 r filt-env;
#X text 131 464 amplitude envelope generator;
#N canvas -1884 339 450 300 env-messages 0;
#X obj 37 19 inlet;
#X obj 290 13 inlet;
#X obj 38 52 t b b;
#X obj 289 44 t b b;
#X msg 103 188 2000 500;
#X obj 287 241 s amplitude-env;
#X obj 167 240 s filt-env;
#X obj 156 58 r vel;
#X msg 183 191 0 120;
#X msg 318 213 0 200;
#X obj 163 88 / 127;
#X obj 271 128 f;
#X msg 261 175 \$1 10 \, 0.8 200 10;
#X connect 0 0 2 0;
#X connect 1 0 3 0;
#X connect 2 0 11 0;
#X connect 2 1 4 0;
#X connect 3 0 9 0;
#X connect 3 1 8 0;
#X connect 4 0 6 0;
#X connect 7 0 10 0;
#X connect 8 0 6 0;
#X connect 9 0 5 0;
#X connect 10 0 11 1;
#X connect 11 0 12 0;
#X connect 12 0 5 0;
#X restore 42 80 pd env-messages;
#X obj 183 42 vsl 19 162 0.5 2 1 0 empty empty detune 0 -9 0 12 #fcfcfc #000000 #000000 0 1;
#X obj 73 4 r notes;
#N canvas -1962 -33 450 300 seq 0;
#X obj 26 13 inlet;
#X obj 36 265 s notes;
#X obj 34 210 makenote;
#X obj 322 62 vsl 19 162 0 127 0 1 empty empty velocity 0 -9 0 12 #fcfcfc #000000 #000000 15000 1;
#X obj 390 63 vsl 19 162 0 0.99 0 1 empty empty duration 0 -9 0 12 #fcfcfc #000000 #000000 6000 1;
#X floatatom 322 232 5 0 0 0 - - - 0;
#X floatatom 390 233 5 0 0 0 - - - 0;
#X msg 113 51 180;
#X floatatom 114 104 5 0 0 0 - - - 0;
#X obj 31 64 metro;
#X obj 113 153 *;
#X obj 264 62 vsl 19 162 30 200 0 1 empty empty tempo 0 -9 0 12 #fcfcfc #000000 #000000 5100 1;
#X floatatom 264 232 5 0 0 0 - - - 0;
#X obj 114 80 expr 60000/(4 * $f1);
#X obj 34 238 pack 0 0;
#X obj 41 90 bng 19 250 50 0 empty empty empty 0 -10 0 12 #fcfcfc #000000 #000000;
#X floatatom 107 181 5 0 0 0 - - - 0;
#X obj 114 129 f;
#N canvas -1946 463 450 300 notes 0;
#X obj 70 53 inlet;
#X obj 71 249 outlet;
#X obj 176 83 loadbang;
#X msg 176 106 0 60 63 62 67 72 65 84 77 65 67;
#X obj 176 129 s quavs;
#X obj 176 153 table quavs 10;
#X obj 60 130 mod 10;
#X obj 60 150 tabread quavs;
#X floatatom 60 171 5 0 0 0 - - - 0;
#X obj 89 109 + 1;
#X obj 60 109 f;
#X obj 62 219 - 12;
#X connect 0 0 10 0;
#X connect 2 0 3 0;
#X connect 3 0 4 0;
#X connect 6 0 7 0;
#X connect 7 0 8 0;
#X connect 8 0 11 0;
#X connect 9 0 10 1;
#X connect 10 0 6 0;
#X connect 10 0 9 0;
#X connect 11 0 1 0;
#X restore 37 145 pd notes;
#X connect 0 0 9 0;
#X connect 2 0 14 0;
#X connect 2 1 14 1;
#X connect 3 0 2 1;
#X connect 3 0 5 0;
#X connect 4 0 6 0;
#X connect 6 0 10 1;
#X connect 7 0 13 0;
#X connect 8 0 9 1;
#X connect 8 0 17 1;
#X connect 9 0 15 0;
#X connect 9 0 18 0;
#X connect 10 0 16 0;
#X connect 11 0 12 0;
#X connect 12 0 13 0;
#X connect 13 0 8 0;
#X connect 14 0 1 0;
#X connect 15 0 17 0;
#X connect 16 0 2 2;
#X connect 17 0 10 0;
#X connect 18 0 2 0;
#X restore 266 36 pd seq;
#X obj 266 10 tgl 19 0 empty empty empty 0 -10 0 12 #fcfcfc #000000 #000000 0 1;
#X obj 22 482 *~ 0.5;
#X obj 287 191 vsl 19 162 0.1 20 0 1 empty empty filter\ res 0 -9 0 12 #fcfcfc #000000 #000000 3300 1;
#X floatatom 287 361 5 0 0 0 - - - 0;
#X text 128 338 filter envelope generator;
#X connect 0 0 7 0;
#X connect 1 0 10 0;
#X connect 2 0 1 0;
#X connect 3 0 2 0;
#X connect 3 0 0 0;
#X connect 3 0 14 0;
#X connect 4 0 2 1;
#X connect 5 0 16 0;
#X connect 6 0 19 0;
#X connect 6 1 19 1;
#X connect 7 0 8 0;
#X connect 8 0 18 0;
#X connect 9 0 18 0;
#X connect 10 0 9 0;
#X connect 12 0 18 1;
#X connect 13 0 15 1;
#X connect 15 0 31 0;
#X connect 16 0 4 0;
#X connect 16 0 27 0;
#X connect 17 0 3 0;
#X connect 17 1 26 0;
#X connect 17 2 26 1;
#X connect 18 1 15 0;
#X connect 19 0 17 0;
#X connect 23 0 13 0;
#X connect 24 0 12 0;
#X connect 27 0 4 0;
#X connect 28 0 17 0;
#X connect 30 0 29 0;
#X connect 31 0 11 0;
#X connect 31 0 11 1;
#X connect 32 0 33 0;
#X connect 33 0 18 2;
