#N canvas 306 40 450 300 10;
#X obj 32 115 pluck~;
#X obj 134 109 pluck~;
#X obj 80 210 dac~;
#X floatatom 109 59 5 0 0 0 - - -;
#X obj 46 38 bng 15 250 50 0 empty empty empty 17 7 0 10 -262144 -1
-1;
#X connect 0 0 2 0;
#X connect 1 0 2 1;
#X connect 3 0 0 1;
#X connect 3 0 1 1;
#X connect 4 0 0 0;
#X connect 4 0 1 0;
