#N canvas 501 68 286 180 10;
#X obj 35 129 pluck~;
#X obj 26 156 dac~;
#X obj 32 7 bng 40 250 50 0 empty empty empty 17 7 0 10 #ffc7c6 #000000 #000000;
#X obj 59 71 random 24;
#X obj 59 92 + 36;
#X obj 32 50 t b b;
#N canvas 0 25 450 300 seq 0;
#X obj 26 13 inlet;
#X obj 36 265 s notes;
#X obj 34 210 makenote;
#X obj 322 62 vsl 19 162 0 127 0 1 empty empty velocity 0 -9 0 12 #fcfcfc #000000 #000000 16100 1;
#X obj 390 63 vsl 19 162 0 0.99 0 1 empty empty duration 0 -9 0 12 #fcfcfc #000000 #000000 8800 1;
#X floatatom 322 232 5 0 0 0 - - - 0;
#X floatatom 390 233 5 0 0 0 - - - 0;
#X msg 113 51 180;
#X floatatom 114 104 5 0 0 0 - - - 0;
#X obj 31 64 metro;
#X obj 113 153 *;
#X obj 264 62 vsl 19 162 30 200 0 1 empty empty tempo 0 -9 0 12 #fcfcfc #000000 #000000 1900 1;
#X floatatom 264 232 5 0 0 0 - - - 0;
#X obj 114 80 expr 60000/(4 * $f1);
#X obj 34 238 pack 0 0;
#X obj 41 90 bng 19 250 50 0 empty empty empty 0 -10 0 12 #fcfcfc #000000 #000000;
#X floatatom 107 181 5 0 0 0 - - - 0;
#X obj 114 129 f;
#N canvas -1946 463 450 300 notes 0;
#X obj 70 53 inlet;
#X obj 71 249 outlet;
#X obj 176 83 loadbang;
#X msg 176 106 0 60 63 62 67 72 65 84 77 65 67;
#X obj 176 129 s quavs;
#X obj 176 153 table quavs 10;
#X obj 60 130 mod 10;
#X obj 60 150 tabread quavs;
#X floatatom 60 171 5 0 0 0 - - - 0;
#X obj 89 109 + 1;
#X obj 60 109 f;
#X obj 62 219 - 12;
#X connect 0 0 10 0;
#X connect 2 0 3 0;
#X connect 3 0 4 0;
#X connect 6 0 7 0;
#X connect 7 0 8 0;
#X connect 8 0 11 0;
#X connect 9 0 10 1;
#X connect 10 0 6 0;
#X connect 10 0 9 0;
#X connect 11 0 1 0;
#X restore 37 145 pd notes;
#X connect 0 0 9 0;
#X connect 2 0 14 0;
#X connect 2 1 14 1;
#X connect 3 0 2 1;
#X connect 3 0 5 0;
#X connect 4 0 6 0;
#X connect 6 0 10 1;
#X connect 7 0 13 0;
#X connect 8 0 9 1;
#X connect 8 0 17 1;
#X connect 9 0 15 0;
#X connect 9 0 18 0;
#X connect 10 0 16 0;
#X connect 11 0 12 0;
#X connect 12 0 13 0;
#X connect 13 0 8 0;
#X connect 14 0 1 0;
#X connect 15 0 17 0;
#X connect 16 0 2 2;
#X connect 17 0 10 0;
#X connect 18 0 2 0;
#X restore 221 51 pd seq;
#X obj 221 5 tgl 40 0 empty empty empty 0 -10 0 12 #ffe3c6 #000000 #000000 0 1;
#X obj 143 30 r notes;
#X obj 143 71 unpack 0 0;
#X obj 144 93 t b f;
#X obj 143 51 stripnote;
#X connect 0 0 1 0;
#X connect 0 0 1 1;
#X connect 2 0 5 0;
#X connect 3 0 4 0;
#X connect 4 0 0 1;
#X connect 5 0 0 0;
#X connect 5 1 3 0;
#X connect 7 0 6 0;
#X connect 8 0 11 0;
#X connect 9 0 10 0;
#X connect 10 0 0 0;
#X connect 10 1 0 1;
#X connect 11 0 9 0;
