#N canvas 301 147 447 299 10;
#X obj 153 37 inlet pitch;
#X obj 259 37 inlet decay;
#X obj 337 36 inlet cutoff;
#X obj 9 208 *~;
#X obj 9 87 vline~;
#X obj 153 257 outlet~;
#X obj 153 89 mtof;
#X obj 153 226 *~ 0.999;
#X obj 153 203 lop~ 3800;
#X obj 243 257 block~ 1;
#X obj 9 257 delwrite~ \$0-delay 200;
#X obj 9 38 inlet trigger;
#X obj 153 180 delread4~ \$0-delay 12;
#X obj 153 157 line~;
#X obj 153 135 pack 0 2;
#X obj 38 113 noise~;
#X obj 24 148 bp~ 3000 7;
#X obj 38 176 bp~ 5107 10;
#X msg 9 60 1 1 \, 0 20 5;
#X obj 153 111 expr 1000/$f1;
#X text 11 8 noise source;
#X text 154 7 delay loop;
#X connect 0 0 6 0;
#X connect 1 0 7 1;
#X connect 2 0 8 1;
#X connect 3 0 10 0;
#X connect 4 0 3 0;
#X connect 6 0 19 0;
#X connect 7 0 5 0;
#X connect 7 0 10 0;
#X connect 8 0 7 0;
#X connect 11 0 18 0;
#X connect 12 0 8 0;
#X connect 13 0 12 0;
#X connect 14 0 13 0;
#X connect 15 0 16 0;
#X connect 15 0 17 0;
#X connect 16 0 3 1;
#X connect 17 0 3 1;
#X connect 18 0 4 0;
#X connect 19 0 14 0;
