#N canvas -1371 312 519 606 10;
#X obj 207 463 dac~;
#X obj 93 54 fiddle~;
#X obj 210 11 adc~;
#X floatatom 93 81 5 0 0 0 - - -;
#X obj 93 111 mtof;
#X obj 289 200 vline~;
#X obj 210 375 *~;
#X obj 284 150 bng 15 250 50 0 empty empty empty 17 7 0 10 -262144
-1 -1;
#X obj 116 177 osc~;
#X obj 78 178 osc~;
#X obj 69 145 * 1;
#X obj 119 143 * 2;
#X msg 289 177 0 100 \, 1 3000 100 \, 0 2000 3000;
#X obj 257 50 bonk~;
#X obj 214 415 *~ 0.2;
#X msg 354 66 thresh 2.5 500;
#X msg 209 173 0 500;
#X obj 354 40 loadbang;
#X connect 1 0 3 0;
#X connect 2 0 1 0;
#X connect 2 0 13 0;
#X connect 3 0 4 0;
#X connect 3 0 16 0;
#X connect 4 0 10 0;
#X connect 4 0 11 0;
#X connect 5 0 6 1;
#X connect 6 0 14 0;
#X connect 7 0 12 0;
#X connect 8 0 6 0;
#X connect 9 0 6 0;
#X connect 10 0 9 0;
#X connect 11 0 8 0;
#X connect 12 0 5 0;
#X connect 13 1 7 0;
#X connect 14 0 0 0;
#X connect 14 0 0 1;
#X connect 15 0 13 0;
#X connect 16 0 5 0;
#X connect 17 0 15 0;
