#N canvas 70 96 951 547 10;
#X obj 376 114 oscparse;
#X obj 376 92 netreceive -u -b;
#X msg 376 69 listen 5000;
#X msg 136 164 connect localhost 5000;
#X obj 376 137 print;
#X obj 127 190 netsend -u -b;
#X obj 128 115 list prepend send;
#X obj 128 140 list trim;
#X text 198 31 sending;
#X text 403 31 receiving;
#X obj 128 88 oscformat charlesbox synth;
#X msg 128 64 23.5 text 1.3 6;
#X connect 0 0 4 0;
#X connect 1 0 0 0;
#X connect 2 0 1 0;
#X connect 3 0 5 0;
#X connect 6 0 7 0;
#X connect 7 0 5 0;
#X connect 10 0 6 0;
#X connect 11 0 10 0;
