#N canvas 148 72 879 603 10;
#X obj 29 274 dac~;
#X obj 27 71 fiddle~;
#X obj 76 33 adc~;
#X floatatom 27 92 5 0 0 0 - - -;
#X obj 144 154 vline~;
#X obj 28 215 *~;
#X obj 144 112 bng 15 250 50 0 empty empty empty 17 7 0 10 -262144
-1 -1;
#X msg 144 131 0 100 \, 1 3000 100 \, 0 2000 3000;
#X obj 116 70 bonk~;
#X msg 156 45 thresh 2.5 500;
#X msg 96 112 0 500;
#X obj 156 19 loadbang;
#N canvas 725 172 450 300 synth 0;
#X obj 9 16 inlet;
#X obj 9 102 outlet~;
#X obj 47 78 osc~;
#X obj 9 79 osc~;
#X obj 9 58 * 1;
#X obj 47 58 * 2;
#X obj 9 37 mtof;
#X connect 0 0 6 0;
#X connect 2 0 1 0;
#X connect 3 0 1 0;
#X connect 4 0 3 0;
#X connect 5 0 2 0;
#X connect 6 0 4 0;
#X connect 6 0 5 0;
#X restore 28 177 pd synth;
#X obj 28 238 *~ 0.5;
#X connect 1 0 3 0;
#X connect 2 0 1 0;
#X connect 2 0 8 0;
#X connect 3 0 10 0;
#X connect 3 0 12 0;
#X connect 4 0 5 1;
#X connect 5 0 13 0;
#X connect 6 0 7 0;
#X connect 7 0 4 0;
#X connect 8 1 6 0;
#X connect 9 0 8 0;
#X connect 10 0 4 0;
#X connect 11 0 9 0;
#X connect 12 0 5 0;
#X connect 13 0 0 0;
#X connect 13 0 0 1;
