#N canvas -1871 15 672 391 10;
#X obj 34 21 tgl 20 0 empty start empty 17 7 0 10 #ffc7c6 #000000 #000000 0 1;
#X obj 34 85 mod 10;
#X floatatom 34 153 5 0 0 0 - - - 0;
#X obj 63 64 + 1;
#X obj 34 64 f;
#X obj 34 176 mtof;
#X obj 132 185 vline~;
#X obj 132 142 bng 15 250 50 0 empty empty empty 17 7 0 10 #fcfcfc #000000 #000000;
#X obj 34 44 metro 125;
#X obj 8 45 bng 20 250 50 0 empty empty empty 17 7 0 10 #c6feff #000000 #000000;
#X obj 34 207 fmsynth 10 0.1;
#X obj 530 183 vline~;
#X floatatom 467 142 5 0 0 0 - - - 0;
#X obj 467 165 mtof;
#X obj 529 141 bng 15 250 50 0 empty empty empty 17 7 0 10 #fcfcfc #000000 #000000;
#X obj 31 232 *~ 0.8;
#X obj 466 25 tgl 20 0 empty start empty 17 7 0 10 #ffe3c6 #000000 #000000 0 1;
#X obj 466 70 bng 15 250 50 0 empty empty empty 17 7 0 10 #fcfcfc #000000 #000000;
#X obj 30 256 feedbackdelay 223 0.25;
#X msg 132 164 1 15 \, 0 45 15;
#N canvas -1686 304 450 300 to-out 0;
#X obj 38 93 throw~ out-1;
#X obj 162 85 throw~ out-2;
#X obj 45 59 inlet~;
#X obj 161 53 inlet~;
#X connect 2 0 0 0;
#X connect 3 0 1 0;
#X restore 30 327 pd to-out;
#N canvas -1686 304 450 300 to-out 0;
#X obj 38 93 throw~ out-1;
#X obj 162 85 throw~ out-2;
#X obj 45 59 inlet~;
#X obj 161 53 inlet~;
#X connect 2 0 0 0;
#X connect 3 0 1 0;
#X restore 469 309 pd to-out;
#N canvas -1393 142 233 151 output-and-reverb 0;
#X obj 71 95 dac~;
#X obj 70 60 rev2~ 87 85;
#X obj 116 23 catch~ out-2;
#X obj 27 22 catch~ out-1;
#X connect 1 0 0 0;
#X connect 1 1 0 1;
#X connect 2 0 1 0;
#X connect 2 0 0 1;
#X connect 3 0 1 0;
#X connect 3 0 0 0;
#X restore 31 357 pd output-and-reverb;
#X obj 179 323 tgl 50 0 start empty start! 0 -8 0 10 #c6ffc7 #000000 #000000 0 1;
#X obj 29 285 stereovol 92;
#X obj 468 269 stereovol 90;
#X obj 468 243 pan 0.5;
#X msg 530 162 1 5 \, 0 45 5;
#X obj 466 112 aeolian 36;
#X obj 467 90 f;
#X obj 466 49 metro 125;
#X obj 545 38 nbx 5 25 -1e+37 1e+37 0 1 empty empty bass\ scale\ degree 0 -8 0 10 #ffc7c6 #000000 #000000 0 256;
#N canvas -1382 481 1030 634 make_quavs 0;
#X obj 65 24 inlet;
#X obj 234 388 outlet;
#X obj 159 176 random 22;
#X obj 131 148 t b b;
#X listbox 158 245 20 0 0 0 - - - 0;
#X obj 122 121 bng 16 250 50 0 empty empty empty 0 -8 0 10 #fcfcfc #000000 #000000;
#X obj 121 313 list length;
#X obj 159 215 list prepend;
#X msg 272 181 0;
#X obj 256 214 list;
#X floatatom 119 340 5 0 0 0 - - - 0;
#X obj 222 330 list;
#X obj 119 289 t a a;
#X listbox 229 354 28 0 0 0 - - - 0;
#X obj 151 366 == 11;
#X obj 234 96 t b b;
#X obj 242 57 bng 16 250 50 0 empty empty empty 0 -8 0 10 #fcfcfc #000000 #000000;
#X obj 85 369 < 11;
#X obj 43 390 del 1;
#X obj 152 387 sel 1;
#X obj 85 389 sel 1;
#X connect 0 0 16 0;
#X connect 2 0 7 0;
#X connect 3 1 2 0;
#X connect 4 0 9 0;
#X connect 4 0 12 0;
#X connect 5 0 3 0;
#X connect 6 0 10 0;
#X connect 7 0 4 0;
#X connect 8 0 9 0;
#X connect 9 0 7 1;
#X connect 10 0 14 0;
#X connect 10 0 17 0;
#X connect 11 0 13 0;
#X connect 12 0 6 0;
#X connect 12 1 11 1;
#X connect 13 0 1 0;
#X connect 14 0 19 0;
#X connect 15 0 5 0;
#X connect 15 1 8 0;
#X connect 16 0 15 0;
#X connect 17 0 20 0;
#X connect 18 0 5 0;
#X connect 19 0 11 0;
#X connect 20 0 18 0;
#X restore 189 58 pd make_quavs;
#X obj 191 36 bng 16 250 50 0 empty empty empty 0 -8 0 10 #fcfcfc #000000 #000000;
#X listbox 189 78 31 0 0 0 - - - 0;
#X obj 189 97 s \$0-quavs;
#N canvas 0 22 450 278 (subpatch) 0;
#X array \$0-quavs 10 float 3;
#A 0 13 20 21 18 7 12 16 4 6 10;
#X coords 0 0 10 22 200 140 1 0 0;
#X restore 235 139 graph;
#X obj 216 35 loadbang;
#X obj 34 105 tabread \$0-quavs;
#X obj 34 125 aeolian 48;
#X obj 468 221 fmsynth 2.05 5;
#X connect 0 0 8 0;
#X connect 1 0 38 0;
#X connect 2 0 7 0;
#X connect 2 0 5 0;
#X connect 3 0 4 1;
#X connect 4 0 1 0;
#X connect 4 0 3 0;
#X connect 5 0 10 0;
#X connect 6 0 10 1;
#X connect 7 0 19 0;
#X connect 8 0 4 0;
#X connect 9 0 4 0;
#X connect 10 0 15 0;
#X connect 11 0 40 1;
#X connect 12 0 13 0;
#X connect 12 0 14 0;
#X connect 13 0 40 0;
#X connect 14 0 27 0;
#X connect 15 0 18 0;
#X connect 16 0 30 0;
#X connect 17 0 29 0;
#X connect 18 0 24 0;
#X connect 18 0 24 1;
#X connect 19 0 6 0;
#X connect 24 0 20 0;
#X connect 24 1 20 1;
#X connect 25 0 21 0;
#X connect 25 1 21 1;
#X connect 26 0 25 0;
#X connect 26 1 25 1;
#X connect 27 0 11 0;
#X connect 28 0 12 0;
#X connect 29 0 28 0;
#X connect 30 0 17 0;
#X connect 31 0 29 1;
#X connect 32 0 34 0;
#X connect 33 0 32 0;
#X connect 34 0 35 0;
#X connect 37 0 32 0;
#X connect 38 0 39 0;
#X connect 39 0 2 0;
#X connect 40 0 26 0;
