#N canvas -1871 15 672 391 10;
#X obj 34 21 tgl 20 0 empty start empty 17 7 0 10 #ffc7c6 #000000 #000000 0 1;
#X floatatom 34 168 5 0 0 0 - - - 0;
#X obj 63 64 + 1;
#X obj 34 64 f;
#X obj 34 187 mtof;
#X obj 132 185 vline~;
#X obj 132 142 bng 15 250 50 0 empty empty empty 17 7 0 10 #fcfcfc #000000 #000000;
#X obj 34 44 metro 125;
#X obj 8 45 bng 20 250 50 0 empty empty empty 17 7 0 10 #c6feff #000000 #000000;
#X obj 34 207 fmsynth 10 0.1;
#X obj 530 183 vline~;
#X floatatom 467 142 5 0 0 0 - - - 0;
#X obj 467 165 mtof;
#X obj 529 141 bng 15 250 50 0 empty empty empty 17 7 0 10 #fcfcfc #000000 #000000;
#X obj 31 232 *~ 0.8;
#X obj 466 70 bng 15 250 50 0 empty empty empty 17 7 0 10 #fcfcfc #000000 #000000;
#X obj 30 256 feedbackdelay 223 0.25;
#X msg 132 164 1 15 \, 0 45 15;
#N canvas -1686 304 450 300 to-out 0;
#X obj 38 93 throw~ out-1;
#X obj 162 85 throw~ out-2;
#X obj 45 59 inlet~;
#X obj 161 53 inlet~;
#X connect 2 0 0 0;
#X connect 3 0 1 0;
#X restore 30 327 pd to-out;
#N canvas -1686 304 450 300 to-out 0;
#X obj 38 93 throw~ out-1;
#X obj 162 85 throw~ out-2;
#X obj 45 59 inlet~;
#X obj 161 53 inlet~;
#X connect 2 0 0 0;
#X connect 3 0 1 0;
#X restore 469 309 pd to-out;
#N canvas -1393 142 233 151 output-and-reverb 0;
#X obj 71 95 dac~;
#X obj 70 60 rev2~ 87 85;
#X obj 116 23 catch~ out-2;
#X obj 27 22 catch~ out-1;
#X connect 1 0 0 0;
#X connect 1 1 0 1;
#X connect 2 0 1 0;
#X connect 2 0 0 1;
#X connect 3 0 1 0;
#X connect 3 0 0 0;
#X restore 31 357 pd output-and-reverb;
#X obj 179 323 tgl 50 0 start empty start! 0 -8 0 10 #c6ffc7 #000000 #000000 0 1;
#X obj 29 285 stereovol 92;
#X obj 468 269 stereovol 90;
#X obj 468 243 pan 0.5;
#X msg 530 162 1 5 \, 0 45 5;
#X obj 466 123 aeolian 36;
#X obj 467 90 f;
#X obj 528 57 nbx 5 25 -1e+37 1e+37 0 1 empty empty bass\ scale\ degree 0 -8 0 10 #ffc7c6 #000000 #000000 0 256;
#X obj 191 36 bng 16 250 50 0 empty empty empty 0 -8 0 10 #fcfcfc #000000 #000000;
#N canvas 0 22 450 278 (subpatch) 0;
#X array \$0-chord 3 float 3;
#A 0 0 2 4;
#X coords 0 0 3 22 200 140 1 0 0;
#X restore 235 139 graph;
#X obj 216 35 loadbang;
#X obj 468 221 fmsynth 2.05 5;
#X obj 34 85 mod 3;
#X obj 34 105 tabread \$0-chord;
#X obj 189 97 s \$0-chord;
#X msg 188 65 0 0 2 4;
#X obj 34 149 aeolian 60;
#X obj 293 108 s offset;
#X msg 296 69 0;
#X msg 333 68 1;
#X msg 369 68 5;
#X msg 404 68 4;
#X obj 95 45 s pulse;
#X obj 466 47 r pulse;
#X obj 35 128 +;
#X obj 61 127 r offset;
#X obj 478 16 r offset;
#N canvas -1232 21 450 300 seq 0;
#X obj 90 23 r pulse;
#X obj 119 48 + 1;
#X obj 90 48 f;
#X obj 90 69 mod 16;
#X obj 91 103 sel 0;
#X obj 120 131 + 1;
#X obj 91 131 f;
#X obj 91 152 mod 4;
#X obj 91 176 sel 0 1 2 3;
#X obj 68 223 outlet;
#X obj 117 225 outlet;
#X obj 169 224 outlet;
#X obj 231 221 outlet;
#X obj 165 90 s pulse-numbers;
#X connect 0 0 2 0;
#X connect 1 0 2 1;
#X connect 2 0 1 0;
#X connect 2 0 3 0;
#X connect 3 0 4 0;
#X connect 3 0 13 0;
#X connect 4 0 6 0;
#X connect 5 0 6 1;
#X connect 6 0 5 0;
#X connect 6 0 7 0;
#X connect 7 0 8 0;
#X connect 8 0 9 0;
#X connect 8 1 10 0;
#X connect 8 2 11 0;
#X connect 8 3 12 0;
#X restore 321 19 pd seq;
#X obj 296 48 bng 16 250 50 0 empty empty empty 0 -8 0 10 #fcfcfc #000000 #000000;
#X obj 332 47 bng 16 250 50 0 empty empty empty 0 -8 0 10 #fcfcfc #000000 #000000;
#X obj 369 47 bng 16 250 50 0 empty empty empty 0 -8 0 10 #fcfcfc #000000 #000000;
#X obj 407 45 bng 16 250 50 0 empty empty empty 0 -8 0 10 #fcfcfc #000000 #000000;
#N canvas -1462 38 607 615 drums 0;
#X obj 118 104 tgl 19 0 empty empty empty 0 -10 0 12 #fcfcfc #000000 #000000 0 1;
#X obj 117 174 f;
#X obj 149 174 + 1;
#X obj 116 203 % 16;
#X obj 116 229 + 0;
#X obj 116 253 *;
#X obj 116 277 % 16;
#X obj 116 301 <;
#X obj 116 325 select 1;
#X obj 116 349 bng 19 250 50 0 empty empty empty 0 -10 0 12 #fcfcfc #000000 #000000;
#X floatatom 216 188 5 0 0 1 num\ notes - - 0;
#X obj 75 349 bng 19 250 50 0 empty empty empty 0 -10 0 12 #fcfcfc #000000 #000000;
#N canvas -609 105 450 300 hat 0;
#X obj 97 245 outlet~;
#X obj 89 35 inlet;
#X obj 68 113 noise~;
#X obj 105 172 *~;
#X obj 131 132 vline~;
#X msg 117 91 1 3 \, 0 10 3;
#X obj 24 144 bp~ 10000 20;
#X obj 19 169 hip~ 7000;
#X obj 105 207 *~ 0.7;
#X connect 1 0 5 0;
#X connect 2 0 6 0;
#X connect 3 0 8 0;
#X connect 4 0 3 1;
#X connect 5 0 4 0;
#X connect 6 0 7 0;
#X connect 7 0 3 0;
#X connect 8 0 0 0;
#X restore 72 379 pd hat;
#X obj 99 408 dac~;
#N canvas -953 463 755 539 kick 0;
#X obj 194 256 *~;
#X obj 212 231 osc~;
#X obj 194 158 vline~;
#X msg 194 132 1 1 \, 0 400 1;
#X obj 176 338 outlet~;
#X obj 165 63 inlet;
#X obj 213 208 +~ 25;
#X obj 194 282 *~ 0.8;
#X obj 212 184 *~ 120;
#X connect 0 0 7 0;
#X connect 1 0 0 1;
#X connect 2 0 0 0;
#X connect 2 0 8 0;
#X connect 3 0 2 0;
#X connect 5 0 3 0;
#X connect 6 0 1 0;
#X connect 7 0 4 0;
#X connect 8 0 6 0;
#X restore 128 379 pd kick;
#X text 215 158 use odd numbers <16;
#X floatatom 173 264 5 0 0 0 - - - 0;
#X floatatom 175 296 5 0 0 0 - - - 0;
#X text 53 431 hat tip to Andrew Brown (Griffith Uni);
#X obj 137 49 inlet;
#X obj 96 139 spigot;
#X obj 71 74 r pulse-numbers;
#X msg 225 130 4;
#X obj 230 97 loadbang;
#X connect 0 0 20 1;
#X connect 1 0 2 0;
#X connect 1 0 3 0;
#X connect 1 0 11 0;
#X connect 2 0 1 1;
#X connect 3 0 4 0;
#X connect 4 0 5 0;
#X connect 5 0 6 0;
#X connect 5 0 16 0;
#X connect 6 0 7 0;
#X connect 6 0 17 0;
#X connect 7 0 8 0;
#X connect 8 0 9 0;
#X connect 9 0 14 0;
#X connect 10 0 5 1;
#X connect 10 0 7 1;
#X connect 11 0 12 0;
#X connect 12 0 13 0;
#X connect 14 0 13 1;
#X connect 19 0 0 0;
#X connect 20 0 1 0;
#X connect 21 0 20 0;
#X connect 22 0 10 0;
#X connect 23 0 22 0;
#X restore 260 345 pd drums;
#X obj 261 323 tgl 16 0 empty empty empty 0 -8 0 10 #fcfcfc #000000 #000000 0 1;
#X connect 0 0 7 0;
#X connect 1 0 6 0;
#X connect 1 0 4 0;
#X connect 2 0 3 1;
#X connect 3 0 2 0;
#X connect 3 0 33 0;
#X connect 4 0 9 0;
#X connect 5 0 9 1;
#X connect 6 0 17 0;
#X connect 7 0 3 0;
#X connect 7 0 43 0;
#X connect 8 0 3 0;
#X connect 9 0 14 0;
#X connect 10 0 32 1;
#X connect 11 0 12 0;
#X connect 11 0 13 0;
#X connect 12 0 32 0;
#X connect 13 0 25 0;
#X connect 14 0 16 0;
#X connect 15 0 27 0;
#X connect 16 0 22 0;
#X connect 16 0 22 1;
#X connect 17 0 5 0;
#X connect 22 0 18 0;
#X connect 22 1 18 1;
#X connect 23 0 19 0;
#X connect 23 1 19 1;
#X connect 24 0 23 0;
#X connect 24 1 23 1;
#X connect 25 0 10 0;
#X connect 26 0 11 0;
#X connect 27 0 26 0;
#X connect 28 0 27 1;
#X connect 29 0 36 0;
#X connect 31 0 36 0;
#X connect 32 0 24 0;
#X connect 33 0 34 0;
#X connect 34 0 45 0;
#X connect 36 0 35 0;
#X connect 37 0 1 0;
#X connect 39 0 38 0;
#X connect 40 0 38 0;
#X connect 41 0 38 0;
#X connect 42 0 38 0;
#X connect 44 0 15 0;
#X connect 45 0 37 0;
#X connect 46 0 45 1;
#X connect 47 0 28 0;
#X connect 48 0 49 0;
#X connect 48 1 50 0;
#X connect 48 2 51 0;
#X connect 48 3 52 0;
#X connect 49 0 39 0;
#X connect 50 0 40 0;
#X connect 51 0 41 0;
#X connect 52 0 42 0;
#X connect 54 0 53 0;
