#N canvas 323 83 889 634 10;
#X obj 98 259 dac~;
#X obj 39 62 random 2500;
#X obj 39 81 + 50;
#X obj 107 215 osc~;
#X obj 39 45 bng 15 250 50 0 empty empty empty 17 7 0 10 -262144 -1
-1;
#X floatatom 107 191 5 0 0 0 - - -;
#X obj 209 147 mtof;
#X msg 127 108 60;
#X msg 164 108 62;
#X msg 203 108 64;
#X msg 240 108 66;
#X msg 278 108 68;
#X obj 166 52 random 5;
#X obj 169 77 select 0 1 2 3 4;
#X obj 169 42 bng 15 250 50 0 empty empty empty 17 7 0 10 -262144 -1
-1;
#X floatatom 129 60 5 0 0 0 - - -;
#X obj 315 51 random 1000;
#X obj 315 70 / 1000;
#X obj 315 88 print;
#X obj 319 24 bng 15 250 50 0 empty empty empty 17 7 0 10 -262144 -1
-1;
#X obj 108 237 *~ 0;
#X connect 1 0 2 0;
#X connect 2 0 5 0;
#X connect 3 0 20 0;
#X connect 4 0 1 0;
#X connect 5 0 3 0;
#X connect 6 0 5 0;
#X connect 7 0 6 0;
#X connect 8 0 6 0;
#X connect 9 0 6 0;
#X connect 10 0 6 0;
#X connect 11 0 6 0;
#X connect 12 0 13 0;
#X connect 12 0 15 0;
#X connect 13 0 7 0;
#X connect 13 1 8 0;
#X connect 13 2 9 0;
#X connect 13 3 10 0;
#X connect 13 4 11 0;
#X connect 14 0 12 0;
#X connect 16 0 17 0;
#X connect 17 0 18 0;
#X connect 19 0 16 0;
#X connect 20 0 0 0;
#X connect 20 0 0 1;
