#N canvas 219 80 655 652 10;
#X obj 98 259 dac~;
#X obj 108 237 *~ 0.1;
#X obj 107 149 random 2500;
#X obj 107 168 + 50;
#X obj 107 215 osc~;
#X obj 107 132 bng 15 250 50 0 empty empty empty 17 7 0 10 -262144
-1 -1;
#X floatatom 107 191 5 0 0 0 - - -;
#X obj 107 110 metro 1000;
#X obj 107 78 tgl 15 0 empty empty empty 17 7 0 10 -262144 -1 -1 497.071
1;
#X obj 213 58 vsl 15 128 2 1000 0 0 empty empty empty 0 -9 0 10 -262144
-1 -1 6300 1;
#X floatatom 213 194 5 0 0 0 - - -;
#X obj 169 45 t 1;
#X connect 1 0 0 0;
#X connect 1 0 0 1;
#X connect 2 0 3 0;
#X connect 3 0 6 0;
#X connect 4 0 1 0;
#X connect 5 0 2 0;
#X connect 6 0 4 0;
#X connect 7 0 5 0;
#X connect 8 0 7 0;
#X connect 9 0 10 0;
#X connect 10 0 7 1;
#X connect 10 0 11 0;
#X connect 11 0 8 0;
