#N canvas 146 296 1072 537 10;
#X obj 285 33 t a a;
#X obj 344 71 * 12;
#X obj 285 189 +;
#X obj 14 77 loadbang;
#X floatatom 299 95 5 0 0 0 - - -;
#X obj 285 72 mod 7;
#X obj 344 48 div 7;
#X msg 14 100 0 0 2 3 5 7 8 10;
#X floatatom 285 10 5 0 0 0 - scale-degree -;
#X floatatom 285 234 5 0 0 0 - - pitch;
#X text 201 10 scale degree;
#X text 218 235 MIDI pitch;
#X text 11 55 saving a scale as pitch classes;
#X obj 14 146 table scale-table 7;
#X obj 14 123 s scale-table;
#X obj 285 133 tabread scale-table;
#X text 220 211 base note;
#X floatatom 359 93 5 0 0 0 - - -;
#X text 395 92 octave;
#X text 240 93 degree;
#X obj 491 13 vsl 15 128 0 36 0 0 scale-degree empty empty 0 -9 0 10
-262144 -1 -1 0 1;
#X obj 285 212 + 36;
#N canvas 0 23 532 443 synth 0;
#X obj 86 118 r pitch;
#X obj 86 154 mtof;
#X obj 88 314 dac~;
#X obj 196 152 vline~;
#X msg 196 112 1 50 \, 0 150 50;
#X obj 198 70 t b;
#X obj 86 246 *~ 0.2;
#X obj 86 200 fmsynth 1 1.995;
#X connect 0 0 1 0;
#X connect 0 0 5 0;
#X connect 1 0 7 0;
#X connect 3 0 7 1;
#X connect 4 0 3 0;
#X connect 5 0 4 0;
#X connect 6 0 2 0;
#X connect 6 0 2 1;
#X connect 7 0 6 0;
#X restore 16 230 pd synth;
#X connect 0 0 5 0;
#X connect 0 1 6 0;
#X connect 1 0 2 1;
#X connect 2 0 21 0;
#X connect 3 0 7 0;
#X connect 5 0 4 0;
#X connect 5 0 15 0;
#X connect 6 0 1 0;
#X connect 6 0 17 0;
#X connect 7 0 14 0;
#X connect 8 0 0 0;
#X connect 15 0 2 0;
#X connect 21 0 9 0;
