#N canvas -1856 84 1213 607 10;
#X obj 303 31 t a a;
#X obj 362 69 * 12;
#X obj 303 187 +;
#X obj 14 27 loadbang;
#X floatatom 317 93 5 0 0 0 - - - 0;
#X obj 303 70 mod 7;
#X obj 362 46 div 7;
#X msg 14 50 0 0 2 3 5 7 8 10;
#X floatatom 303 8 5 0 0 0 - scale-degree - 0;
#X floatatom 303 232 5 0 0 0 - - pitch 0;
#X text 219 8 scale degree;
#X text 236 233 MIDI pitch;
#X text 11 5 saving a scale as pitch classes;
#X obj 14 73 s scale-table, f 14;
#X obj 303 131 tabread scale-table;
#X text 238 209 base note;
#X floatatom 377 91 5 0 0 0 - - - 0;
#X text 413 90 octave;
#X text 258 91 degree;
#X obj 477 19 vsl 30 128 0 36 0 0 empty empty play\ the\ scale! 0 -9 0 10 #ffc7c6 #000000 #000000 0 1;
#X obj 303 210 + 36;
#N canvas 0 25 532 443 synth 1;
#X obj 86 118 r pitch;
#X obj 86 154 mtof;
#X obj 88 314 dac~;
#X obj 196 152 vline~;
#X msg 196 112 1 50 \, 0 150 50;
#X obj 198 70 t b;
#X obj 86 246 *~ 0.2;
#X obj 86 200 fmsynth 1 1.995;
#X connect 0 0 1 0;
#X connect 0 0 5 0;
#X connect 1 0 7 0;
#X connect 3 0 7 1;
#X connect 4 0 3 0;
#X connect 5 0 4 0;
#X connect 6 0 2 0;
#X connect 6 0 2 1;
#X connect 7 0 6 0;
#X restore 368 188 pd synth;
#N canvas 0 22 450 278 (subpatch) 0;
#X array scale-table 7 float 3;
#A 0 0 2 3 5 7 8 10;
#X coords 0 12 7 0 200 140 1 0 0;
#X restore 12 148 graph;
#X text 13 96 set array values;
#X text 10 114 (first 0 is the starting index);
#X obj 477 155 int;
#X obj 477 176 change;
#X obj 477 197 s scale-degree;
#X connect 0 0 5 0;
#X connect 0 1 6 0;
#X connect 1 0 2 1;
#X connect 2 0 20 0;
#X connect 3 0 7 0;
#X connect 5 0 4 0;
#X connect 5 0 14 0;
#X connect 6 0 1 0;
#X connect 6 0 16 0;
#X connect 7 0 13 0;
#X connect 8 0 0 0;
#X connect 14 0 2 0;
#X connect 19 0 25 0;
#X connect 20 0 9 0;
#X connect 25 0 26 0;
#X connect 26 0 27 0;
