#N canvas -2062 -36 1264 396 10;
#X obj 147 19 loadbang;
#X msg 147 42 0 60 63 62 67 72 65 84 77 65 67;
#X obj 147 65 s quavs;
#X obj 147 89 table quavs 10;
#X obj 34 21 tgl 20 0 empty start empty 17 7 0 10 #ffc7c6 #000000 #000000 0 1;
#X obj 34 85 mod 10;
#X obj 34 105 tabread quavs;
#X floatatom 34 126 5 0 0 0 - - - 0;
#X obj 63 64 + 1;
#X obj 34 64 f;
#X obj 34 149 mtof;
#X obj 132 185 vline~;
#X obj 132 142 bng 15 250 50 0 empty empty empty 17 7 0 10 #fcfcfc #000000 #000000;
#X obj 34 44 metro 125;
#X obj 8 45 bng 20 250 50 0 empty empty empty 17 7 0 10 #c6feff #000000 #000000;
#X obj 34 207 fmsynth 10 0.1;
#X obj 389 238 fmsynth 1 0.1;
#X obj 447 200 vline~;
#X floatatom 384 159 5 0 0 0 - - - 0;
#X obj 384 182 mtof;
#X obj 446 158 bng 15 250 50 0 empty empty empty 17 7 0 10 #fcfcfc #000000 #000000;
#X obj 590 236 fmsynth 1 0.1;
#X obj 648 198 vline~;
#X floatatom 585 157 5 0 0 0 - - - 0;
#X obj 585 180 mtof;
#X obj 647 156 bng 15 250 50 0 empty empty empty 17 7 0 10 #fcfcfc #000000 #000000;
#X obj 785 234 fmsynth 1 0.1;
#X obj 843 196 vline~;
#X floatatom 780 155 5 0 0 0 - - - 0;
#X obj 780 178 mtof;
#X obj 842 154 bng 15 250 50 0 empty empty empty 17 7 0 10 #fcfcfc #000000 #000000;
#X obj 983 232 fmsynth 1 0.1;
#X obj 1058 211 vline~;
#X floatatom 983 149 5 0 0 0 - - - 0;
#X obj 983 172 mtof;
#X obj 1057 169 bng 15 250 50 0 empty empty empty 17 7 0 10 #fcfcfc #000000 #000000;
#X obj 383 129 aeolian 24;
#X obj 585 129 aeolian 36;
#X obj 983 107 random 14;
#X obj 780 110 random 14;
#X obj 585 108 random 14;
#X obj 383 108 random 14;
#X obj 31 232 *~ 0.8;
#X msg 447 179 1 1000 \, 0 3000 1000;
#X msg 647 177 1 1000 \, 0 3000 1000;
#X msg 842 177 1 1000 \, 0 3000 1000;
#X msg 1058 190 1 1000 \, 0 3000 1000;
#X obj 383 66 metro;
#X obj 383 42 tgl 20 0 empty start empty 17 7 0 10 #ffe3c6 #000000 #000000 0 1;
#X floatatom 423 66 5 0 0 0 - - - 0;
#X obj 416 7 bng 15 250 50 0 empty empty empty 17 7 0 10 #fcfcfc #000000 #000000;
#X obj 383 87 bng 15 250 50 0 empty empty empty 17 7 0 10 #fcfcfc #000000 #000000;
#X obj 416 46 + 4000;
#X obj 416 25 random 3000;
#X obj 30 256 feedbackdelay 223 0.25;
#X obj 983 128 aeolian 60;
#X obj 780 130 aeolian 48;
#X obj 389 260 pan 0.25;
#X obj 590 258 pan 0.4;
#X obj 785 254 pan 0.6;
#X obj 983 253 pan 0.75;
#X msg 132 164 1 15 \, 0 45 15;
#N canvas -1686 304 450 300 to-out 0;
#X obj 38 93 throw~ out-1;
#X obj 162 85 throw~ out-2;
#X obj 45 59 inlet~;
#X obj 161 53 inlet~;
#X connect 2 0 0 0;
#X connect 3 0 1 0;
#X restore 30 327 pd to-out;
#N canvas -1686 304 450 300 to-out 0;
#X obj 38 93 throw~ out-1;
#X obj 162 85 throw~ out-2;
#X obj 45 59 inlet~;
#X obj 161 53 inlet~;
#X connect 2 0 0 0;
#X connect 3 0 1 0;
#X restore 390 326 pd to-out;
#N canvas -1393 142 233 151 output-and-reverb 0;
#X obj 71 95 dac~;
#X obj 70 60 rev2~ 87 85;
#X obj 116 23 catch~ out-2;
#X obj 27 22 catch~ out-1;
#X connect 1 0 0 0;
#X connect 1 1 0 1;
#X connect 2 0 1 0;
#X connect 2 0 0 1;
#X connect 3 0 1 0;
#X connect 3 0 0 0;
#X restore 31 357 pd output-and-reverb;
#X obj 585 66 metro;
#X obj 585 42 tgl 20 0 empty start empty 17 7 0 10 #ffe3c6 #000000 #000000 0 1;
#X floatatom 625 66 5 0 0 0 - - - 0;
#X obj 618 7 bng 15 250 50 0 empty empty empty 17 7 0 10 #fcfcfc #000000 #000000;
#X obj 585 87 bng 15 250 50 0 empty empty empty 17 7 0 10 #fcfcfc #000000 #000000;
#X obj 618 46 + 4000;
#X obj 618 25 random 3000;
#X obj 780 69 metro;
#X obj 780 45 tgl 20 0 empty start empty 17 7 0 10 #ffe3c6 #000000 #000000 0 1;
#X floatatom 820 69 5 0 0 0 - - - 0;
#X obj 813 10 bng 15 250 50 0 empty empty empty 17 7 0 10 #fcfcfc #000000 #000000;
#X obj 780 90 bng 15 250 50 0 empty empty empty 17 7 0 10 #fcfcfc #000000 #000000;
#X obj 813 49 + 4000;
#X obj 813 28 random 3000;
#X obj 983 66 metro;
#X obj 983 42 tgl 20 0 empty start empty 17 7 0 10 #ffe3c6 #000000 #000000 0 1;
#X floatatom 1023 66 5 0 0 0 - - - 0;
#X obj 1016 7 bng 15 250 50 0 empty empty empty 17 7 0 10 #fcfcfc #000000 #000000;
#X obj 983 87 bng 15 250 50 0 empty empty empty 17 7 0 10 #fcfcfc #000000 #000000;
#X obj 1016 46 + 4000;
#X obj 1016 25 random 3000;
#X obj 228 286 tgl 50 0 start empty start! 0 -8 0 10 #c6ffc7 #000000 #000000 0 1;
#N canvas -1686 304 450 300 to-out 0;
#X obj 38 93 throw~ out-1;
#X obj 162 85 throw~ out-2;
#X obj 45 59 inlet~;
#X obj 161 53 inlet~;
#X connect 2 0 0 0;
#X connect 3 0 1 0;
#X restore 590 325 pd to-out;
#N canvas -1686 304 450 300 to-out 0;
#X obj 38 93 throw~ out-1;
#X obj 162 85 throw~ out-2;
#X obj 45 59 inlet~;
#X obj 161 53 inlet~;
#X connect 2 0 0 0;
#X connect 3 0 1 0;
#X restore 785 324 pd to-out;
#N canvas -1686 304 450 300 to-out 0;
#X obj 38 93 throw~ out-1;
#X obj 162 85 throw~ out-2;
#X obj 45 59 inlet~;
#X obj 161 53 inlet~;
#X connect 2 0 0 0;
#X connect 3 0 1 0;
#X restore 985 325 pd to-out;
#X obj 29 285 stereovol 92;
#X obj 389 286 stereovol 90;
#X obj 589 285 stereovol 90;
#X obj 784 284 stereovol 90;
#X obj 984 285 stereovol 90;
#X connect 0 0 1 0;
#X connect 1 0 2 0;
#X connect 4 0 13 0;
#X connect 5 0 6 0;
#X connect 6 0 7 0;
#X connect 7 0 12 0;
#X connect 7 0 10 0;
#X connect 8 0 9 1;
#X connect 9 0 5 0;
#X connect 9 0 8 0;
#X connect 10 0 15 0;
#X connect 11 0 15 1;
#X connect 12 0 61 0;
#X connect 13 0 9 0;
#X connect 14 0 9 0;
#X connect 15 0 42 0;
#X connect 16 0 57 0;
#X connect 17 0 16 1;
#X connect 18 0 19 0;
#X connect 18 0 20 0;
#X connect 19 0 16 0;
#X connect 20 0 43 0;
#X connect 21 0 58 0;
#X connect 22 0 21 1;
#X connect 23 0 24 0;
#X connect 23 0 25 0;
#X connect 24 0 21 0;
#X connect 25 0 44 0;
#X connect 26 0 59 0;
#X connect 27 0 26 1;
#X connect 28 0 29 0;
#X connect 28 0 30 0;
#X connect 29 0 26 0;
#X connect 30 0 45 0;
#X connect 31 0 60 0;
#X connect 32 0 31 1;
#X connect 33 0 34 0;
#X connect 33 0 35 0;
#X connect 34 0 31 0;
#X connect 35 0 46 0;
#X connect 36 0 18 0;
#X connect 37 0 23 0;
#X connect 38 0 55 0;
#X connect 39 0 56 0;
#X connect 40 0 37 0;
#X connect 41 0 36 0;
#X connect 42 0 54 0;
#X connect 43 0 17 0;
#X connect 44 0 22 0;
#X connect 45 0 27 0;
#X connect 46 0 32 0;
#X connect 47 0 51 0;
#X connect 48 0 47 0;
#X connect 50 0 53 0;
#X connect 51 0 53 0;
#X connect 51 0 41 0;
#X connect 52 0 47 1;
#X connect 52 0 49 0;
#X connect 53 0 52 0;
#X connect 54 0 90 0;
#X connect 54 0 90 1;
#X connect 55 0 33 0;
#X connect 56 0 28 0;
#X connect 57 0 91 0;
#X connect 57 1 91 1;
#X connect 58 0 92 0;
#X connect 58 1 92 1;
#X connect 59 0 93 0;
#X connect 59 1 93 1;
#X connect 60 0 94 0;
#X connect 60 1 94 1;
#X connect 61 0 11 0;
#X connect 65 0 69 0;
#X connect 66 0 65 0;
#X connect 68 0 71 0;
#X connect 69 0 71 0;
#X connect 69 0 40 0;
#X connect 70 0 65 1;
#X connect 70 0 67 0;
#X connect 71 0 70 0;
#X connect 72 0 76 0;
#X connect 73 0 72 0;
#X connect 75 0 78 0;
#X connect 76 0 78 0;
#X connect 76 0 39 0;
#X connect 77 0 72 1;
#X connect 77 0 74 0;
#X connect 78 0 77 0;
#X connect 79 0 83 0;
#X connect 80 0 79 0;
#X connect 82 0 85 0;
#X connect 83 0 85 0;
#X connect 83 0 38 0;
#X connect 84 0 79 1;
#X connect 84 0 81 0;
#X connect 85 0 84 0;
#X connect 90 0 62 0;
#X connect 90 1 62 1;
#X connect 91 0 63 0;
#X connect 91 1 63 1;
#X connect 92 0 87 0;
#X connect 92 1 87 1;
#X connect 93 0 88 0;
#X connect 93 1 88 1;
#X connect 94 0 89 0;
#X connect 94 1 89 1;
