#N canvas 381 232 555 331 10;
#N canvas 0 25 450 300 infcount 0;
#X obj 141 164 outlet;
#X obj 118 56 inlet;
#X obj 215 60 inlet;
#X obj 162 90 metro;
#X obj 145 122 f;
#X obj 178 122 + 1;
#X connect 1 0 3 0;
#X connect 2 0 3 1;
#X connect 3 0 4 0;
#X connect 4 0 5 0;
#X connect 4 0 0 0;
#X connect 5 0 4 1;
#X restore 31 58 pd infcount;
#X obj 31 38 tgl 15 0 empty empty empty 17 7 0 10 #fcfcfc #000000 #000000 0 1;
#X msg 93 27 125;
#X obj 93 4 loadbang;
#X floatatom 31 79 12 0 0 0 - - - 0;
#X obj 6 132 cos;
#X floatatom 6 154 7 0 0 0 - - - 0;
#X obj 9 175 hsl 128 15 -1 1 0 0 empty empty empty -2 -8 0 10 #fcfcfc #000000 #000000 0 1;
#X obj 142 130 cos;
#X floatatom 143 154 7 0 0 0 - - - 0;
#X obj 146 175 hsl 128 15 -1 1 0 0 empty empty empty -2 -8 0 10 #fcfcfc #000000 #000000 0 1;
#X obj 279 130 cos;
#X floatatom 280 154 7 0 0 0 - - - 0;
#X obj 283 175 hsl 128 15 -1 1 0 0 empty empty empty -2 -8 0 10 #fcfcfc #000000 #000000 0 1;
#X obj 415 131 cos;
#X floatatom 416 155 7 0 0 0 - - - 0;
#X obj 419 176 hsl 128 15 -1 1 0 0 empty empty empty -2 -8 0 10 #fcfcfc #000000 #000000 0 1;
#N canvas 463 25 618 659 fm_pad_panner 0;
#X obj 112 308 fmsynth 1 0.1;
#X obj 170 270 vline~;
#X floatatom 107 229 5 0 0 0 - - - 0;
#X obj 107 252 mtof;
#X obj 169 228 bng 15 250 50 0 empty empty empty 17 7 0 10 #fcfcfc #000000 #000000;
#X msg 170 249 1 1000 \, 0 3000 1000;
#X obj 109 133 metro;
#X obj 65 98 tgl 15 0 empty empty empty 17 7 0 10 #fcfcfc #000000 #000000 0 1;
#X floatatom 149 133 5 0 0 0 - - - 0;
#X obj 142 74 bng 15 250 50 0 empty empty empty 17 7 0 10 #fcfcfc #000000 #000000;
#X obj 109 154 bng 15 250 50 0 empty empty empty 17 7 0 10 #fcfcfc #000000 #000000;
#X obj 142 113 + 4000;
#X obj 142 92 random 3000;
#X obj 107 200 aeolian 36;
#X obj 108 177 random 28;
#X obj 64 58 loadbang;
#X msg 64 79 1;
#X obj 105 379 outlet~;
#X obj 167 380 outlet~;
#X obj 113 353 pan 0.5;
#X obj 317 59 inlet;
#X obj 113 330 *~ 0.2;
#X connect 0 0 21 0;
#X connect 1 0 0 1;
#X connect 2 0 3 0;
#X connect 2 0 4 0;
#X connect 3 0 0 0;
#X connect 4 0 5 0;
#X connect 5 0 1 0;
#X connect 6 0 10 0;
#X connect 7 0 6 0;
#X connect 9 0 12 0;
#X connect 10 0 12 0;
#X connect 10 0 14 0;
#X connect 11 0 6 1;
#X connect 11 0 8 0;
#X connect 12 0 11 0;
#X connect 13 0 2 0;
#X connect 14 0 13 0;
#X connect 15 0 16 0;
#X connect 16 0 7 0;
#X connect 19 0 17 0;
#X connect 19 1 18 0;
#X connect 20 0 19 1;
#X connect 21 0 19 0;
#X restore 13 217 pd fm_pad_panner;
#X obj 168 309 dac~;
#N canvas 0 23 618 659 fm_pad_panner 0;
#X obj 112 308 fmsynth 1 0.1;
#X obj 170 270 vline~;
#X floatatom 107 229 5 0 0 0 - - - 0;
#X obj 107 252 mtof;
#X obj 169 228 bng 15 250 50 0 empty empty empty 17 7 0 10 #fcfcfc #000000 #000000;
#X msg 170 249 1 1000 \, 0 3000 1000;
#X obj 109 133 metro;
#X obj 65 98 tgl 15 0 empty empty empty 17 7 0 10 #fcfcfc #000000 #000000 0 1;
#X floatatom 149 133 5 0 0 0 - - - 0;
#X obj 142 74 bng 15 250 50 0 empty empty empty 17 7 0 10 #fcfcfc #000000 #000000;
#X obj 109 154 bng 15 250 50 0 empty empty empty 17 7 0 10 #fcfcfc #000000 #000000;
#X obj 142 113 + 4000;
#X obj 142 92 random 3000;
#X obj 107 200 aeolian 36;
#X obj 108 177 random 28;
#X obj 64 58 loadbang;
#X msg 64 79 1;
#X obj 105 379 outlet~;
#X obj 167 380 outlet~;
#X obj 113 353 pan 0.5;
#X obj 317 59 inlet;
#X obj 113 330 *~ 0.3;
#X connect 0 0 21 0;
#X connect 1 0 0 1;
#X connect 2 0 3 0;
#X connect 2 0 4 0;
#X connect 3 0 0 0;
#X connect 4 0 5 0;
#X connect 5 0 1 0;
#X connect 6 0 10 0;
#X connect 7 0 6 0;
#X connect 9 0 12 0;
#X connect 10 0 12 0;
#X connect 10 0 14 0;
#X connect 11 0 6 1;
#X connect 11 0 8 0;
#X connect 12 0 11 0;
#X connect 13 0 2 0;
#X connect 14 0 13 0;
#X connect 15 0 16 0;
#X connect 16 0 7 0;
#X connect 19 0 17 0;
#X connect 19 1 18 0;
#X connect 20 0 19 1;
#X connect 21 0 19 0;
#X restore 144 216 pd fm_pad_panner;
#N canvas 0 23 618 659 fm_pad_panner 0;
#X obj 112 308 fmsynth 1 0.1;
#X obj 170 270 vline~;
#X floatatom 107 229 5 0 0 0 - - - 0;
#X obj 107 252 mtof;
#X obj 169 228 bng 15 250 50 0 empty empty empty 17 7 0 10 #fcfcfc #000000 #000000;
#X msg 170 249 1 1000 \, 0 3000 1000;
#X obj 109 133 metro;
#X obj 65 98 tgl 15 0 empty empty empty 17 7 0 10 #fcfcfc #000000 #000000 0 1;
#X floatatom 149 133 5 0 0 0 - - - 0;
#X obj 142 74 bng 15 250 50 0 empty empty empty 17 7 0 10 #fcfcfc #000000 #000000;
#X obj 109 154 bng 15 250 50 0 empty empty empty 17 7 0 10 #fcfcfc #000000 #000000;
#X obj 142 113 + 4000;
#X obj 142 92 random 3000;
#X obj 107 200 aeolian 36;
#X obj 108 177 random 28;
#X obj 64 58 loadbang;
#X msg 64 79 1;
#X obj 105 379 outlet~;
#X obj 167 380 outlet~;
#X obj 113 353 pan 0.5;
#X obj 317 59 inlet;
#X obj 113 330 *~ 0.3;
#X connect 0 0 21 0;
#X connect 1 0 0 1;
#X connect 2 0 3 0;
#X connect 2 0 4 0;
#X connect 3 0 0 0;
#X connect 4 0 5 0;
#X connect 5 0 1 0;
#X connect 6 0 10 0;
#X connect 7 0 6 0;
#X connect 9 0 12 0;
#X connect 10 0 12 0;
#X connect 10 0 14 0;
#X connect 11 0 6 1;
#X connect 11 0 8 0;
#X connect 12 0 11 0;
#X connect 13 0 2 0;
#X connect 14 0 13 0;
#X connect 15 0 16 0;
#X connect 16 0 7 0;
#X connect 19 0 17 0;
#X connect 19 1 18 0;
#X connect 20 0 19 1;
#X connect 21 0 19 0;
#X restore 283 221 pd fm_pad_panner;
#N canvas 0 23 618 659 fm_pad_panner 0;
#X obj 112 308 fmsynth 1 0.1;
#X obj 170 270 vline~;
#X floatatom 107 229 5 0 0 0 - - - 0;
#X obj 107 252 mtof;
#X obj 169 228 bng 15 250 50 0 empty empty empty 17 7 0 10 #fcfcfc #000000 #000000;
#X msg 170 249 1 1000 \, 0 3000 1000;
#X obj 109 133 metro;
#X obj 65 98 tgl 15 0 empty empty empty 17 7 0 10 #fcfcfc #000000 #000000 0 1;
#X floatatom 149 133 5 0 0 0 - - - 0;
#X obj 142 74 bng 15 250 50 0 empty empty empty 17 7 0 10 #fcfcfc #000000 #000000;
#X obj 109 154 bng 15 250 50 0 empty empty empty 17 7 0 10 #fcfcfc #000000 #000000;
#X obj 142 113 + 4000;
#X obj 142 92 random 3000;
#X obj 107 200 aeolian 36;
#X obj 108 177 random 28;
#X obj 64 58 loadbang;
#X msg 64 79 1;
#X obj 105 379 outlet~;
#X obj 167 380 outlet~;
#X obj 113 353 pan 0.5;
#X obj 317 59 inlet;
#X obj 113 330 *~ 0.3;
#X connect 0 0 21 0;
#X connect 1 0 0 1;
#X connect 2 0 3 0;
#X connect 2 0 4 0;
#X connect 3 0 0 0;
#X connect 4 0 5 0;
#X connect 5 0 1 0;
#X connect 6 0 10 0;
#X connect 7 0 6 0;
#X connect 9 0 12 0;
#X connect 10 0 12 0;
#X connect 10 0 14 0;
#X connect 11 0 6 1;
#X connect 11 0 8 0;
#X connect 12 0 11 0;
#X connect 13 0 2 0;
#X connect 14 0 13 0;
#X connect 15 0 16 0;
#X connect 16 0 7 0;
#X connect 19 0 17 0;
#X connect 19 1 18 0;
#X connect 20 0 19 1;
#X connect 21 0 19 0;
#X restore 433 222 pd fm_pad_panner;
#X obj 141 111 / 33;
#X obj 278 111 / 57;
#X obj 414 112 / 49;
#X msg 30 18 1;
#X obj 5 113 / 13;
#X connect 0 0 4 0;
#X connect 1 0 0 0;
#X connect 2 0 0 1;
#X connect 3 0 2 0;
#X connect 3 0 25 0;
#X connect 4 0 22 0;
#X connect 4 0 23 0;
#X connect 4 0 24 0;
#X connect 4 0 26 0;
#X connect 5 0 6 0;
#X connect 6 0 7 0;
#X connect 7 0 17 0;
#X connect 8 0 9 0;
#X connect 9 0 10 0;
#X connect 10 0 19 0;
#X connect 11 0 12 0;
#X connect 12 0 13 0;
#X connect 13 0 20 0;
#X connect 14 0 15 0;
#X connect 15 0 16 0;
#X connect 16 0 21 0;
#X connect 17 0 18 0;
#X connect 17 1 18 1;
#X connect 19 0 18 0;
#X connect 19 1 18 1;
#X connect 20 0 18 0;
#X connect 20 1 18 1;
#X connect 21 0 18 0;
#X connect 21 1 18 1;
#X connect 22 0 8 0;
#X connect 23 0 11 0;
#X connect 24 0 14 0;
#X connect 25 0 1 0;
#X connect 26 0 5 0;
