#N canvas -1538 185 958 333 10;
#X obj 8 181 random 100;
#X obj 8 240 bng 15 250 50 0 empty empty empty 17 7 0 10 #fcfcfc #000000 #000000;
#X obj 68 240 bng 15 250 50 0 empty empty empty 17 7 0 10 #fcfcfc #000000 #000000;
#X obj 222 33 tgl 50 0 start empty start! 0 -10 0 16 #c6ffc7 #202020 #000000 0 1;
#X floatatom 410 50 5 0 0 1 output_pitch - pitch 0;
#X obj 129 240 bng 15 250 50 0 empty empty empty 17 7 0 10 #fcfcfc #000000 #000000;
#X obj 187 240 bng 15 250 50 0 empty empty empty 17 7 0 10 #fcfcfc #000000 #000000;
#X msg 8 267 60;
#X obj 92 300 s state;
#X msg 68 267 63;
#X msg 129 267 67;
#X msg 186 267 68;
#X obj 260 180 random 100;
#X obj 260 239 bng 15 250 50 0 empty empty empty 17 7 0 10 #fcfcfc #000000 #000000;
#X obj 320 239 bng 15 250 50 0 empty empty empty 17 7 0 10 #fcfcfc #000000 #000000;
#X obj 381 239 bng 15 250 50 0 empty empty empty 17 7 0 10 #fcfcfc #000000 #000000;
#X obj 439 239 bng 15 250 50 0 empty empty empty 17 7 0 10 #fcfcfc #000000 #000000;
#X msg 260 266 60;
#X obj 344 299 s state;
#X msg 320 266 63;
#X msg 381 266 67;
#X msg 438 266 68;
#X obj 508 179 random 100;
#X obj 508 211 moses 20;
#X obj 508 238 bng 15 250 50 0 empty empty empty 17 7 0 10 #fcfcfc #000000 #000000;
#X obj 568 238 bng 15 250 50 0 empty empty empty 17 7 0 10 #fcfcfc #000000 #000000;
#X obj 568 211 moses 30;
#X obj 629 211 moses 45;
#X obj 629 238 bng 15 250 50 0 empty empty empty 17 7 0 10 #fcfcfc #000000 #000000;
#X obj 687 238 bng 15 250 50 0 empty empty empty 17 7 0 10 #fcfcfc #000000 #000000;
#X msg 508 265 60;
#X obj 592 298 s state;
#X msg 568 265 63;
#X msg 629 265 67;
#X msg 686 265 68;
#X obj 746 179 random 100;
#X obj 746 238 bng 15 250 50 0 empty empty empty 17 7 0 10 #fcfcfc #000000 #000000;
#X obj 806 238 bng 15 250 50 0 empty empty empty 17 7 0 10 #fcfcfc #000000 #000000;
#X obj 867 238 bng 15 250 50 0 empty empty empty 17 7 0 10 #fcfcfc #000000 #000000;
#X obj 925 238 bng 15 250 50 0 empty empty empty 17 7 0 10 #fcfcfc #000000 #000000;
#X msg 746 265 60;
#X obj 830 298 s state;
#X msg 806 265 63;
#X msg 867 265 67;
#X msg 924 265 68;
#X obj 371 115 sel 60 63 67 68;
#X obj 370 90 f 60;
#X obj 319 46 bng 30 250 50 0 empty empty step! 32 7 0 10 #fcc4c4 #000000 #000000;
#X obj 8 213 moses 5;
#X obj 68 213 moses 75;
#X obj 129 213 moses 90;
#X obj 260 212 moses 5;
#X obj 320 212 moses 30;
#X obj 381 212 moses 85;
#X obj 746 211 moses 50;
#X obj 806 211 moses 65;
#X obj 868 210 moses 70;
#X obj 390 25 r state;
#X obj 319 26 metro 500;
#N canvas 0 23 532 443 synth 0;
#X obj 87 88 r pitch;
#X obj 86 154 mtof;
#X obj 88 314 dac~;
#X obj 127 174 vline~;
#X msg 127 153 1 50 \, 0 150 50;
#X obj 86 246 *~ 0.2;
#X obj 86 200 fmsynth 1 1.995;
#X obj 87 112 t b a;
#X connect 0 0 7 0;
#X connect 1 0 6 0;
#X connect 3 0 6 1;
#X connect 4 0 3 0;
#X connect 5 0 2 0;
#X connect 5 0 2 1;
#X connect 6 0 5 0;
#X connect 7 0 4 0;
#X connect 7 1 1 0;
#X restore 532 13 pd synth;
#X obj 8 148 bng 30 250 50 0 empty empty empty 17 7 0 10 #fce0c4 #000000 #000000;
#X obj 260 147 bng 30 250 50 0 empty empty empty 17 7 0 10 #fcfcc4 #000000 #000000;
#X obj 508 145 bng 30 250 50 0 empty empty empty 17 7 0 10 #c4fcc4 #000000 #000000;
#X obj 746 144 bng 30 250 50 0 empty empty empty 17 7 0 10 #c4fcfc #000000 #000000;
#X obj 319 6 r start;
#X connect 0 0 48 0;
#X connect 1 0 7 0;
#X connect 2 0 9 0;
#X connect 5 0 10 0;
#X connect 6 0 11 0;
#X connect 7 0 8 0;
#X connect 9 0 8 0;
#X connect 10 0 8 0;
#X connect 11 0 8 0;
#X connect 12 0 51 0;
#X connect 13 0 17 0;
#X connect 14 0 19 0;
#X connect 15 0 20 0;
#X connect 16 0 21 0;
#X connect 17 0 18 0;
#X connect 19 0 18 0;
#X connect 20 0 18 0;
#X connect 21 0 18 0;
#X connect 22 0 23 0;
#X connect 23 0 24 0;
#X connect 23 1 26 0;
#X connect 24 0 30 0;
#X connect 25 0 32 0;
#X connect 26 0 25 0;
#X connect 26 1 27 0;
#X connect 27 0 28 0;
#X connect 27 1 29 0;
#X connect 28 0 33 0;
#X connect 29 0 34 0;
#X connect 30 0 31 0;
#X connect 32 0 31 0;
#X connect 33 0 31 0;
#X connect 34 0 31 0;
#X connect 35 0 54 0;
#X connect 36 0 40 0;
#X connect 37 0 42 0;
#X connect 38 0 43 0;
#X connect 39 0 44 0;
#X connect 40 0 41 0;
#X connect 42 0 41 0;
#X connect 43 0 41 0;
#X connect 44 0 41 0;
#X connect 45 0 60 0;
#X connect 45 1 61 0;
#X connect 45 2 62 0;
#X connect 45 3 63 0;
#X connect 46 0 45 0;
#X connect 47 0 46 0;
#X connect 48 0 1 0;
#X connect 48 1 49 0;
#X connect 49 0 2 0;
#X connect 49 1 50 0;
#X connect 50 0 5 0;
#X connect 50 1 6 0;
#X connect 51 0 13 0;
#X connect 51 1 52 0;
#X connect 52 0 14 0;
#X connect 52 1 53 0;
#X connect 53 0 15 0;
#X connect 53 1 16 0;
#X connect 54 0 36 0;
#X connect 54 1 55 0;
#X connect 55 0 37 0;
#X connect 55 1 56 0;
#X connect 56 0 38 0;
#X connect 56 1 39 0;
#X connect 57 0 46 1;
#X connect 57 0 4 0;
#X connect 58 0 47 0;
#X connect 60 0 0 0;
#X connect 61 0 12 0;
#X connect 62 0 22 0;
#X connect 63 0 35 0;
#X connect 64 0 58 0;
