#N canvas -1825 95 302 379 10;
#X obj 24 81 t a a;
#X obj 89 146 * 12;
#X obj 24 237 +;
#X obj 24 304 outlet;
#X obj 24 41 inlet;
#X obj 160 133 loadbang;
#X obj 108 40 inlet;
#X obj 24 260 + \$1;
#X text 107 19 base note;
#X floatatom 36 146 5 0 0 0 - - - 0;
#X obj 24 120 mod 7;
#X obj 89 120 div 7;
#X obj 24 181 tabread \$0-scale;
#X obj 161 179 s \$0-scale;
#X obj 160 203 table \$0-scale 7;
#X msg 160 156 0 0 2 3 5 7 8 10;
#X text 20 18 note input;
#X obj 96 60 s \$0-bn;
#X obj 51 237 r \$0-bn;
#X text 158 109 define aeolian scale;
#X connect 0 0 10 0;
#X connect 0 1 11 0;
#X connect 1 0 2 1;
#X connect 2 0 7 0;
#X connect 4 0 0 0;
#X connect 5 0 15 0;
#X connect 6 0 17 0;
#X connect 7 0 3 0;
#X connect 10 0 9 0;
#X connect 10 0 12 0;
#X connect 11 0 1 0;
#X connect 12 0 2 0;
#X connect 15 0 13 0;
#X connect 18 0 7 1;
