#N canvas 50 214 450 300 10;
#X obj 157 238 dac~;
#X obj 228 84 soundfiler;
#X obj 218 105 array define kickarray;
#X obj 58 204 tabplay~ kickarray;
#X obj 60 182 bng 15 250 50 0 empty empty empty 17 7 0 10 -262144 -1
-1;
#X msg 236 56 read -resize kick.wav kickarray;
#X obj 230 14 loadbang;
#X obj 228 124 array define beeparray;
#X msg 220 33 read -resize beep.wav beeparray;
#X obj 185 202 tabplay~ beeparray;
#X obj 181 179 bng 15 250 50 0 empty empty empty 17 7 0 10 -262144
-1 -1;
#X obj 42 52 metro 250;
#X obj 39 18 tgl 15 0 empty empty empty 17 7 0 10 -262144 -1 -1 0 1
;
#X obj 46 89 f;
#X obj 78 90 + 1;
#X obj 47 110 % 2;
#X floatatom 77 115 5 0 0 0 - - -;
#X obj 90 144 select 0 1;
#X connect 3 0 0 0;
#X connect 4 0 3 0;
#X connect 5 0 1 0;
#X connect 6 0 5 0;
#X connect 6 0 8 0;
#X connect 8 0 1 0;
#X connect 9 0 0 0;
#X connect 10 0 9 0;
#X connect 11 0 13 0;
#X connect 12 0 11 0;
#X connect 13 0 14 0;
#X connect 13 0 15 0;
#X connect 14 0 13 1;
#X connect 15 0 16 0;
#X connect 16 0 17 0;
#X connect 17 0 4 0;
#X connect 17 1 10 0;
