#N canvas 134 213 338 391 12;
#X obj 78 12 tgl 19 0 empty empty empty 0 -10 0 12 #fcfcfc #000000 #000000 0 1;
#X obj 77 82 f;
#X obj 109 82 + 1;
#X obj 76 111 % 16;
#X obj 76 137 + 0;
#X obj 76 161 *;
#X obj 76 185 % 16;
#X obj 76 209 <;
#X obj 76 233 select 1;
#X obj 76 257 bng 19 250 50 0 empty empty empty 0 -10 0 12 #fcfcfc #000000 #000000;
#X floatatom 176 93 5 0 0 1 num\ notes - - 0;
#X obj 35 257 bng 19 250 50 0 empty empty empty 0 -10 0 12 #fcfcfc #000000 #000000;
#N canvas 456 574 450 300 hat 1;
#X obj 97 245 outlet~;
#X obj 89 35 inlet;
#X obj 68 113 noise~;
#X obj 105 172 *~;
#X obj 105 207 *~ 0.5;
#X obj 131 132 vline~;
#X msg 117 91 1 3 \, 0 10 3;
#X obj 24 144 bp~ 10000 20;
#X obj 19 169 hip~ 7000;
#X connect 1 0 6 0;
#X connect 2 0 7 0;
#X connect 3 0 4 0;
#X connect 4 0 0 0;
#X connect 5 0 3 1;
#X connect 6 0 5 0;
#X connect 7 0 8 0;
#X connect 8 0 3 0;
#X restore 32 287 pd hat;
#X obj 59 316 dac~;
#N canvas 179 204 755 539 kick 0;
#X obj 194 282 *~ 0.5;
#X obj 194 256 *~;
#X obj 212 231 osc~;
#X obj 194 158 vline~;
#X msg 194 132 1 1 \, 0 400 1;
#X obj 212 184 *~ 180;
#X obj 176 338 outlet~;
#X obj 165 63 inlet;
#X obj 213 208 +~ 50;
#X connect 0 0 6 0;
#X connect 1 0 0 0;
#X connect 2 0 1 1;
#X connect 3 0 1 0;
#X connect 3 0 5 0;
#X connect 4 0 3 0;
#X connect 5 0 8 0;
#X connect 7 0 4 0;
#X connect 8 0 2 0;
#X restore 88 287 pd kick;
#X obj 78 36 metro 180;
#X text 175 66 use odd numbers <16;
#X floatatom 133 172 5 0 0 0 - - - 0;
#X floatatom 135 204 5 0 0 0 - - - 0;
#X text 15 341 hat tip to Andrew Brown (Griffith Uni);
#X connect 0 0 15 0;
#X connect 1 0 2 0;
#X connect 1 0 3 0;
#X connect 1 0 11 0;
#X connect 2 0 1 1;
#X connect 3 0 4 0;
#X connect 4 0 5 0;
#X connect 5 0 6 0;
#X connect 5 0 17 0;
#X connect 6 0 7 0;
#X connect 6 0 18 0;
#X connect 7 0 8 0;
#X connect 8 0 9 0;
#X connect 9 0 14 0;
#X connect 10 0 5 1;
#X connect 10 0 7 1;
#X connect 11 0 12 0;
#X connect 12 0 13 0;
#X connect 14 0 13 1;
#X connect 15 0 1 0;
