#N canvas -2310 343 328 494 12;
#X obj 86 147 random 4;
#X obj 11 34 metro 1000;
#X obj 66 57 random 2000;
#X obj 66 81 + 300;
#X obj 11 58 bng 19 250 50 0 empty empty empty 0 -10 0 12 #fcfcfc #000000 #000000;
#X obj 45 13 loadbang;
#X msg 11 13 1;
#X obj 86 172 * 12;
#X obj 11 147 random 12;
#X obj 51 200 +;
#X obj 11 121 t b b b;
#X msg 165 147 36;
#X obj 51 223 +;
#X floatatom 51 246 5 0 0 0 - - - 0;
#X obj 16 366 fmsynth 1 0.1;
#X obj 50 272 t b f;
#X obj 19 342 mtof;
#X obj 17 401 dac~;
#X msg 62 315 0.5 50 \, 0 1000 50;
#X obj 63 339 vline~;
#X text 221 117 add:;
#X text 221 139 - base freq;
#X text 221 161 - octave * 12;
#X text 221 183 - pitch;
#X connect 0 0 7 0;
#X connect 1 0 2 0;
#X connect 1 0 4 0;
#X connect 2 0 3 0;
#X connect 3 0 1 1;
#X connect 4 0 10 0;
#X connect 5 0 6 0;
#X connect 6 0 1 0;
#X connect 7 0 9 1;
#X connect 8 0 9 0;
#X connect 9 0 12 0;
#X connect 10 0 8 0;
#X connect 10 1 0 0;
#X connect 10 2 11 0;
#X connect 11 0 12 1;
#X connect 12 0 13 0;
#X connect 13 0 15 0;
#X connect 14 0 17 0;
#X connect 14 0 17 1;
#X connect 15 0 18 0;
#X connect 15 1 16 0;
#X connect 16 0 14 0;
#X connect 18 0 19 0;
#X connect 19 0 14 1;
