#N canvas 573 120 667 426 10;
#X obj 92 282 phasor~ 440;
#X obj 93 384 dac~;
#X obj 395 299 vline~;
#X obj 96 338 *~;
#X msg 394 279 1 \$1 \, 0 \$2 \$1;
#X obj 394 210 list append;
#X obj 160 150 bng 50 250 50 0 empty empty empty 17 7 0 10 -261682
-1 -1;
#X obj 393 233 list;
#X obj 409 256 print;
#X obj 455 162 random 1000;
#X obj 457 184 + 50;
#X obj 382 184 + 50;
#X obj 330 122 t b b;
#X obj 382 162 random 200;
#X obj 61 222 random 1000;
#X obj 62 247 + 50;
#X connect 0 0 3 0;
#X connect 2 0 3 1;
#X connect 3 0 1 0;
#X connect 3 0 1 1;
#X connect 4 0 2 0;
#X connect 4 0 12 0;
#X connect 5 0 7 1;
#X connect 6 0 7 0;
#X connect 6 0 14 0;
#X connect 7 0 4 0;
#X connect 7 0 8 0;
#X connect 9 0 10 0;
#X connect 10 0 5 1;
#X connect 11 0 5 0;
#X connect 12 0 13 0;
#X connect 12 1 9 0;
#X connect 13 0 11 0;
#X connect 14 0 15 0;
#X connect 15 0 0 0;
