#N canvas -1414 165 318 304 12;
#X obj 33 29 tgl 19 0 empty empty empty 0 -10 0 12 #fcfcfc #000000 #000000 0 1;
#X obj 33 61 metro;
#X obj 97 52 random;
#X floatatom 195 34 5 0 0 1 range range - 0;
#X floatatom 195 66 5 0 0 1 base\ time base - 0;
#X obj 99 79 +;
#X obj 99 19 loadbang;
#X obj 33 115 bng 19 250 50 0 empty empty empty 0 -10 0 12 #fcfcfc #000000 #000000;
#X obj 69 237 s range;
#X obj 173 237 s base;
#X msg 69 207 3000;
#X msg 173 207 500;
#X obj 106 173 loadbang;
#X connect 0 0 1 0;
#X connect 1 0 2 0;
#X connect 1 0 7 0;
#X connect 2 0 5 0;
#X connect 3 0 2 1;
#X connect 4 0 5 1;
#X connect 5 0 1 1;
#X connect 6 0 2 0;
#X connect 10 0 8 0;
#X connect 11 0 9 0;
#X connect 12 0 10 0;
#X connect 12 0 11 0;
