#N canvas 0 61 907 380 10;
#N canvas 0 23 450 300 infcount 0;
#X obj 141 164 outlet;
#X obj 118 56 inlet;
#X obj 215 60 inlet;
#X obj 162 90 metro;
#X obj 145 122 f;
#X obj 178 122 + 1;
#X connect 1 0 3 0;
#X connect 2 0 3 1;
#X connect 3 0 4 0;
#X connect 4 0 5 0;
#X connect 4 0 0 0;
#X connect 5 0 4 1;
#X restore 63 77 pd infcount;
#X obj 63 57 tgl 15 0 empty empty empty 17 7 0 10 #fcfcfc #000000 #000000
0 1;
#X msg 125 46 125;
#X obj 125 23 loadbang;
#X floatatom 63 98 12 0 0 0 - - - 0;
#X obj 98 165 cos;
#X floatatom 98 187 7 0 0 0 - - - 0;
#X obj 101 208 hsl 128 15 -1 1 0 0 empty empty empty -2 -8 0 10 #fcfcfc
#000000 #000000 0 1;
#X obj 244 164 cos;
#X floatatom 245 188 7 0 0 0 - - - 0;
#X obj 248 209 hsl 128 15 -1 1 0 0 empty empty empty -2 -8 0 10 #fcfcfc
#000000 #000000 0 1;
#X obj 387 163 cos;
#X floatatom 388 187 7 0 0 0 - - - 0;
#X obj 391 208 hsl 128 15 -1 1 0 0 empty empty empty -2 -8 0 10 #fcfcfc
#000000 #000000 0 1;
#X obj 526 163 cos;
#X floatatom 527 187 7 0 0 0 - - - 0;
#X obj 530 208 hsl 128 15 -1 1 0 0 empty empty empty -2 -8 0 10 #fcfcfc
#000000 #000000 0 1;
#N canvas 0 23 618 659 fm_pad_panner 0;
#X obj 112 308 fmsynth 1 0.1;
#X obj 170 270 vline~;
#X floatatom 107 229 5 0 0 0 - - - 0;
#X obj 107 252 mtof;
#X obj 169 228 bng 15 250 50 0 empty empty empty 17 7 0 10 #fcfcfc
#000000 #000000;
#X msg 170 249 1 1000 \, 0 3000 1000;
#X obj 109 133 metro;
#X obj 65 98 tgl 15 0 empty empty empty 17 7 0 10 #fcfcfc #000000 #000000
0 1;
#X floatatom 149 133 5 0 0 0 - - - 0;
#X obj 142 74 bng 15 250 50 0 empty empty empty 17 7 0 10 #fcfcfc #000000
#000000;
#X obj 109 154 bng 15 250 50 0 empty empty empty 17 7 0 10 #fcfcfc
#000000 #000000;
#X obj 142 113 + 4000;
#X obj 142 92 random 3000;
#X obj 107 200 aeolian 36;
#X obj 108 177 random 28;
#X obj 64 58 loadbang;
#X msg 64 79 1;
#X obj 105 379 outlet~;
#X obj 167 380 outlet~;
#X obj 113 353 pan 0.5;
#X obj 317 59 inlet;
#X obj 113 330 *~ 0.2;
#X connect 0 0 21 0;
#X connect 1 0 0 1;
#X connect 2 0 3 0;
#X connect 2 0 4 0;
#X connect 3 0 0 0;
#X connect 4 0 5 0;
#X connect 5 0 1 0;
#X connect 6 0 10 0;
#X connect 7 0 6 0;
#X connect 9 0 12 0;
#X connect 10 0 12 0;
#X connect 10 0 14 0;
#X connect 11 0 6 1;
#X connect 11 0 8 0;
#X connect 12 0 11 0;
#X connect 13 0 2 0;
#X connect 14 0 13 0;
#X connect 15 0 16 0;
#X connect 16 0 7 0;
#X connect 19 0 17 0;
#X connect 19 1 18 0;
#X connect 20 0 19 1;
#X connect 21 0 19 0;
#X restore 105 250 pd fm_pad_panner;
#X obj 260 342 dac~;
#N canvas 0 23 618 659 fm_pad_panner 0;
#X obj 112 308 fmsynth 1 0.1;
#X obj 170 270 vline~;
#X floatatom 107 229 5 0 0 0 - - - 0;
#X obj 107 252 mtof;
#X obj 169 228 bng 15 250 50 0 empty empty empty 17 7 0 10 #fcfcfc
#000000 #000000;
#X msg 170 249 1 1000 \, 0 3000 1000;
#X obj 109 133 metro;
#X obj 65 98 tgl 15 0 empty empty empty 17 7 0 10 #fcfcfc #000000 #000000
0 1;
#X floatatom 149 133 5 0 0 0 - - - 0;
#X obj 142 74 bng 15 250 50 0 empty empty empty 17 7 0 10 #fcfcfc #000000
#000000;
#X obj 109 154 bng 15 250 50 0 empty empty empty 17 7 0 10 #fcfcfc
#000000 #000000;
#X obj 142 113 + 4000;
#X obj 142 92 random 3000;
#X obj 107 200 aeolian 36;
#X obj 108 177 random 28;
#X obj 64 58 loadbang;
#X msg 64 79 1;
#X obj 105 379 outlet~;
#X obj 167 380 outlet~;
#X obj 113 353 pan 0.5;
#X obj 317 59 inlet;
#X obj 113 330 *~ 0.3;
#X connect 0 0 21 0;
#X connect 1 0 0 1;
#X connect 2 0 3 0;
#X connect 2 0 4 0;
#X connect 3 0 0 0;
#X connect 4 0 5 0;
#X connect 5 0 1 0;
#X connect 6 0 10 0;
#X connect 7 0 6 0;
#X connect 9 0 12 0;
#X connect 10 0 12 0;
#X connect 10 0 14 0;
#X connect 11 0 6 1;
#X connect 11 0 8 0;
#X connect 12 0 11 0;
#X connect 13 0 2 0;
#X connect 14 0 13 0;
#X connect 15 0 16 0;
#X connect 16 0 7 0;
#X connect 19 0 17 0;
#X connect 19 1 18 0;
#X connect 20 0 19 1;
#X connect 21 0 19 0;
#X restore 246 250 pd fm_pad_panner;
#N canvas 0 23 618 659 fm_pad_panner 0;
#X obj 112 308 fmsynth 1 0.1;
#X obj 170 270 vline~;
#X floatatom 107 229 5 0 0 0 - - - 0;
#X obj 107 252 mtof;
#X obj 169 228 bng 15 250 50 0 empty empty empty 17 7 0 10 #fcfcfc
#000000 #000000;
#X msg 170 249 1 1000 \, 0 3000 1000;
#X obj 109 133 metro;
#X obj 65 98 tgl 15 0 empty empty empty 17 7 0 10 #fcfcfc #000000 #000000
0 1;
#X floatatom 149 133 5 0 0 0 - - - 0;
#X obj 142 74 bng 15 250 50 0 empty empty empty 17 7 0 10 #fcfcfc #000000
#000000;
#X obj 109 154 bng 15 250 50 0 empty empty empty 17 7 0 10 #fcfcfc
#000000 #000000;
#X obj 142 113 + 4000;
#X obj 142 92 random 3000;
#X obj 107 200 aeolian 36;
#X obj 108 177 random 28;
#X obj 64 58 loadbang;
#X msg 64 79 1;
#X obj 105 379 outlet~;
#X obj 167 380 outlet~;
#X obj 113 353 pan 0.5;
#X obj 317 59 inlet;
#X obj 113 330 *~ 0.3;
#X connect 0 0 21 0;
#X connect 1 0 0 1;
#X connect 2 0 3 0;
#X connect 2 0 4 0;
#X connect 3 0 0 0;
#X connect 4 0 5 0;
#X connect 5 0 1 0;
#X connect 6 0 10 0;
#X connect 7 0 6 0;
#X connect 9 0 12 0;
#X connect 10 0 12 0;
#X connect 10 0 14 0;
#X connect 11 0 6 1;
#X connect 11 0 8 0;
#X connect 12 0 11 0;
#X connect 13 0 2 0;
#X connect 14 0 13 0;
#X connect 15 0 16 0;
#X connect 16 0 7 0;
#X connect 19 0 17 0;
#X connect 19 1 18 0;
#X connect 20 0 19 1;
#X connect 21 0 19 0;
#X restore 391 254 pd fm_pad_panner;
#N canvas 0 23 618 659 fm_pad_panner 0;
#X obj 112 308 fmsynth 1 0.1;
#X obj 170 270 vline~;
#X floatatom 107 229 5 0 0 0 - - - 0;
#X obj 107 252 mtof;
#X obj 169 228 bng 15 250 50 0 empty empty empty 17 7 0 10 #fcfcfc
#000000 #000000;
#X msg 170 249 1 1000 \, 0 3000 1000;
#X obj 109 133 metro;
#X obj 65 98 tgl 15 0 empty empty empty 17 7 0 10 #fcfcfc #000000 #000000
0 1;
#X floatatom 149 133 5 0 0 0 - - - 0;
#X obj 142 74 bng 15 250 50 0 empty empty empty 17 7 0 10 #fcfcfc #000000
#000000;
#X obj 109 154 bng 15 250 50 0 empty empty empty 17 7 0 10 #fcfcfc
#000000 #000000;
#X obj 142 113 + 4000;
#X obj 142 92 random 3000;
#X obj 107 200 aeolian 36;
#X obj 108 177 random 28;
#X obj 64 58 loadbang;
#X msg 64 79 1;
#X obj 105 379 outlet~;
#X obj 167 380 outlet~;
#X obj 113 353 pan 0.5;
#X obj 317 59 inlet;
#X obj 113 330 *~ 0.3;
#X connect 0 0 21 0;
#X connect 1 0 0 1;
#X connect 2 0 3 0;
#X connect 2 0 4 0;
#X connect 3 0 0 0;
#X connect 4 0 5 0;
#X connect 5 0 1 0;
#X connect 6 0 10 0;
#X connect 7 0 6 0;
#X connect 9 0 12 0;
#X connect 10 0 12 0;
#X connect 10 0 14 0;
#X connect 11 0 6 1;
#X connect 11 0 8 0;
#X connect 12 0 11 0;
#X connect 13 0 2 0;
#X connect 14 0 13 0;
#X connect 15 0 16 0;
#X connect 16 0 7 0;
#X connect 19 0 17 0;
#X connect 19 1 18 0;
#X connect 20 0 19 1;
#X connect 21 0 19 0;
#X restore 544 254 pd fm_pad_panner;
#X obj 243 145 / 33;
#X obj 386 144 / 57;
#X obj 525 144 / 49;
#X msg 62 37 1;
#X obj 97 146 / 111;
#X obj 254 31 mod 4;
#X obj 255 73 bng 15 250 50 0 empty empty empty 17 7 0 10 #fcfcfc #000000
#000000;
#X obj 254 49 select 0 1 2 3;
#X obj 280 72 bng 15 250 50 0 empty empty empty 17 7 0 10 #fcfcfc #000000
#000000;
#X obj 301 72 bng 15 250 50 0 empty empty empty 17 7 0 10 #fcfcfc #000000
#000000;
#X obj 321 71 bng 15 250 50 0 empty empty empty 17 7 0 10 #fcfcfc #000000
#000000;
#N canvas 217 120 572 551 soundfilescroller 0;
#X obj 381 298 tabread4~ field-table;
#X obj 125 42 phasor~;
#X obj 125 61 *~;
#X obj 125 82 +~;
#X obj 73 78 -~ 0.5;
#X obj 74 119 cos~;
#X obj 74 98 *~ 0.5;
#X obj 367 365 outlet~;
#X obj 429 366 outlet~;
#X obj 375 339 pan 0.5;
#X obj 330 17 inlet;
#X obj 209 24 + 1;
#X obj 251 171 hsl 128 15 0 2 0 0 empty empty empty -2 -8 0 10 #fcfcfc
#000000 #000000 0 1;
#X obj 217 83 + 200000;
#X obj 379 319 *~ 0.8;
#X obj 217 55 * 88200;
#X obj 335 129 line~;
#X obj 335 104 pack 0 200;
#X obj 183 246 bng 15 250 50 0 empty empty empty 17 7 0 10 #fcfcfc
#000000 #000000;
#X obj 183 266 random 1e+06;
#X obj 95 267 random 88200;
#X obj 95 288 + 44100;
#X obj 181 216 moses 0.001;
#X connect 0 0 14 0;
#X connect 1 0 2 0;
#X connect 2 0 3 0;
#X connect 4 0 6 0;
#X connect 6 0 5 0;
#X connect 9 0 7 0;
#X connect 9 1 8 0;
#X connect 10 0 9 1;
#X connect 10 0 11 0;
#X connect 11 0 12 0;
#X connect 11 0 4 0;
#X connect 11 0 15 0;
#X connect 12 0 22 0;
#X connect 13 0 17 0;
#X connect 14 0 9 0;
#X connect 15 0 13 0;
#X connect 16 0 0 0;
#X connect 17 0 16 0;
#X connect 18 0 19 0;
#X connect 18 0 20 0;
#X connect 19 0 13 1;
#X connect 20 0 21 0;
#X connect 21 0 15 1;
#X connect 22 0 18 0;
#X restore 32 300 pd soundfilescroller;
#X obj 31 170 cos;
#X floatatom 31 192 7 0 0 0 - - - 0;
#X obj 30 151 / 23;
#N canvas 217 120 572 551 soundfilescroller 0;
#X obj 381 298 tabread4~ field-table;
#X obj 125 42 phasor~;
#X obj 125 61 *~;
#X obj 125 82 +~;
#X obj 73 78 -~ 0.5;
#X obj 74 119 cos~;
#X obj 74 98 *~ 0.5;
#X obj 367 365 outlet~;
#X obj 429 366 outlet~;
#X obj 375 339 pan 0.5;
#X obj 330 17 inlet;
#X obj 209 24 + 1;
#X obj 251 171 hsl 128 15 0 2 0 0 empty empty empty -2 -8 0 10 #fcfcfc
#000000 #000000 0 1;
#X obj 217 83 + 200000;
#X obj 379 319 *~ 0.8;
#X obj 217 55 * 88200;
#X obj 335 129 line~;
#X obj 335 104 pack 0 200;
#X obj 183 246 bng 15 250 50 0 empty empty empty 17 7 0 10 #fcfcfc
#000000 #000000;
#X obj 183 266 random 1e+06;
#X obj 95 267 random 88200;
#X obj 95 288 + 44100;
#X obj 181 216 moses 0.001;
#X connect 0 0 14 0;
#X connect 1 0 2 0;
#X connect 2 0 3 0;
#X connect 4 0 6 0;
#X connect 6 0 5 0;
#X connect 9 0 7 0;
#X connect 9 1 8 0;
#X connect 10 0 9 1;
#X connect 10 0 11 0;
#X connect 11 0 12 0;
#X connect 11 0 4 0;
#X connect 11 0 15 0;
#X connect 12 0 22 0;
#X connect 13 0 17 0;
#X connect 14 0 9 0;
#X connect 15 0 13 0;
#X connect 16 0 0 0;
#X connect 17 0 16 0;
#X connect 18 0 19 0;
#X connect 18 0 20 0;
#X connect 19 0 13 1;
#X connect 20 0 21 0;
#X connect 21 0 15 1;
#X connect 22 0 18 0;
#X restore 286 293 pd soundfilescroller;
#N canvas 217 120 572 551 soundfilescroller 1;
#X obj 381 298 tabread4~ field-table;
#X obj 125 42 phasor~;
#X obj 125 61 *~;
#X obj 125 82 +~;
#X obj 73 78 -~ 0.5;
#X obj 74 119 cos~;
#X obj 74 98 *~ 0.5;
#X obj 367 365 outlet~;
#X obj 429 366 outlet~;
#X obj 375 339 pan 0.5;
#X obj 330 17 inlet;
#X obj 209 24 + 1;
#X obj 251 171 hsl 128 15 0 2 0 0 empty empty empty -2 -8 0 10 #fcfcfc
#000000 #000000 0 1;
#X obj 217 83 + 200000;
#X obj 379 319 *~ 0.8;
#X obj 217 55 * 88200;
#X obj 335 129 line~;
#X obj 335 104 pack 0 200;
#X obj 183 246 bng 15 250 50 0 empty empty empty 17 7 0 10 #fcfcfc
#000000 #000000;
#X obj 183 266 random 1e+06;
#X obj 95 267 random 88200;
#X obj 95 288 + 44100;
#X obj 181 216 moses 0.001;
#X connect 0 0 14 0;
#X connect 1 0 2 0;
#X connect 2 0 3 0;
#X connect 4 0 6 0;
#X connect 6 0 5 0;
#X connect 9 0 7 0;
#X connect 9 1 8 0;
#X connect 10 0 9 1;
#X connect 10 0 11 0;
#X connect 11 0 12 0;
#X connect 11 0 4 0;
#X connect 11 0 15 0;
#X connect 12 0 22 0;
#X connect 13 0 17 0;
#X connect 14 0 9 0;
#X connect 15 0 13 0;
#X connect 16 0 0 0;
#X connect 17 0 16 0;
#X connect 18 0 19 0;
#X connect 18 0 20 0;
#X connect 19 0 13 1;
#X connect 20 0 21 0;
#X connect 21 0 15 1;
#X connect 22 0 18 0;
#X restore 452 306 pd soundfilescroller;
#X obj 465 157 cos;
#X floatatom 466 181 7 0 0 0 - - - 0;
#X obj 464 138 / 19;
#X obj 532 45 loadbang;
#X obj 532 104 soundfiler;
#X msg 532 73 read -resize ../1-digital-synthesis/fieldrecording-30s.wav
field-table;
#N canvas 237 262 450 278 (subpatch) 0;
#X array field-table 1.323e+06 float 2;
#X coords 0 1 1.323e+06 -1 200 140 1 0 0;
#X restore 679 123 graph;
#X connect 0 0 4 0;
#X connect 1 0 0 0;
#X connect 2 0 0 1;
#X connect 3 0 2 0;
#X connect 3 0 25 0;
#X connect 4 0 22 0;
#X connect 4 0 23 0;
#X connect 4 0 24 0;
#X connect 4 0 26 0;
#X connect 4 0 27 0;
#X connect 4 0 36 0;
#X connect 4 0 41 0;
#X connect 5 0 6 0;
#X connect 6 0 7 0;
#X connect 7 0 17 0;
#X connect 8 0 9 0;
#X connect 9 0 10 0;
#X connect 10 0 19 0;
#X connect 10 0 37 0;
#X connect 11 0 12 0;
#X connect 12 0 13 0;
#X connect 13 0 20 0;
#X connect 14 0 15 0;
#X connect 15 0 16 0;
#X connect 16 0 21 0;
#X connect 17 0 18 0;
#X connect 17 1 18 1;
#X connect 19 0 18 0;
#X connect 19 1 18 1;
#X connect 20 0 18 0;
#X connect 20 1 18 1;
#X connect 21 0 18 0;
#X connect 21 1 18 1;
#X connect 22 0 8 0;
#X connect 23 0 11 0;
#X connect 24 0 14 0;
#X connect 25 0 1 0;
#X connect 26 0 5 0;
#X connect 27 0 29 0;
#X connect 29 0 28 0;
#X connect 29 1 30 0;
#X connect 29 2 31 0;
#X connect 29 3 32 0;
#X connect 33 0 18 0;
#X connect 33 1 18 1;
#X connect 34 0 35 0;
#X connect 35 0 33 0;
#X connect 36 0 34 0;
#X connect 37 0 18 0;
#X connect 37 1 18 1;
#X connect 38 0 18 0;
#X connect 38 1 18 1;
#X connect 39 0 40 0;
#X connect 40 0 38 0;
#X connect 41 0 39 0;
#X connect 42 0 44 0;
#X connect 44 0 43 0;
