#N canvas 545 237 537 284 12;
#X obj 16 31 tgl 50 0 empty empty empty 0 -10 0 12 #ffe3c6 #000000 #000000 0 1;
#X obj 16 125 r step_output;
#X floatatom 120 125 5 0 0 0 - - - 0;
#N canvas 150 715 450 300 steps 0;
#X obj 91 16 inlet;
#X obj 102 104 bng 19 250 50 0 empty empty empty 0 -10 0 12 #fcfcfc #000000 #000000;
#X obj 87 52 tgl 19 0 empty empty empty 0 -10 0 12 #fcfcfc #000000 #000000 0 1;
#X obj 87 77 metro 120;
#X obj 87 133 f;
#X obj 119 133 + 1;
#X floatatom 87 161 5 0 0 0 - - - 0;
#X floatatom 87 212 5 0 0 0 - - - 0;
#X obj 87 234 s step_output;
#X obj 164 20 inlet;
#X obj 87 185 % 8;
#X connect 0 0 2 0;
#X connect 2 0 3 0;
#X connect 3 0 1 0;
#X connect 3 0 4 0;
#X connect 4 0 5 0;
#X connect 4 0 6 0;
#X connect 5 0 4 1;
#X connect 6 0 10 0;
#X connect 7 0 8 0;
#X connect 9 0 3 1;
#X connect 10 0 7 0;
#X restore 16 88 pd steps;
#X obj 16 148 select 0 1 2 3 4 5 6 7;
#X text 196 244 8-step sequencer;
#N canvas 506 204 450 300 step 0;
#X obj 327 19 r randomise;
#X obj 76 11 inlet;
#X obj 105 134 bng 19 250 50 0 empty empty empty 0 -10 0 12 #fcfcfc #000000 #000000;
#X obj 136 134 tgl 19 0 empty empty empty 0 -10 0 12 #fcfcfc #000000 #000000 0 1;
#X obj 76 200 outlet;
#X obj 132 199 s play_note;
#X obj 46 70 spigot;
#X floatatom 304 112 5 0 0 0 - - - 0;
#X obj 327 45 random 2;
#X connect 0 0 8 0;
#X connect 1 0 6 0;
#X connect 3 0 6 1;
#X connect 6 0 4 0;
#X connect 6 0 5 0;
#X connect 6 0 2 0;
#X connect 8 0 3 0;
#X connect 8 0 7 0;
#X coords 0 -1 1 1 60 60 1 100 100;
#X restore 16 179 pd step;
#N canvas 109 174 450 300 bdsynth 0;
#X obj 19 5 r play_note;
#X obj 9 208 dac~;
#X obj 19 179 *~ 0.5;
#X obj 19 153 *~;
#X obj 37 128 osc~;
#X obj 19 55 vline~;
#X msg 19 29 1 1 \, 0 400 1;
#X obj 37 104 +~ 25;
#X obj 37 81 *~ 180;
#X text 12 237 bass drum synth;
#X connect 0 0 6 0;
#X connect 2 0 1 0;
#X connect 2 0 1 1;
#X connect 3 0 2 0;
#X connect 4 0 3 1;
#X connect 5 0 3 0;
#X connect 5 0 8 0;
#X connect 6 0 5 0;
#X connect 7 0 4 0;
#X connect 8 0 7 0;
#X restore 96 88 pd bdsynth;
#X obj 187 29 bng 50 250 50 0 empty empty empty 0 -10 0 12 #ffc7c6 #000000 #000000;
#X obj 187 86 s randomise;
#N canvas 506 204 450 300 step 0;
#X obj 327 19 r randomise;
#X obj 76 11 inlet;
#X obj 105 134 bng 19 250 50 0 empty empty empty 0 -10 0 12 #fcfcfc #000000 #000000;
#X obj 136 134 tgl 19 0 empty empty empty 0 -10 0 12 #fcfcfc #000000 #000000 0 1;
#X obj 76 200 outlet;
#X obj 132 199 s play_note;
#X obj 46 70 spigot;
#X floatatom 304 112 5 0 0 0 - - - 0;
#X obj 327 45 random 2;
#X connect 0 0 8 0;
#X connect 1 0 6 0;
#X connect 3 0 6 1;
#X connect 6 0 4 0;
#X connect 6 0 5 0;
#X connect 6 0 2 0;
#X connect 8 0 3 0;
#X connect 8 0 7 0;
#X coords 0 -1 1 1 60 60 1 100 100;
#X restore 79 179 pd step;
#N canvas 506 204 450 300 step 0;
#X obj 327 19 r randomise;
#X obj 76 11 inlet;
#X obj 105 134 bng 19 250 50 0 empty empty empty 0 -10 0 12 #fcfcfc #000000 #000000;
#X obj 136 134 tgl 19 0 empty empty empty 0 -10 0 12 #fcfcfc #000000 #000000 0 1;
#X obj 76 200 outlet;
#X obj 132 199 s play_note;
#X obj 46 70 spigot;
#X floatatom 304 112 5 0 0 0 - - - 0;
#X obj 327 45 random 2;
#X connect 0 0 8 0;
#X connect 1 0 6 0;
#X connect 3 0 6 1;
#X connect 6 0 4 0;
#X connect 6 0 5 0;
#X connect 6 0 2 0;
#X connect 8 0 3 0;
#X connect 8 0 7 0;
#X coords 0 -1 1 1 60 60 1 100 100;
#X restore 141 179 pd step;
#N canvas 506 204 450 300 step 0;
#X obj 327 19 r randomise;
#X obj 76 11 inlet;
#X obj 105 134 bng 19 250 50 0 empty empty empty 0 -10 0 12 #fcfcfc #000000 #000000;
#X obj 136 134 tgl 19 0 empty empty empty 0 -10 0 12 #fcfcfc #000000 #000000 0 1;
#X obj 76 200 outlet;
#X obj 132 199 s play_note;
#X obj 46 70 spigot;
#X floatatom 304 112 5 0 0 0 - - - 0;
#X obj 327 45 random 2;
#X connect 0 0 8 0;
#X connect 1 0 6 0;
#X connect 3 0 6 1;
#X connect 6 0 4 0;
#X connect 6 0 5 0;
#X connect 6 0 2 0;
#X connect 8 0 3 0;
#X connect 8 0 7 0;
#X coords 0 -1 1 1 60 60 1 100 100;
#X restore 204 179 pd step;
#N canvas 506 204 450 300 step 0;
#X obj 327 19 r randomise;
#X obj 76 11 inlet;
#X obj 105 134 bng 19 250 50 0 empty empty empty 0 -10 0 12 #fcfcfc #000000 #000000;
#X obj 136 134 tgl 19 0 empty empty empty 0 -10 0 12 #fcfcfc #000000 #000000 0 1;
#X obj 76 200 outlet;
#X obj 132 199 s play_note;
#X obj 46 70 spigot;
#X floatatom 304 112 5 0 0 0 - - - 0;
#X obj 327 45 random 2;
#X connect 0 0 8 0;
#X connect 1 0 6 0;
#X connect 3 0 6 1;
#X connect 6 0 4 0;
#X connect 6 0 5 0;
#X connect 6 0 2 0;
#X connect 8 0 3 0;
#X connect 8 0 7 0;
#X coords 0 -1 1 1 60 60 1 100 100;
#X restore 267 179 pd step;
#N canvas 506 204 450 300 step 0;
#X obj 327 19 r randomise;
#X obj 76 11 inlet;
#X obj 105 134 bng 19 250 50 0 empty empty empty 0 -10 0 12 #fcfcfc #000000 #000000;
#X obj 136 134 tgl 19 0 empty empty empty 0 -10 0 12 #fcfcfc #000000 #000000 0 1;
#X obj 76 200 outlet;
#X obj 132 199 s play_note;
#X obj 46 70 spigot;
#X floatatom 304 112 5 0 0 0 - - - 0;
#X obj 327 45 random 2;
#X connect 0 0 8 0;
#X connect 1 0 6 0;
#X connect 3 0 6 1;
#X connect 6 0 4 0;
#X connect 6 0 5 0;
#X connect 6 0 2 0;
#X connect 8 0 3 0;
#X connect 8 0 7 0;
#X coords 0 -1 1 1 60 60 1 100 100;
#X restore 330 179 pd step;
#N canvas 506 204 450 300 step 0;
#X obj 327 19 r randomise;
#X obj 76 11 inlet;
#X obj 105 134 bng 19 250 50 0 empty empty empty 0 -10 0 12 #fcfcfc #000000 #000000;
#X obj 136 134 tgl 19 0 empty empty empty 0 -10 0 12 #fcfcfc #000000 #000000 0 1;
#X obj 76 200 outlet;
#X obj 132 199 s play_note;
#X obj 46 70 spigot;
#X floatatom 304 112 5 0 0 0 - - - 0;
#X obj 327 45 random 2;
#X connect 0 0 8 0;
#X connect 1 0 6 0;
#X connect 3 0 6 1;
#X connect 6 0 4 0;
#X connect 6 0 5 0;
#X connect 6 0 2 0;
#X connect 8 0 3 0;
#X connect 8 0 7 0;
#X coords 0 -1 1 1 60 60 1 100 100;
#X restore 392 179 pd step;
#N canvas 506 204 450 300 step 0;
#X obj 327 19 r randomise;
#X obj 76 11 inlet;
#X obj 105 134 bng 19 250 50 0 empty empty empty 0 -10 0 12 #fcfcfc #000000 #000000;
#X obj 136 134 tgl 19 0 empty empty empty 0 -10 0 12 #fcfcfc #000000 #000000 0 1;
#X obj 76 200 outlet;
#X obj 132 199 s play_note;
#X obj 46 70 spigot;
#X floatatom 304 112 5 0 0 0 - - - 0;
#X obj 327 45 random 2;
#X connect 0 0 8 0;
#X connect 1 0 6 0;
#X connect 3 0 6 1;
#X connect 6 0 4 0;
#X connect 6 0 5 0;
#X connect 6 0 2 0;
#X connect 8 0 3 0;
#X connect 8 0 7 0;
#X coords 0 -1 1 1 60 60 1 100 100;
#X restore 455 179 pd step;
#X obj 360 40 r randomise;
#X obj 360 64 random 2;
#X obj 360 88 tgl 19 0 empty empty empty 0 -10 0 12 #fcfcfc #000000 #000000 0 1;
#X text 358 14 how it works...;
#X obj 360 120 spigot;
#X connect 0 0 3 0;
#X connect 1 0 4 0;
#X connect 2 0 4 0;
#X connect 4 0 6 0;
#X connect 4 1 10 0;
#X connect 4 2 11 0;
#X connect 4 3 12 0;
#X connect 4 4 13 0;
#X connect 4 5 14 0;
#X connect 4 6 15 0;
#X connect 4 7 16 0;
#X connect 8 0 9 0;
#X connect 17 0 18 0;
#X connect 18 0 19 0;
#X connect 19 0 21 1;
