#N canvas 4 26 642 448 12;
#N canvas 0 22 450 278 (subpatch) 0;
#X array array1 613668 float 2;
#X coords 0 1 613668 -1 200 140 1;
#X restore 341 29 graph;
#X obj 48 83 soundfiler;
#X obj 48 33 bng 19 250 50 0 empty empty empty 0 -10 0 12 #fcfcfc #000000 #000000;
#X obj 277 381 dac~;
#X obj 272 314 tabread4~ array1;
#X obj 272 287 line~;
#X obj 426 228 vsl 30 162 0 1 0 0 scratch_location empty scratch_location 0 -9 0 12 #c6feff #000000 #000000 0 1;
#X floatatom 159 259 15 0 0 0 array\ index\ to\ play - - 0;
#X msg 48 57 read -resize ./electronique.wav array1;
#X obj 157 198 r scratch_location;
#X obj 158 223 *;
#X msg 272 261 \$1 100;
#X connect 1 0 10 1;
#X connect 2 0 8 0;
#X connect 4 0 3 0;
#X connect 4 0 3 1;
#X connect 5 0 4 0;
#X connect 8 0 1 0;
#X connect 9 0 10 0;
#X connect 10 0 7 0;
#X connect 10 0 11 0;
#X connect 11 0 5 0;
