#N canvas -1977 159 1070 847 12;
#N canvas 0 22 450 278 (subpatch) 0;
#X array array1 599924 float 2;
#X coords 0 1 599924 -1 200 140 1;
#X restore 294 27 graph;
#X obj 48 83 soundfiler;
#X obj 48 33 bng 19 250 50 0 empty empty empty 0 -10 0 12 #fcfcfc #000000 #000000;
#X msg 48 57 read -resize ~/Desktop/491318__cvoid__wheeze.wav array1;
#X obj 118 383 dac~;
#X obj 113 316 tabread4~ array1;
#X obj 187 248 *~ 130000;
#X obj 192 214 phasor~ 0.25;
#X obj 104 280 line~;
#X obj 20 161 vsl 19 162 0 1 0 0 empty empty empty 0 -9 0 12 #fcfcfc #000000 #000000 0 1;
#X msg 104 254 \$1 100;
#X floatatom 57 324 5 0 0 0 - - - 0;
#X obj 71 198 * 20000;
#X obj 291 182 vsl 19 162 0 1 0 0 empty empty empty 0 -9 0 12 #fcfcfc #000000 #000000 0 1;
#X obj 278 366 * 100000;
#X obj 127 166 +;
#X connect 2 0 3 0;
#X connect 3 0 1 0;
#X connect 5 0 4 0;
#X connect 5 0 4 1;
#X connect 7 0 6 0;
#X connect 8 0 5 0;
#X connect 9 0 12 0;
#X connect 10 0 8 0;
#X connect 12 0 15 0;
#X connect 13 0 14 0;
#X connect 14 0 15 1;
#X connect 15 0 11 0;
#X connect 15 0 10 0;
