#N canvas 193 615 719 421 10;
#X declare .;
#X obj 349 378 dac~;
#X obj 6 36 loadbang;
#X obj 6 91 soundfiler;
#X msg 6 64 read -resize ./fieldrecording-30s.wav field-table;
#N canvas 0 22 450 278 (subpatch) 0;
#X array field-table 1.323e+06 float 2;
#X coords 0 1 1.323e+06 -1 200 140 1;
#X restore 3 178 graph;
#X obj 384 306 tabread4~ field-table;
#X obj 356 352 *~ 0.8;
#X obj 128 37 declare .;
#X obj 347 34 vsl 15 128 0 127 0 0 empty empty frequency 0 -9 0 10
-262144 -1 -1 2300 1;
#X floatatom 367 151 5 0 0 0 - - -;
#X obj 384 229 phasor~;
#X floatatom 383 208 4 0 0 0 - - -;
#X obj 384 248 *~;
#X obj 458 148 * 441;
#X obj 384 269 +~;
#X obj 332 265 -~ 0.5;
#X obj 333 306 cos~;
#X obj 333 285 *~ 0.5;
#X obj 358 332 *~;
#X obj 369 131 / 25;
#X obj 437 36 vsl 15 128 0 127 0 0 empty empty chunk_size 0 -9 0 10
-262144 -1 -1 12700 1;
#X floatatom 458 127 5 0 0 0 - - -;
#X obj 460 107 / 1;
#X obj 530 31 vsl 15 128 0 1 0 0 empty empty starting_point 0 -9 0
10 -262144 -1 -1 6200 1;
#X obj 556 103 *;
#X obj 555 125 / 44100;
#X floatatom 555 144 5 0 0 0 - - -;
#X obj 583 105 r num_samples;
#X obj 19 126 s num_samples;
#X floatatom 588 275 5 0 0 0 - - -;
#X obj 569 242 snapshot~;
#X obj 607 191 metro 10;
#X obj 616 160 tgl 15 0 empty empty empty 17 7 0 10 -262144 -1 -1 1
1;
#X connect 1 0 3 0;
#X connect 2 0 28 0;
#X connect 3 0 2 0;
#X connect 5 0 18 1;
#X connect 6 0 0 0;
#X connect 6 0 0 1;
#X connect 8 0 19 0;
#X connect 9 0 11 0;
#X connect 10 0 12 0;
#X connect 10 0 15 0;
#X connect 10 0 30 0;
#X connect 11 0 10 0;
#X connect 12 0 14 0;
#X connect 13 0 12 1;
#X connect 14 0 5 0;
#X connect 15 0 17 0;
#X connect 16 0 18 0;
#X connect 17 0 16 0;
#X connect 18 0 6 0;
#X connect 19 0 9 0;
#X connect 20 0 22 0;
#X connect 21 0 13 0;
#X connect 22 0 21 0;
#X connect 23 0 24 0;
#X connect 24 0 14 1;
#X connect 24 0 25 0;
#X connect 25 0 26 0;
#X connect 27 0 24 1;
#X connect 30 0 29 0;
#X connect 31 0 30 0;
#X connect 32 0 31 0;
