#N canvas 610 112 258 265 10;
#X obj 38 154 delwrite~ steven 500;
#X obj 77 198 delread~ steven;
#X obj 11 187 dac~;
#X obj 74 10 bng 15 250 50 0 empty empty empty 17 7 0 10 #fcfcfc #000000 #000000;
#X obj 14 54 osc~ 440;
#X obj 74 54 vline~;
#X obj 14 90 *~;
#X msg 74 31 1 10 \, 0 100 10;
#X obj 14 124 *~ 0.1;
#X floatatom 78 177 5 0 0 0 - - - 0;
#X connect 1 0 2 0;
#X connect 1 0 2 1;
#X connect 3 0 7 0;
#X connect 4 0 6 0;
#X connect 5 0 6 1;
#X connect 6 0 8 0;
#X connect 7 0 5 0;
#X connect 8 0 0 0;
#X connect 8 0 2 0;
#X connect 8 0 2 1;
#X connect 9 0 1 0;
