#N canvas 387 317 841 654 10;
#X obj 622 277 dac~;
#X obj 624 226 *~ 0.5;
#X obj 407 286 osc~;
#X obj 407 263 +~;
#X floatatom 339 231 5 0 0 0 - - -;
#X obj 422 242 *~;
#X floatatom 446 218 5 0 0 0 - - -;
#X obj 405 219 osc~;
#X floatatom 405 193 5 0 0 0 - - -;
#X obj 333 210 mtof;
#X msg 444 148 400;
#X msg 485 149 800;
#X msg 410 150 5;
#X msg 315 129 37;
#X msg 314 150 39;
#X msg 314 172 41;
#X floatatom 633 142 5 0 0 0 - - -;
#X obj 387 108 * 4;
#X obj 624 179 vcf~ 5;
#X connect 1 0 0 1;
#X connect 1 0 0 0;
#X connect 2 0 18 0;
#X connect 3 0 2 0;
#X connect 4 0 3 0;
#X connect 4 0 17 0;
#X connect 5 0 3 1;
#X connect 6 0 5 1;
#X connect 7 0 5 0;
#X connect 8 0 7 0;
#X connect 9 0 4 0;
#X connect 10 0 6 0;
#X connect 10 0 8 0;
#X connect 11 0 6 0;
#X connect 11 0 8 0;
#X connect 12 0 8 0;
#X connect 12 0 6 0;
#X connect 13 0 9 0;
#X connect 14 0 9 0;
#X connect 15 0 9 0;
#X connect 16 0 18 1;
#X connect 17 0 8 0;
#X connect 18 0 1 0;
