#N canvas 439 53 857 567 10;
#X obj 439 42 env~ 256;
#X obj 436 481 *~;
#X obj 451 421 pack f 40;
#X obj 451 451 line~;
#X text 520 421 40 ms attack/release;
#X obj 451 396 min 1;
#X obj 589 135 t b f;
#X obj 534 195 f;
#X obj 534 225 /;
#X obj 534 165 -;
#X obj 489 114 f;
#X obj 513 82 t b f f;
#X obj 534 247 +;
#X obj 687 55 loadbang;
#X obj 687 77 t b b;
#X obj 440 64 t f f;
#X text 566 225 Gain reduction;
#X obj 549 135 t f f;
#X obj 666 57 bng 15 250 50 0 empty empty empty 17 7 0 10 -262144 -1
-1;
#X obj 171 146 readsf~ 2;
#X obj 169 89 bng 15 250 50 0 empty empty empty 17 7 0 10 -262144 -1
-1;
#X msg 171 114 open ./fieldrecording-30s.wav \, 1;
#X obj 163 50 loadbang;
#X obj 424 516 dac~;
#X obj 428 18 *~ 1;
#X floatatom 532 44 5 0 0 0 level - -;
#X text 656 30 threshold and ratio:1;
#X floatatom 535 271 5 0 0 0 - - -;
#X obj 450 293 -;
#X obj 450 313 / 20;
#X obj 450 333 t b f;
#X msg 450 353 10;
#X obj 450 373 pow;
#X text 488 371 gr = 20*log10(output - input);
#X obj 489 134 moses;
#X obj 499 249 bng 15 250 50 0 empty empty empty 17 7 0 10 -262144
-1 -1;
#X msg 688 104 80;
#X floatatom 499 270 5 0 0 0 - - -;
#X msg 722 104 10;
#X text 493 514 borrowed from rjlib;
#X connect 0 0 15 0;
#X connect 0 0 25 0;
#X connect 1 0 23 1;
#X connect 1 0 23 0;
#X connect 2 0 3 0;
#X connect 3 0 1 1;
#X connect 5 0 2 0;
#X connect 6 0 7 0;
#X connect 6 1 8 1;
#X connect 7 0 8 0;
#X connect 8 0 12 0;
#X connect 9 0 7 0;
#X connect 10 0 34 0;
#X connect 11 0 10 0;
#X connect 11 1 34 1;
#X connect 11 2 17 0;
#X connect 12 0 27 0;
#X connect 12 0 28 0;
#X connect 13 0 14 0;
#X connect 14 0 36 0;
#X connect 14 1 38 0;
#X connect 15 0 10 0;
#X connect 15 1 28 1;
#X connect 17 0 9 1;
#X connect 17 1 12 1;
#X connect 18 0 14 0;
#X connect 19 0 24 0;
#X connect 19 2 20 0;
#X connect 20 0 21 0;
#X connect 21 0 19 0;
#X connect 22 0 20 0;
#X connect 24 0 0 0;
#X connect 24 0 1 0;
#X connect 28 0 29 0;
#X connect 29 0 30 0;
#X connect 30 0 31 0;
#X connect 30 1 32 1;
#X connect 31 0 32 0;
#X connect 32 0 5 0;
#X connect 34 0 28 0;
#X connect 34 1 9 0;
#X connect 34 1 35 0;
#X connect 34 1 37 0;
#X connect 36 0 11 0;
#X connect 38 0 6 0;
