#N canvas 505 98 707 613 12;
#X obj 108 216 phasor~;
#X obj 195 215 phasor~;
#X obj 195 191 *;
#X obj 107 121 mtof;
#X floatatom 236 147 5 0 0 0 - - - 0;
#X obj 236 96 loadbang;
#X obj 224 5 notein;
#X obj 108 240 -~ 0.5;
#X obj 108 264 *~ 1.5;
#X obj 195 263 *~ 1.5;
#X obj 195 239 -~ 0.5;
#X obj 128 526 dac~;
#X obj 123 471 *~ 0.1;
#X obj 325 321 vline~;
#X obj 321 381 vline~;
#X obj 403 111 t b b;
#X floatatom 127 177 5 0 0 0 - - - 0;
#X obj 136 420 *~;
#X msg 424 330 1 10 \, 0.8 1000 10;
#X obj 512 98 t b b;
#X msg 466 359 0 200;
#X msg 501 230 0 200;
#X msg 433 276 2000 500;
#X msg 236 122 1.01;
#X obj 252 296 osc~ 6;
#X obj 252 346 +~;
#X obj 252 317 *~ 100;
#N canvas 124 120 450 300 keystate 0;
#X obj 92 227 outlet;
#X obj 261 263 outlet;
#X obj 83 26 inlet;
#X obj 83 52 unpack 0 0;
#X obj 111 129 sel;
#X obj 262 137 f;
#X obj 282 186 sel 0;
#X obj 97 78 t f f;
#X obj 114 161 t b;
#X obj 270 218 t b;
#X obj 250 207 bng 15 250 50 0 empty empty empty 17 7 0 10 #fcfcfc
#000000 #000000;
#X obj 76 191 t b;
#X obj 221 69 sel 0;
#X obj 16 81 stripnote;
#X obj 14 231 outlet;
#X connect 2 0 3 0;
#X connect 2 0 13 0;
#X connect 3 0 7 0;
#X connect 3 1 5 1;
#X connect 3 1 12 0;
#X connect 4 0 8 0;
#X connect 5 0 6 0;
#X connect 6 0 9 0;
#X connect 7 0 4 1;
#X connect 7 1 4 0;
#X connect 8 0 5 0;
#X connect 9 0 10 0;
#X connect 9 0 1 0;
#X connect 11 0 0 0;
#X connect 13 0 14 0;
#X connect 13 1 11 0;
#X restore 223 54 pd keystate;
#X obj 137 380 vcf~ 6;
#X obj 224 30 pack 0 0;
#X text 288 442 2 oscillator \, vaguely Moog-like synth amplitude and
filter envelope \, modulation on the filter;
#X connect 0 0 7 0;
#X connect 1 0 10 0;
#X connect 2 0 1 0;
#X connect 3 0 2 0;
#X connect 3 0 0 0;
#X connect 3 0 16 0;
#X connect 4 0 2 1;
#X connect 5 0 23 0;
#X connect 6 0 29 0;
#X connect 6 1 29 1;
#X connect 7 0 8 0;
#X connect 8 0 28 0;
#X connect 9 0 28 0;
#X connect 10 0 9 0;
#X connect 12 0 11 0;
#X connect 12 0 11 1;
#X connect 13 0 25 1;
#X connect 14 0 17 1;
#X connect 15 0 18 0;
#X connect 15 1 22 0;
#X connect 17 0 12 0;
#X connect 18 0 14 0;
#X connect 19 0 20 0;
#X connect 19 1 21 0;
#X connect 20 0 14 0;
#X connect 21 0 13 0;
#X connect 22 0 13 0;
#X connect 23 0 4 0;
#X connect 24 0 26 0;
#X connect 25 0 28 1;
#X connect 26 0 25 0;
#X connect 27 0 3 0;
#X connect 27 1 15 0;
#X connect 27 2 19 0;
#X connect 28 1 17 0;
#X connect 29 0 27 0;
