#N canvas 543 50 821 202 12;
#X obj 47 44 osc~;
#X obj 89 44 *~;
#X obj 56 70 phasor~;
#X text 142 56 objects;
#X msg 41 151 I'm a message;
#X msg 41 125 42;
#X msg 83 125 106.5;
#X text 155 134 messages;
#X floatatom 265 47 5 0 0 0 - - - 0;
#X floatatom 277 71 9 0 0 0 - - - 0;
#X floatatom 309 46 5 0 0 0 - - - 0;
#X text 373 56 numbers;
#X obj 284 122 bng 15 250 50 0 empty empty empty 17 7 0 10 #fcfcfc
#000000 #000000;
#X text 313 120 bang (button);
#X obj 283 147 tgl 15 0 empty empty empty 17 7 0 10 #fcfcfc #000000
#000000 0 1;
#X text 311 146 toggle;
#X obj 480 44 vsl 15 128 0 127 0 0 empty empty empty 0 -9 0 10 #fcfcfc
#000000 #000000 0 1;
#X text 522 68 vslider;
#X text 515 101 (outputs 1--127 by default);
