#N canvas 100 23 1107 558 10;
#X obj 190 341 dac~;
#X obj 114 145 osc~;
#X obj 174 147 osc~;
#X floatatom 113 42 5 0 0 0 - - -;
#X obj 222 145 osc~;
#X obj 267 149 osc~;
#X obj 191 297 *~ 0.1;
#X obj 169 175 *~ 0.1;
#X obj 223 176 *~ 0.2;
#X obj 275 175 *~ 0.5;
#X obj 113 176 *~ 1;
#X obj 410 94 mtof;
#X floatatom 409 115 5 0 0 0 - - -;
#X msg 355 56 60;
#X msg 391 56 62;
#X msg 426 55 64;
#X msg 461 56 65;
#X msg 497 55 67;
#X msg 481 28 66;
#X msg 381 33 61;
#X msg 415 32 63;
#X obj 114 115 * 1;
#X obj 222 114 * 3;
#X obj 268 118 * 4;
#X obj 408 138 s freq;
#X obj 208 48 r freq;
#X obj 174 116 *;
#X floatatom 174 88 5 0 0 0 - - -;
#N canvas 165 246 450 300 addvoice 0;
#X obj 99 42 inlet;
#X obj 108 241 outlet~;
#X restore 355 226 pd addvoice;
#X connect 1 0 10 0;
#X connect 2 0 7 0;
#X connect 3 0 21 0;
#X connect 3 0 22 0;
#X connect 3 0 23 0;
#X connect 3 0 26 0;
#X connect 4 0 8 0;
#X connect 5 0 9 0;
#X connect 6 0 0 0;
#X connect 6 0 0 1;
#X connect 7 0 6 0;
#X connect 8 0 6 0;
#X connect 9 0 6 0;
#X connect 10 0 6 0;
#X connect 11 0 12 0;
#X connect 12 0 24 0;
#X connect 13 0 11 0;
#X connect 14 0 11 0;
#X connect 15 0 11 0;
#X connect 16 0 11 0;
#X connect 17 0 11 0;
#X connect 18 0 11 0;
#X connect 19 0 11 0;
#X connect 20 0 11 0;
#X connect 21 0 1 0;
#X connect 22 0 4 0;
#X connect 23 0 5 0;
#X connect 25 0 3 0;
#X connect 26 0 2 0;
#X connect 27 0 26 1;
