#N canvas 589 142 441 259 10;
#X obj 14 207 dac~;
#X obj 14 183 *~ 0.1;
#X obj 14 161 osc~;
#X obj 14 138 +~;
#X floatatom 14 57 5 0 0 0 - - - 0;
#X obj 57 110 *~;
#X floatatom 99 58 5 0 0 0 - - - 0;
#X obj 57 79 osc~;
#X floatatom 57 58 5 0 0 0 - - - 0;
#X obj 14 36 mtof;
#X obj 172 54 vsl 32 136 0 127 0 0 C empty C\ (carrier) 0 -9 0 10 #ff0400 #000000 #000000 0 1;
#X obj 253 54 vsl 32 136 0 127 0 0 M empty M\ (modulation) 0 -9 0 10 #ff8300 #000000 #000000 0 1;
#X obj 57 37 mtof;
#X obj 344 54 vsl 32 136 0 1000 0 0 D empty D\ (depth) 0 -9 0 10 #faff00 #000000 #000000 0 1;
#X obj 14 12 r C;
#X obj 57 13 r M;
#X obj 99 36 r D;
#X connect 1 0 0 0;
#X connect 1 0 0 1;
#X connect 2 0 1 0;
#X connect 3 0 2 0;
#X connect 4 0 3 0;
#X connect 5 0 3 1;
#X connect 6 0 5 1;
#X connect 7 0 5 0;
#X connect 8 0 7 0;
#X connect 9 0 4 0;
#X connect 12 0 8 0;
#X connect 14 0 9 0;
#X connect 15 0 12 0;
#X connect 16 0 6 0;
