#N canvas 700 226 327 322 12;
#X obj 32 66 bng 19 250 50 0 empty empty empty 0 -10 0 12 #fcfcfc #000000 #000000;
#X obj 17 14 tgl 19 0 empty empty empty 0 -10 0 12 #fcfcfc #000000 #000000 0 1;
#X obj 17 39 metro 120;
#X obj 17 95 f;
#X obj 49 95 + 1;
#X floatatom 17 123 5 0 0 0 - - - 0;
#X text 203 384 comment;
#X obj 17 147 % 4;
#X floatatom 17 174 5 0 0 0 - - - 0;
#X obj 17 196 s step_output;
#X obj 139 17 r step_output;
#X obj 139 49 select 0 1 2 3;
#X obj 139 81 bng 19 250 50 0 empty empty empty 0 -10 0 12 #fcfcfc #000000 #000000;
#X obj 162 81 bng 19 250 50 0 empty empty empty 0 -10 0 12 #fcfcfc #000000 #000000;
#X obj 186 80 bng 19 250 50 0 empty empty empty 0 -10 0 12 #fcfcfc #000000 #000000;
#X obj 210 80 bng 19 250 50 0 empty empty empty 0 -10 0 12 #fcfcfc #000000 #000000;
#X floatatom 244 16 5 0 0 0 - - - 0;
#X floatatom 241 79 5 0 0 0 - - - 0;
#X connect 1 0 2 0;
#X connect 2 0 0 0;
#X connect 2 0 3 0;
#X connect 3 0 4 0;
#X connect 3 0 5 0;
#X connect 4 0 3 1;
#X connect 5 0 7 0;
#X connect 7 0 8 0;
#X connect 8 0 9 0;
#X connect 10 0 11 0;
#X connect 11 0 12 0;
#X connect 11 1 13 0;
#X connect 11 2 14 0;
#X connect 11 3 15 0;
#X connect 11 4 17 0;
#X connect 16 0 11 0;
