#N canvas -2053 179 1222 625 10;
#X obj 562 532 dac~;
#X obj 6 36 loadbang;
#X obj 6 91 soundfiler;
#X msg 6 64 read -resize ./fieldrecording-30s.wav field-table;
#N canvas 0 22 450 278 (subpatch) 0;
#X array field-table 1.323e+06 float 2;
#X coords 0 1 1.323e+06 -1 200 140 1;
#X restore 314 39 graph;
#X obj 571 472 *~ 0.8;
#X obj 168 243 vsl 30 200 0 127 0 0 sf1_speed empty sf1_speed 0 -9 0 10 #ffe3c6 #000000 #000000 0 1;
#N canvas 0 22 450 278 (subpatch) 0;
#X array electronique 613668 float 2;
#X coords 0 1 613668 -1 200 140 1;
#X restore 700 50 graph;
#X obj 912 52 loadbang;
#X msg 912 73 read -resize ./electronique.wav electronique;
#X obj 912 94 soundfiler;
#X obj 692 313 phasor~ 0.5;
#X floatatom 692 287 5 0 0 0 - - - 0;
#X obj 692 264 / 127;
#X obj 700 427 tabread4~ electronique;
#X obj 1019 248 vsl 30 200 0 127 0 0 sf2_pos empty sf2_pos 0 -9 0 10 #ffc7c6 #000000 #000000 0 1;
#X obj 692 242 r sf2_speed;
#X floatatom 7 113 30 0 0 0 - - - 0;
#X floatatom 912 117 30 0 0 0 - - - 0;
#X obj 954 244 vsl 30 200 0 127 0 0 sf2_speed empty sf2_speed 0 -9 0 10 #ffc7c6 #000000 #000000 0 1;
#X obj 1084 248 vsl 30 200 0 127 0 0 sf2_len empty sf2_len 0 -9 0 10 #ffc7c6 #000000 #000000 0 1;
#X obj 692 334 *~;
#X obj 692 355 +~;
#X obj 787 289 r sf2_len;
#X obj 787 310 / 127;
#X obj 913 137 s sf2_samples;
#X obj 7 131 s sf1_samples;
#X obj 787 331 *;
#X obj 817 331 r sf2_samples;
#X obj 772 378 / 127;
#X obj 772 399 *;
#X obj 802 399 r sf2_samples;
#X obj 772 357 r sf2_pos;
#X obj 401 306 phasor~ 0.5;
#X floatatom 401 280 5 0 0 0 - - - 0;
#X obj 401 257 / 127;
#X obj 401 327 *~;
#X obj 401 348 +~;
#X obj 496 303 / 127;
#X obj 496 324 *;
#X obj 481 371 / 127;
#X obj 481 392 *;
#X obj 409 420 tabread4~ field-table;
#X obj 481 350 r sf1_pos;
#X obj 496 281 r sf1_len;
#X obj 526 323 r sf1_samples;
#X obj 511 392 r sf1_samples;
#X obj 401 235 r sf1_speed;
#X obj 228 243 vsl 30 200 0 127 0 0 sf1_pos empty sf1_pos 0 -9 0 10 #ffe3c6 #000000 #000000 0 1;
#X obj 289 243 vsl 30 200 0 127 0 0 sf1_len empty sf1_len 0 -9 0 10 #ffe3c6 #000000 #000000 0 1;
#X connect 1 0 3 0;
#X connect 2 0 17 0;
#X connect 3 0 2 0;
#X connect 5 0 0 0;
#X connect 5 0 0 1;
#X connect 8 0 9 0;
#X connect 9 0 10 0;
#X connect 10 0 18 0;
#X connect 11 0 21 0;
#X connect 12 0 11 0;
#X connect 13 0 12 0;
#X connect 14 0 5 0;
#X connect 16 0 13 0;
#X connect 17 0 26 0;
#X connect 18 0 25 0;
#X connect 21 0 22 0;
#X connect 22 0 14 0;
#X connect 23 0 24 0;
#X connect 24 0 27 0;
#X connect 27 0 21 1;
#X connect 28 0 27 1;
#X connect 29 0 30 0;
#X connect 30 0 22 1;
#X connect 31 0 30 1;
#X connect 32 0 29 0;
#X connect 33 0 36 0;
#X connect 34 0 33 0;
#X connect 35 0 34 0;
#X connect 36 0 37 0;
#X connect 37 0 42 0;
#X connect 38 0 39 0;
#X connect 39 0 36 1;
#X connect 40 0 41 0;
#X connect 41 0 37 1;
#X connect 42 0 5 0;
#X connect 43 0 40 0;
#X connect 44 0 38 0;
#X connect 45 0 39 1;
#X connect 46 0 41 1;
#X connect 47 0 35 0;
