#N canvas 442 336 584 287 12;
#X obj 16 63 tgl 19 0 empty empty empty 0 -10 0 12 #fcfcfc #000000 #000000 0 1;
#X obj 16 125 r step_output;
#X floatatom 120 125 5 0 0 0 - - - 0;
#N canvas 150 715 450 300 steps 0;
#X obj 91 16 inlet;
#X obj 102 104 bng 19 250 50 0 empty empty empty 0 -10 0 12 #fcfcfc #000000 #000000;
#X obj 87 52 tgl 19 0 empty empty empty 0 -10 0 12 #fcfcfc #000000 #000000 0 1;
#X obj 87 77 metro 120;
#X obj 87 133 f;
#X obj 119 133 + 1;
#X floatatom 87 161 5 0 0 0 - - - 0;
#X floatatom 87 212 5 0 0 0 - - - 0;
#X obj 87 234 s step_output;
#X obj 164 20 inlet;
#X obj 87 185 % 8;
#X connect 0 0 2 0;
#X connect 2 0 3 0;
#X connect 3 0 1 0;
#X connect 3 0 4 0;
#X connect 4 0 5 0;
#X connect 4 0 6 0;
#X connect 5 0 4 1;
#X connect 6 0 10 0;
#X connect 7 0 8 0;
#X connect 9 0 3 1;
#X connect 10 0 7 0;
#X restore 16 88 pd steps;
#X obj 16 204 spigot;
#X obj 16 181 bng 19 250 50 0 empty empty empty 0 -10 0 12 #fcfcfc #000000 #000000;
#X obj 44 181 tgl 19 0 empty empty empty 0 -10 0 12 #fcfcfc #000000 #000000 0 1;
#X obj 16 227 bng 19 250 50 0 play_note empty empty 0 -10 0 12 #fcfcfc #000000 #000000;
#X obj 16 150 select 0 1 2 3 4 5 6 7;
#X obj 458 24 r play_note;
#X obj 69 204 spigot;
#X obj 69 181 bng 19 250 50 0 empty empty empty 0 -10 0 12 #fcfcfc #000000 #000000;
#X obj 97 181 tgl 19 0 empty empty empty 0 -10 0 12 #fcfcfc #000000 #000000 0 1;
#X obj 69 227 bng 19 250 50 0 play_note empty empty 0 -10 0 12 #fcfcfc #000000 #000000;
#X obj 124 204 spigot;
#X obj 124 181 bng 19 250 50 0 empty empty empty 0 -10 0 12 #fcfcfc #000000 #000000;
#X obj 152 181 tgl 19 0 empty empty empty 0 -10 0 12 #fcfcfc #000000 #000000 0 1;
#X obj 124 227 bng 19 250 50 0 play_note empty empty 0 -10 0 12 #fcfcfc #000000 #000000;
#X obj 176 204 spigot;
#X obj 176 181 bng 19 250 50 0 empty empty empty 0 -10 0 12 #fcfcfc #000000 #000000;
#X obj 204 181 tgl 19 0 empty empty empty 0 -10 0 12 #fcfcfc #000000 #000000 0 1;
#X obj 176 227 bng 19 250 50 0 play_note empty empty 0 -10 0 12 #fcfcfc #000000 #000000;
#X obj 228 204 spigot;
#X obj 228 181 bng 19 250 50 0 empty empty empty 0 -10 0 12 #fcfcfc #000000 #000000;
#X obj 256 181 tgl 19 0 empty empty empty 0 -10 0 12 #fcfcfc #000000 #000000 0 1;
#X obj 228 227 bng 19 250 50 0 play_note empty empty 0 -10 0 12 #fcfcfc #000000 #000000;
#X obj 281 204 spigot;
#X obj 281 181 bng 19 250 50 0 empty empty empty 0 -10 0 12 #fcfcfc #000000 #000000;
#X obj 309 181 tgl 19 0 empty empty empty 0 -10 0 12 #fcfcfc #000000 #000000 0 1;
#X obj 281 227 bng 19 250 50 0 play_note empty empty 0 -10 0 12 #fcfcfc #000000 #000000;
#X obj 336 204 spigot;
#X obj 336 181 bng 19 250 50 0 empty empty empty 0 -10 0 12 #fcfcfc #000000 #000000;
#X obj 364 181 tgl 19 0 empty empty empty 0 -10 0 12 #fcfcfc #000000 #000000 0 1;
#X obj 336 227 bng 19 250 50 0 play_note empty empty 0 -10 0 12 #fcfcfc #000000 #000000;
#X obj 388 204 spigot;
#X obj 388 181 bng 19 250 50 0 empty empty empty 0 -10 0 12 #fcfcfc #000000 #000000;
#X obj 416 181 tgl 19 0 empty empty empty 0 -10 0 12 #fcfcfc #000000 #000000 0 1;
#X obj 388 227 bng 19 250 50 0 play_note empty empty 0 -10 0 12 #fcfcfc #000000 #000000;
#X obj 448 227 dac~;
#X obj 458 198 *~ 0.5;
#X obj 458 172 *~;
#X obj 476 147 osc~;
#X obj 458 74 vline~;
#X msg 458 48 1 1 \, 0 400 1;
#X obj 476 123 +~ 25;
#X obj 476 100 *~ 180;
#X text 152 255 8-step sequencer;
#X text 451 256 bass drum synth;
#X connect 0 0 3 0;
#X connect 1 0 8 0;
#X connect 2 0 8 0;
#X connect 4 0 7 0;
#X connect 5 0 4 0;
#X connect 6 0 4 1;
#X connect 8 0 5 0;
#X connect 8 1 11 0;
#X connect 8 2 15 0;
#X connect 8 3 19 0;
#X connect 8 4 23 0;
#X connect 8 5 27 0;
#X connect 8 6 31 0;
#X connect 8 7 35 0;
#X connect 9 0 43 0;
#X connect 10 0 13 0;
#X connect 11 0 10 0;
#X connect 12 0 10 1;
#X connect 14 0 17 0;
#X connect 15 0 14 0;
#X connect 16 0 14 1;
#X connect 18 0 21 0;
#X connect 19 0 18 0;
#X connect 20 0 18 1;
#X connect 22 0 25 0;
#X connect 23 0 22 0;
#X connect 24 0 22 1;
#X connect 26 0 29 0;
#X connect 27 0 26 0;
#X connect 28 0 26 1;
#X connect 30 0 33 0;
#X connect 31 0 30 0;
#X connect 32 0 30 1;
#X connect 34 0 37 0;
#X connect 35 0 34 0;
#X connect 36 0 34 1;
#X connect 39 0 38 0;
#X connect 39 0 38 1;
#X connect 40 0 39 0;
#X connect 41 0 40 1;
#X connect 42 0 40 0;
#X connect 42 0 45 0;
#X connect 43 0 42 0;
#X connect 44 0 41 0;
#X connect 45 0 44 0;
