#N canvas 617 138 398 258 10;
#X obj 60 181 dac~;
#X obj 204 7 vsl 15 128 0 127 0 0 empty empty empty 0 -9 0 10 #fcfcfc #000000 #000000 0 1;
#X obj 204 145 / 127;
#X floatatom 204 168 5 0 0 0 - - - 0;
#X obj 29 118 osc~;
#X obj 29 97 +~ 440;
#X obj 29 51 osc~ 7;
#X obj 29 74 *~ 3;
#X obj 110 130 +~;
#X obj 66 154 *~;
#X obj 110 84 osc~ 6;
#X obj 110 107 *~ 0.1;
#X text 108 199 modulate amplitude (tremolo);
#X text 22 10 modulate frequency (vibrato);
#X connect 1 0 2 0;
#X connect 2 0 3 0;
#X connect 2 0 8 1;
#X connect 4 0 9 0;
#X connect 5 0 4 0;
#X connect 6 0 7 0;
#X connect 7 0 5 0;
#X connect 8 0 9 1;
#X connect 9 0 0 0;
#X connect 9 0 0 1;
#X connect 10 0 11 0;
#X connect 11 0 8 0;
