#N canvas 138 25 445 234 10;
#X obj 262 175 dac~;
#X obj 264 124 *~ 0.5;
#X obj 144 181 osc~;
#X obj 144 158 +~;
#X floatatom 98 23 5 0 0 0 - - - 0;
#X obj 159 137 *~;
#X floatatom 183 113 5 0 0 0 - - - 0;
#X obj 142 114 osc~;
#X floatatom 142 88 5 0 0 0 - - - 0;
#X obj 37 175 mtof;
#X msg 181 43 400;
#X msg 222 44 800;
#X msg 147 45 5;
#X floatatom 273 40 5 0 0 0 - - - 0;
#X obj 120 45 * 4;
#X obj 264 77 vcf~ 5;
#X obj 35 32 vsl 30 136 0 127 0 0 empty empty FM\ note 0 -9 0 10 #ff8300 #000000 #000000 0 1;
#X obj 341 45 vsl 30 136 0 127 0 0 empty empty filter\ freq 0 -9 0 10 #c6ffc7 #000000 #000000 0 1;
#X obj 341 189 mtof;
#X connect 1 0 0 1;
#X connect 1 0 0 0;
#X connect 2 0 15 0;
#X connect 3 0 2 0;
#X connect 4 0 3 0;
#X connect 4 0 14 0;
#X connect 5 0 3 1;
#X connect 6 0 5 1;
#X connect 7 0 5 0;
#X connect 8 0 7 0;
#X connect 9 0 4 0;
#X connect 10 0 6 0;
#X connect 10 0 8 0;
#X connect 11 0 6 0;
#X connect 11 0 8 0;
#X connect 12 0 8 0;
#X connect 12 0 6 0;
#X connect 13 0 15 1;
#X connect 14 0 8 0;
#X connect 15 0 1 0;
#X connect 16 0 9 0;
#X connect 17 0 18 0;
#X connect 18 0 13 0;
