#N canvas 508 165 409 324 12;
#X obj 12 270 dac~;
#X obj 12 246 *~ 0.1;
#X obj 12 224 osc~;
#X obj 12 201 +~;
#X floatatom 14 57 5 0 0 0 - - - 0;
#X obj 33 157 *~;
#X floatatom 101 35 5 0 0 0 - - - 0;
#X obj 33 126 osc~;
#X floatatom 59 37 5 0 0 0 - - - 0;
#X obj 14 36 mtof;
#X obj 153 26 vsl 32 136 0 127 0 0 C empty C\ (carrier) 0 -9 0 10 #ff0400 #000000 #000000 0 1;
#X obj 230 26 vsl 32 136 0 10 0 0 H empty H\ (harmonicity) 0 -9 0 10 #ff8300 #000000 #000000 0 1;
#X obj 328 26 vsl 32 136 0 1 0 0 I empty I\ (index) 0 -9 0 10 #faff00 #000000 #000000 0 1;
#X obj 14 12 r C;
#X obj 59 12 r H;
#X obj 101 13 r I;
#X obj 31 91 *~;
#X obj 71 126 *~;
#X connect 1 0 0 0;
#X connect 1 0 0 1;
#X connect 2 0 1 0;
#X connect 3 0 2 0;
#X connect 4 0 3 0;
#X connect 4 0 16 0;
#X connect 5 0 3 1;
#X connect 6 0 17 1;
#X connect 7 0 5 0;
#X connect 8 0 16 1;
#X connect 9 0 4 0;
#X connect 13 0 9 0;
#X connect 14 0 8 0;
#X connect 15 0 6 0;
#X connect 16 0 7 0;
#X connect 16 0 17 0;
#X connect 17 0 5 1;
