#N canvas 421 386 452 260 12;
#X obj 13 219 dac~;
#X obj 13 195 *~ 0.1;
#X obj 13 140 +~;
#X floatatom 14 57 5 0 0 0 - - - 0;
#X obj 89 111 *~;
#X floatatom 137 67 5 0 0 0 - - - 0;
#X floatatom 89 59 5 0 0 0 - - - 0;
#X obj 14 36 mtof;
#X obj 205 32 vsl 32 136 0 127 0 0 C empty C\ (carrier) 0 -9 0 10 #ff0400 #000000 #000000 0 1;
#X obj 286 32 vsl 32 136 0 127 0 0 M empty M\ (modulation) 0 -9 0 10 #ff8300 #000000 #000000 0 1;
#X obj 89 38 mtof;
#X obj 377 32 vsl 32 136 0 100 0 0 I empty I\ (index) 0 -9 0 10 #faff00 #000000 #000000 0 1;
#X obj 14 12 r C;
#X obj 89 14 r M;
#X obj 136 16 r I;
#X obj 14 81 phasor~;
#X obj 136 42 / 100;
#X obj 89 80 osc~;
#X obj 13 167 cos~;
#X connect 1 0 0 0;
#X connect 1 0 0 1;
#X connect 2 0 18 0;
#X connect 3 0 15 0;
#X connect 4 0 2 1;
#X connect 5 0 4 1;
#X connect 6 0 17 0;
#X connect 7 0 3 0;
#X connect 10 0 6 0;
#X connect 12 0 7 0;
#X connect 13 0 10 0;
#X connect 14 0 16 0;
#X connect 15 0 2 0;
#X connect 16 0 5 0;
#X connect 17 0 4 0;
#X connect 18 0 1 0;
