#N canvas 730 249 246 252 12;
#X obj 43 180 dac~;
#X obj 52 71 osc~ 440;
#X obj 131 21 vsl 15 128 0 1 0 0 empty empty empty 0 -9 0 10 #fcfcfc #000000 #000000 0 1;
#X obj 52 120 *~;
#X msg 131 160 \$1 5;
#X floatatom 173 160 5 0 0 0 - - - 0;
#X obj 131 182 line~;
#X connect 1 0 3 0;
#X connect 2 0 4 0;
#X connect 2 0 5 0;
#X connect 3 0 0 0;
#X connect 3 0 0 1;
#X connect 4 0 6 0;
#X connect 6 0 3 1;
