#N canvas 103 23 807 579 10;
#X obj 143 228 print;
#X msg 20 163 message;
#X obj 86 162 bng 15 250 50 0 empty empty empty 17 7 0 10 -262144 -1
-1;
#X obj 116 161 tgl 15 0 empty empty empty 17 7 0 10 -262144 -1 -1 0
1;
#X floatatom 155 162 5 0 0 0 - - -;
#X obj 202 47 vsl 15 128 0 127 0 0 empty empty empty 0 -9 0 10 -262144
-1 -1 4800 1;
#X obj 235 164 hsl 128 15 0 127 0 0 empty empty empty -2 -8 0 10 -262144
-1 -1 7700 1;
#X floatatom 219 227 5 0 0 0 - - -;
#X obj 263 32 vradio 15 1 0 8 empty empty empty 0 -8 0 10 -262144 -1
-1 0;
#N canvas 0 322 450 300 morestuff 0;
#X obj 75 226 outlet;
#X obj 239 225 outlet;
#X obj 73 148 tgl 15 0 empty empty empty 17 7 0 10 -262144 -1 -1 0
1;
#X floatatom 112 149 5 0 0 0 - - -;
#X obj 161 35 vsl 15 128 0 127 0 0 empty empty empty 0 -9 0 10 -262144
-1 -1 2000 1;
#X connect 2 0 0 0;
#X connect 3 0 0 0;
#X connect 4 0 1 0;
#X restore 260 195 pd morestuff;
#X floatatom 329 227 5 0 0 0 - - -;
#X connect 1 0 0 0;
#X connect 2 0 0 0;
#X connect 3 0 0 0;
#X connect 4 0 0 0;
#X connect 5 0 0 0;
#X connect 5 0 7 0;
#X connect 6 0 0 0;
#X connect 6 0 7 0;
#X connect 8 0 7 0;
#X connect 8 0 0 0;
#X connect 9 0 0 0;
#X connect 9 0 7 0;
#X connect 9 1 10 0;
