#N canvas 57 53 1225 669 10;
#X obj 330 307 dac~;
#X obj 339 285 *~ 0.1;
#X obj 31 70 metro;
#X obj 5 31 tgl 15 0 empty empty empty 17 7 0 10 -262144 -1 -1 0 1
;
#X floatatom 71 70 5 0 0 0 - - -;
#X obj 64 11 bng 15 250 50 0 empty empty empty 17 7 0 10 -262144 -1
-1;
#X obj 31 91 bng 15 250 50 0 empty empty empty 17 7 0 10 -262144 -1
-1;
#X obj 149 117 osc~;
#X obj 226 117 osc~;
#X floatatom 31 226 5 0 0 0 - - -;
#X obj 298 117 osc~;
#X obj 368 116 osc~;
#X obj 226 137 *~ 0.1;
#X obj 298 136 *~ 0.2;
#X obj 31 166 random 50;
#X obj 31 185 + 36;
#X obj 31 205 mtof;
#X obj 235 259 vline~;
#X obj 339 265 *~;
#X msg 235 237 1 25 \, 0 1000 25;
#X obj 64 30 random 1500;
#X obj 64 50 + 100;
#X obj 227 29 random 100;
#X obj 227 53 / 10;
#X obj 298 26 random 100;
#X obj 298 49 / 10;
#X obj 368 26 random 100;
#X obj 368 49 / 10;
#X obj 446 116 osc~;
#X obj 446 26 random 100;
#X obj 446 49 / 10;
#X obj 535 117 osc~;
#X obj 535 138 *~ 0.5;
#X obj 534 26 random 100;
#X obj 534 49 / 10;
#X obj 5 10 loadbang;
#X obj 227 9 r trig;
#X obj 149 76 r basefreq;
#X obj 149 97 * 1;
#X obj 226 76 r basefreq;
#X obj 354 236 *~ 1;
#X obj 235 216 r trig;
#X obj 368 74 r basefreq;
#X obj 446 75 r basefreq;
#X obj 535 75 r basefreq;
#X obj 298 76 r basefreq;
#X obj 298 98 *;
#X obj 368 96 *;
#X obj 446 96 *;
#X obj 535 96 *;
#X obj 226 98 *;
#X obj 149 138 *~ 1;
#X obj 31 245 s basefreq;
#X obj 30 146 r trig;
#X obj 31 110 s trig;
#X obj 368 136 *~ 0.3;
#X obj 446 136 *~ 0.4;
#X obj 298 6 r trig;
#X obj 369 6 r trig;
#X obj 447 5 r trig;
#X obj 533 5 r trig;
#X floatatom 183 47 5 0 0 0 - - -;
#X connect 1 0 0 0;
#X connect 1 0 0 1;
#X connect 2 0 6 0;
#X connect 3 0 2 0;
#X connect 5 0 20 0;
#X connect 6 0 20 0;
#X connect 6 0 54 0;
#X connect 7 0 51 0;
#X connect 8 0 12 0;
#X connect 9 0 52 0;
#X connect 10 0 13 0;
#X connect 11 0 55 0;
#X connect 12 0 40 0;
#X connect 13 0 40 0;
#X connect 14 0 15 0;
#X connect 15 0 16 0;
#X connect 16 0 9 0;
#X connect 17 0 18 0;
#X connect 18 0 1 0;
#X connect 19 0 17 0;
#X connect 20 0 21 0;
#X connect 21 0 2 1;
#X connect 21 0 4 0;
#X connect 22 0 23 0;
#X connect 23 0 50 1;
#X connect 23 0 61 0;
#X connect 24 0 25 0;
#X connect 25 0 46 1;
#X connect 26 0 27 0;
#X connect 27 0 47 1;
#X connect 28 0 56 0;
#X connect 29 0 30 0;
#X connect 30 0 48 1;
#X connect 31 0 32 0;
#X connect 32 0 40 0;
#X connect 33 0 34 0;
#X connect 34 0 49 1;
#X connect 35 0 3 0;
#X connect 36 0 22 0;
#X connect 37 0 38 0;
#X connect 38 0 7 0;
#X connect 39 0 50 0;
#X connect 40 0 18 1;
#X connect 41 0 19 0;
#X connect 42 0 47 0;
#X connect 43 0 48 0;
#X connect 44 0 49 0;
#X connect 45 0 46 0;
#X connect 46 0 10 0;
#X connect 47 0 11 0;
#X connect 48 0 28 0;
#X connect 49 0 31 0;
#X connect 50 0 8 0;
#X connect 51 0 40 0;
#X connect 53 0 14 0;
#X connect 55 0 40 0;
#X connect 56 0 40 0;
#X connect 57 0 24 0;
#X connect 58 0 26 0;
#X connect 59 0 29 0;
#X connect 60 0 33 0;
