#N canvas 55 113 1440 660 10;
#X obj 162 47 loadbang;
#X msg 162 70 0 60 63 62 67 72 65 84 77 65 67;
#X obj 162 93 s quavs;
#X obj 162 117 table quavs 10;
#X obj 50 72 tgl 15 0 empty empty empty 17 7 0 10 -262144 -1 -1 1 1
;
#X obj 47 165 mod 10;
#X obj 47 185 tabread quavs;
#X floatatom 47 206 5 0 0 0 - - -;
#X obj 76 144 + 1;
#X obj 47 144 f;
#X obj 47 229 mtof;
#X obj 266 494 dac~;
#X obj 235 385 *~ 0.4;
#X obj 145 265 vline~;
#X obj 145 222 bng 15 250 50 0 empty empty empty 17 7 0 10 -262144
-1 -1;
#X obj 47 124 metro 125;
#X obj 288 448 rev2~ 87 85;
#X obj 26 128 bng 15 250 50 0 empty empty empty 17 7 0 10 -262144 -1
-1;
#X obj 47 287 fmsynth 10 0.1;
#X obj 421 280 fmsynth 1 0.1;
#X obj 479 242 vline~;
#X floatatom 416 201 5 0 0 0 - - -;
#X obj 416 224 mtof;
#X obj 478 200 bng 15 250 50 0 empty empty empty 17 7 0 10 -262144
-1 -1;
#X obj 622 278 fmsynth 1 0.1;
#X obj 680 240 vline~;
#X floatatom 617 199 5 0 0 0 - - -;
#X obj 617 222 mtof;
#X obj 679 198 bng 15 250 50 0 empty empty empty 17 7 0 10 -262144
-1 -1;
#X obj 817 276 fmsynth 1 0.1;
#X obj 875 238 vline~;
#X floatatom 812 197 5 0 0 0 - - -;
#X obj 812 220 mtof;
#X obj 874 196 bng 15 250 50 0 empty empty empty 17 7 0 10 -262144
-1 -1;
#X obj 1015 274 fmsynth 1 0.1;
#X obj 1090 253 vline~;
#X floatatom 1015 191 5 0 0 0 - - -;
#X obj 1015 214 mtof;
#X obj 1089 211 bng 15 250 50 0 empty empty empty 17 7 0 10 -262144
-1 -1;
#X obj 416 171 aeolian 24;
#X obj 616 171 aeolian 36;
#X obj 1018 139 random 14;
#X obj 813 147 random 14;
#X obj 616 150 random 14;
#X obj 415 150 random 14;
#X obj 44 312 *~ 0.8;
#X msg 479 221 1 1000 \, 0 3000 1000;
#X msg 679 219 1 1000 \, 0 3000 1000;
#X msg 874 219 1 1000 \, 0 3000 1000;
#X msg 1090 232 1 1000 \, 0 3000 1000;
#X obj 455 73 metro;
#X obj 429 34 tgl 15 0 empty empty empty 17 7 0 10 -262144 -1 -1 1
1;
#X floatatom 495 73 5 0 0 0 - - -;
#X obj 488 14 bng 15 250 50 0 empty empty empty 17 7 0 10 -262144 -1
-1;
#X obj 455 94 bng 15 250 50 0 empty empty empty 17 7 0 10 -262144 -1
-1;
#X obj 488 53 + 4000;
#X obj 488 32 random 3000;
#X obj 622 74 metro;
#X obj 596 35 tgl 15 0 empty empty empty 17 7 0 10 -262144 -1 -1 1
1;
#X floatatom 662 74 5 0 0 0 - - -;
#X obj 655 15 bng 15 250 50 0 empty empty empty 17 7 0 10 -262144 -1
-1;
#X obj 622 95 bng 15 250 50 0 empty empty empty 17 7 0 10 -262144 -1
-1;
#X obj 655 54 + 4000;
#X obj 655 33 random 3000;
#X obj 818 73 metro;
#X obj 792 34 tgl 15 0 empty empty empty 17 7 0 10 -262144 -1 -1 1
1;
#X floatatom 858 73 5 0 0 0 - - -;
#X obj 851 14 bng 15 250 50 0 empty empty empty 17 7 0 10 -262144 -1
-1;
#X obj 818 94 bng 15 250 50 0 empty empty empty 17 7 0 10 -262144 -1
-1;
#X obj 851 53 + 4000;
#X obj 851 32 random 3000;
#X obj 1019 69 metro;
#X obj 993 30 tgl 15 0 empty empty empty 17 7 0 10 -262144 -1 -1 1
1;
#X floatatom 1059 69 5 0 0 0 - - -;
#X obj 1052 10 bng 15 250 50 0 empty empty empty 17 7 0 10 -262144
-1 -1;
#X obj 1019 90 bng 15 250 50 0 empty empty empty 17 7 0 10 -262144
-1 -1;
#X obj 1052 49 + 4000;
#X obj 1052 28 random 3000;
#X obj 43 336 feedbackdelay 223 0.25;
#X obj 234 360 *~;
#X obj 254 218 vsl 15 128 0 1 0 0 empty empty empty 0 -9 0 10 -262144
-1 -1 1600 1;
#X obj 1018 163 aeolian 60;
#X obj 814 167 aeolian 48;
#X obj 596 413 stereovol;
#X obj 421 302 pan 0.25;
#X obj 622 300 pan 0.4;
#X obj 817 296 pan 0.6;
#X obj 1015 295 pan 0.75;
#X obj 611 458 rev2~ 80 85;
#X msg 145 244 1 15 \, 0 45 15;
#X connect 0 0 1 0;
#X connect 1 0 2 0;
#X connect 4 0 15 0;
#X connect 5 0 6 0;
#X connect 6 0 7 0;
#X connect 7 0 14 0;
#X connect 7 0 10 0;
#X connect 8 0 9 1;
#X connect 9 0 5 0;
#X connect 9 0 8 0;
#X connect 10 0 18 0;
#X connect 12 0 11 0;
#X connect 12 0 11 1;
#X connect 12 0 16 0;
#X connect 13 0 18 1;
#X connect 14 0 89 0;
#X connect 15 0 9 0;
#X connect 16 0 11 0;
#X connect 16 1 11 1;
#X connect 17 0 9 0;
#X connect 18 0 45 0;
#X connect 19 0 84 0;
#X connect 20 0 19 1;
#X connect 21 0 22 0;
#X connect 21 0 23 0;
#X connect 22 0 19 0;
#X connect 23 0 46 0;
#X connect 24 0 85 0;
#X connect 25 0 24 1;
#X connect 26 0 27 0;
#X connect 26 0 28 0;
#X connect 27 0 24 0;
#X connect 28 0 47 0;
#X connect 29 0 86 0;
#X connect 30 0 29 1;
#X connect 31 0 32 0;
#X connect 31 0 33 0;
#X connect 32 0 29 0;
#X connect 33 0 48 0;
#X connect 34 0 87 0;
#X connect 35 0 34 1;
#X connect 36 0 37 0;
#X connect 36 0 38 0;
#X connect 37 0 34 0;
#X connect 38 0 49 0;
#X connect 39 0 21 0;
#X connect 40 0 26 0;
#X connect 41 0 81 0;
#X connect 42 0 82 0;
#X connect 43 0 26 0;
#X connect 43 0 40 0;
#X connect 44 0 39 0;
#X connect 45 0 78 0;
#X connect 46 0 20 0;
#X connect 47 0 25 0;
#X connect 48 0 30 0;
#X connect 49 0 35 0;
#X connect 50 0 54 0;
#X connect 51 0 50 0;
#X connect 53 0 56 0;
#X connect 54 0 56 0;
#X connect 54 0 44 0;
#X connect 55 0 50 1;
#X connect 55 0 52 0;
#X connect 56 0 55 0;
#X connect 57 0 61 0;
#X connect 58 0 57 0;
#X connect 60 0 63 0;
#X connect 61 0 63 0;
#X connect 61 0 43 0;
#X connect 62 0 57 1;
#X connect 62 0 59 0;
#X connect 63 0 62 0;
#X connect 64 0 68 0;
#X connect 65 0 64 0;
#X connect 67 0 70 0;
#X connect 68 0 70 0;
#X connect 68 0 42 0;
#X connect 69 0 64 1;
#X connect 69 0 66 0;
#X connect 70 0 69 0;
#X connect 71 0 75 0;
#X connect 72 0 71 0;
#X connect 74 0 77 0;
#X connect 75 0 77 0;
#X connect 75 0 41 0;
#X connect 76 0 71 1;
#X connect 76 0 73 0;
#X connect 77 0 76 0;
#X connect 78 0 79 0;
#X connect 79 0 12 0;
#X connect 80 0 79 1;
#X connect 81 0 36 0;
#X connect 82 0 31 0;
#X connect 83 0 11 0;
#X connect 83 0 88 0;
#X connect 83 1 11 1;
#X connect 83 1 88 0;
#X connect 84 0 83 0;
#X connect 84 1 83 1;
#X connect 85 0 83 0;
#X connect 85 1 83 1;
#X connect 86 0 83 0;
#X connect 86 1 83 1;
#X connect 87 0 83 0;
#X connect 87 1 83 1;
#X connect 88 0 11 0;
#X connect 88 1 11 1;
#X connect 89 0 13 0;
