#N canvas 463 281 1068 364 10;
#X obj 42 192 random 100;
#X obj 42 251 bng 15 250 50 0 empty empty empty 17 7 0 10 -262144 -1
-1;
#X obj 102 251 bng 15 250 50 0 empty empty empty 17 7 0 10 -262144
-1 -1;
#X obj 353 17 tgl 15 0 empty empty empty 17 7 0 10 -262144 -1 -1 0
1;
#X floatatom 444 61 5 0 0 1 output_pitch - pitch;
#X obj 163 251 bng 15 250 50 0 empty empty empty 17 7 0 10 -262144
-1 -1;
#X obj 221 251 bng 15 250 50 0 empty empty empty 17 7 0 10 -262144
-1 -1;
#X msg 42 278 60;
#X obj 126 311 s state;
#X msg 102 278 63;
#X msg 163 278 67;
#X msg 220 278 68;
#X obj 294 191 random 100;
#X obj 294 250 bng 15 250 50 0 empty empty empty 17 7 0 10 -262144
-1 -1;
#X obj 354 250 bng 15 250 50 0 empty empty empty 17 7 0 10 -262144
-1 -1;
#X obj 415 250 bng 15 250 50 0 empty empty empty 17 7 0 10 -262144
-1 -1;
#X obj 473 250 bng 15 250 50 0 empty empty empty 17 7 0 10 -262144
-1 -1;
#X msg 294 277 60;
#X obj 378 310 s state;
#X msg 354 277 63;
#X msg 415 277 67;
#X msg 472 277 68;
#X obj 542 190 random 100;
#X obj 542 222 moses 20;
#X obj 542 249 bng 15 250 50 0 empty empty empty 17 7 0 10 -262144
-1 -1;
#X obj 602 249 bng 15 250 50 0 empty empty empty 17 7 0 10 -262144
-1 -1;
#X obj 602 222 moses 30;
#X obj 663 222 moses 45;
#X obj 663 249 bng 15 250 50 0 empty empty empty 17 7 0 10 -262144
-1 -1;
#X obj 721 249 bng 15 250 50 0 empty empty empty 17 7 0 10 -262144
-1 -1;
#X msg 542 276 60;
#X obj 626 309 s state;
#X msg 602 276 63;
#X msg 663 276 67;
#X msg 720 276 68;
#X obj 780 190 random 100;
#X obj 780 249 bng 15 250 50 0 empty empty empty 17 7 0 10 -262144
-1 -1;
#X obj 840 249 bng 15 250 50 0 empty empty empty 17 7 0 10 -262144
-1 -1;
#X obj 901 249 bng 15 250 50 0 empty empty empty 17 7 0 10 -262144
-1 -1;
#X obj 959 249 bng 15 250 50 0 empty empty empty 17 7 0 10 -262144
-1 -1;
#X msg 780 276 60;
#X obj 864 309 s state;
#X msg 840 276 63;
#X msg 901 276 67;
#X msg 958 276 68;
#X obj 405 126 sel 60 63 67 68;
#X obj 404 101 f 60;
#X obj 353 57 bng 30 250 50 0 empty empty step! 32 7 0 10 -261234 -1
-1;
#X obj 42 224 moses 5;
#X obj 102 224 moses 75;
#X obj 163 224 moses 90;
#X obj 294 223 moses 5;
#X obj 354 223 moses 30;
#X obj 415 223 moses 85;
#X obj 780 222 moses 50;
#X obj 840 222 moses 65;
#X obj 902 221 moses 70;
#X obj 424 36 r state;
#X obj 353 37 metro 500;
#N canvas 0 23 532 443 synth 0;
#X obj 87 88 r pitch;
#X obj 86 154 mtof;
#X obj 88 314 dac~;
#X obj 127 174 vline~;
#X msg 127 153 1 50 \, 0 150 50;
#X obj 86 246 *~ 0.2;
#X obj 86 200 fmsynth 1 1.995;
#X obj 87 112 t b a;
#X connect 0 0 7 0;
#X connect 1 0 6 0;
#X connect 3 0 6 1;
#X connect 4 0 3 0;
#X connect 5 0 2 0;
#X connect 5 0 2 1;
#X connect 6 0 5 0;
#X connect 7 0 4 0;
#X connect 7 1 1 0;
#X restore 907 28 pd synth;
#X obj 42 159 bng 30 250 50 0 empty empty empty 17 7 0 10 -261682 -1
-1;
#X obj 294 158 bng 30 250 50 0 empty empty empty 17 7 0 10 -262130
-1 -1;
#X obj 542 156 bng 30 250 50 0 empty empty empty 17 7 0 10 -204786
-1 -1;
#X obj 780 155 bng 30 250 50 0 empty empty empty 17 7 0 10 -204800
-1 -1;
#X connect 0 0 48 0;
#X connect 1 0 7 0;
#X connect 2 0 9 0;
#X connect 3 0 58 0;
#X connect 5 0 10 0;
#X connect 6 0 11 0;
#X connect 7 0 8 0;
#X connect 9 0 8 0;
#X connect 10 0 8 0;
#X connect 11 0 8 0;
#X connect 12 0 51 0;
#X connect 13 0 17 0;
#X connect 14 0 19 0;
#X connect 15 0 20 0;
#X connect 16 0 21 0;
#X connect 17 0 18 0;
#X connect 19 0 18 0;
#X connect 20 0 18 0;
#X connect 21 0 18 0;
#X connect 22 0 23 0;
#X connect 23 0 24 0;
#X connect 23 1 26 0;
#X connect 24 0 30 0;
#X connect 25 0 32 0;
#X connect 26 0 25 0;
#X connect 26 1 27 0;
#X connect 27 0 28 0;
#X connect 27 1 29 0;
#X connect 28 0 33 0;
#X connect 29 0 34 0;
#X connect 30 0 31 0;
#X connect 32 0 31 0;
#X connect 33 0 31 0;
#X connect 34 0 31 0;
#X connect 35 0 54 0;
#X connect 36 0 40 0;
#X connect 37 0 42 0;
#X connect 38 0 43 0;
#X connect 39 0 44 0;
#X connect 40 0 41 0;
#X connect 42 0 41 0;
#X connect 43 0 41 0;
#X connect 44 0 41 0;
#X connect 45 0 60 0;
#X connect 45 1 61 0;
#X connect 45 2 62 0;
#X connect 45 3 63 0;
#X connect 46 0 45 0;
#X connect 47 0 46 0;
#X connect 48 0 1 0;
#X connect 48 1 49 0;
#X connect 49 0 2 0;
#X connect 49 1 50 0;
#X connect 50 0 5 0;
#X connect 50 1 6 0;
#X connect 51 0 13 0;
#X connect 51 1 52 0;
#X connect 52 0 14 0;
#X connect 52 1 53 0;
#X connect 53 0 15 0;
#X connect 53 1 16 0;
#X connect 54 0 36 0;
#X connect 54 1 55 0;
#X connect 55 0 37 0;
#X connect 55 1 56 0;
#X connect 56 0 38 0;
#X connect 56 1 39 0;
#X connect 57 0 46 1;
#X connect 57 0 4 0;
#X connect 58 0 47 0;
#X connect 60 0 0 0;
#X connect 61 0 12 0;
#X connect 62 0 22 0;
#X connect 63 0 35 0;
