#N canvas -49 23 1440 681 10;
#X obj 267 23 noise~;
#X obj 314 111 *~;
#X obj 373 87 vline~;
#X obj 472 318 dac~;
#X obj 288 159 *~ 0.5;
#X obj 452 281 rev2~ 85;
#X obj 439 169 osc~;
#X obj 472 169 phasor~;
#X obj 460 195 *~ 0.3;
#X obj 47 16 loadbang;
#X obj 46 64 soundfiler;
#X msg 47 40 read -resize ./snare.wav snare-table;
#N canvas 0 22 450 278 (subpatch) 0;
#X array snare-table 6226 float 2;
#X coords 0 1 6226 -1 200 140 1;
#X restore 48 99 graph;
#X obj 512 274 tabplay~;
#X msg 498 231 set snare-table;
#X obj 618 231 bng 15 250 50 0 empty empty empty 17 7 0 10 -262144
-1 -1;
#X msg 377 45 1 5 \, 0 50 5;
#X obj 600 40 metro 500;
#X obj 586 19 tgl 15 0 empty empty empty 17 7 0 10 -262144 -1 -1 0
1;
#X obj 309 60 bp~ 3500 2;
#X obj 421 98 *~ 90;
#X obj 496 141 +~ 400;
#X obj 438 136 +~ 50;
#X connect 0 0 19 0;
#X connect 1 0 4 0;
#X connect 2 0 1 1;
#X connect 2 0 20 0;
#X connect 4 0 3 0;
#X connect 4 0 3 1;
#X connect 4 0 5 0;
#X connect 5 0 3 0;
#X connect 5 1 3 1;
#X connect 6 0 8 0;
#X connect 7 0 8 0;
#X connect 8 0 1 0;
#X connect 9 0 11 0;
#X connect 11 0 10 0;
#X connect 13 0 3 0;
#X connect 13 0 3 1;
#X connect 13 0 5 0;
#X connect 14 0 13 0;
#X connect 15 0 13 0;
#X connect 16 0 2 0;
#X connect 17 0 16 0;
#X connect 18 0 17 0;
#X connect 19 0 1 0;
#X connect 20 0 21 0;
#X connect 20 0 22 0;
#X connect 21 0 7 0;
#X connect 22 0 6 0;
