#N canvas 0 145 961 571 10;
#X obj 102 198 inlet~;
#X obj 714 112 block~ 16;
#X obj 317 224 vd~ \$0-del1;
#X obj 425 114 inlet;
#X obj 104 364 outlet~;
#X obj 317 274 *~ 0;
#X obj 422 220 clip -1 1;
#X obj 139 290 *~;
#X obj 157 261 line~;
#X msg 157 220 1;
#X obj 158 197 loadbang;
#X msg 157 241 \$1 20;
#X obj 317 250 hip~ 10;
#X text 105 173 signal in;
#X text 319 101 delay time;
#X text 515 92 LPF freq;
#X text 417 93 feedback;
#X floatatom 217 198 5 0 0 0 - - -;
#X text 213 179 input vol;
#X obj 318 194 sig~;
#X obj 318 125 inlet;
#X obj 318 358 delwrite~ \$0-del1 \$1;
#X obj 519 115 inlet;
#X obj 515 218 f \$3;
#X obj 427 148 f \$2;
#X obj 316 151 f \$1;
#X obj 508 279 f;
#X obj 553 251 moses 1;
#X obj 474 180 loadbang;
#X msg 564 282 3000;
#X obj 317 309 lop~ 3000;
#X connect 0 0 4 0;
#X connect 0 0 7 0;
#X connect 2 0 12 0;
#X connect 3 0 24 0;
#X connect 5 0 4 0;
#X connect 5 0 30 0;
#X connect 6 0 5 1;
#X connect 7 0 21 0;
#X connect 8 0 7 1;
#X connect 9 0 11 0;
#X connect 10 0 9 0;
#X connect 11 0 8 0;
#X connect 12 0 5 0;
#X connect 17 0 11 0;
#X connect 19 0 2 0;
#X connect 20 0 25 0;
#X connect 22 0 23 0;
#X connect 23 0 27 0;
#X connect 24 0 6 0;
#X connect 25 0 19 0;
#X connect 26 0 30 1;
#X connect 27 0 29 0;
#X connect 27 1 26 0;
#X connect 28 0 23 0;
#X connect 28 0 24 0;
#X connect 28 0 25 0;
#X connect 29 0 26 0;
#X connect 30 0 21 0;
