#N canvas 994 197 527 441 10;
#X obj 117 175 * 1.5708;
#X obj 117 60 inlet;
#X obj 38 62 inlet~;
#X obj 39 351 outlet~;
#X obj 130 355 outlet~;
#X obj 58 207 cos;
#X obj 147 209 sin;
#X obj 162 126 f \$1;
#X obj 130 324 *~;
#X obj 39 320 *~;
#X obj 147 293 line~;
#X obj 147 267 pack 0 10;
#X obj 58 296 line~;
#X obj 58 270 pack 0 10;
#X obj 160 103 loadbang;
#X connect 0 0 5 0;
#X connect 0 0 6 0;
#X connect 1 0 0 0;
#X connect 2 0 8 0;
#X connect 2 0 9 0;
#X connect 5 0 13 0;
#X connect 6 0 11 0;
#X connect 7 0 0 0;
#X connect 8 0 4 0;
#X connect 9 0 3 0;
#X connect 10 0 8 1;
#X connect 11 0 10 0;
#X connect 12 0 9 1;
#X connect 13 0 12 0;
#X connect 14 0 7 0;
