#N canvas 31 99 564 579 10;
#N canvas 0 23 450 300 infcount 0;
#X obj 141 164 outlet;
#X obj 118 56 inlet;
#X obj 215 60 inlet;
#X obj 162 90 metro;
#X obj 145 122 f;
#X obj 178 122 + 1;
#X connect 1 0 3 0;
#X connect 2 0 3 1;
#X connect 3 0 4 0;
#X connect 4 0 5 0;
#X connect 4 0 0 0;
#X connect 5 0 4 1;
#X restore 191 125 pd infcount;
#X obj 191 105 tgl 15 0 empty empty empty 17 7 0 10 -262144 -1 -1 0
1;
#X obj 253 71 loadbang;
#X floatatom 191 146 12 0 0 0 - - -;
#X obj 193 212 cos;
#X floatatom 193 234 7 0 0 0 - - -;
#X obj 196 255 hsl 128 15 -1 1 0 0 empty empty empty -2 -8 0 10 -262144
-1 -1 0 1;
#N canvas 596 36 618 659 fm_pad_panner 0;
#X obj 112 308 fmsynth 1 0.1;
#X obj 170 270 vline~;
#X floatatom 107 229 5 0 0 0 - - -;
#X obj 107 252 mtof;
#X obj 169 228 bng 15 250 50 0 empty empty empty 17 7 0 10 -262144
-1 -1;
#X msg 170 249 1 1000 \, 0 3000 1000;
#X obj 109 133 metro;
#X obj 65 98 tgl 15 0 empty empty empty 17 7 0 10 -262144 -1 -1 1 1
;
#X floatatom 149 133 5 0 0 0 - - -;
#X obj 142 74 bng 15 250 50 0 empty empty empty 17 7 0 10 -262144 -1
-1;
#X obj 109 154 bng 15 250 50 0 empty empty empty 17 7 0 10 -262144
-1 -1;
#X obj 142 113 + 4000;
#X obj 142 92 random 3000;
#X obj 107 200 aeolian 36;
#X obj 108 177 random 28;
#X obj 64 58 loadbang;
#X msg 64 79 1;
#X obj 105 379 outlet~;
#X obj 167 380 outlet~;
#X obj 113 353 pan 0.5;
#X obj 317 59 inlet;
#X obj 113 330 *~ 0.5;
#X obj 395 62 inlet;
#X obj 448 63 inlet;
#X obj 448 87 * 36;
#X obj 395 86 * 2000;
#X obj 356 115 + 500;
#X connect 0 0 21 0;
#X connect 1 0 0 1;
#X connect 2 0 3 0;
#X connect 2 0 4 0;
#X connect 3 0 0 0;
#X connect 4 0 5 0;
#X connect 5 0 1 0;
#X connect 6 0 10 0;
#X connect 7 0 6 0;
#X connect 9 0 12 0;
#X connect 10 0 12 0;
#X connect 10 0 14 0;
#X connect 11 0 6 1;
#X connect 11 0 8 0;
#X connect 12 0 11 0;
#X connect 13 0 2 0;
#X connect 14 0 13 0;
#X connect 15 0 16 0;
#X connect 16 0 7 0;
#X connect 19 0 17 0;
#X connect 19 1 18 0;
#X connect 20 0 19 1;
#X connect 21 0 19 0;
#X connect 22 0 25 0;
#X connect 23 0 24 0;
#X connect 24 0 14 1;
#X connect 25 0 26 0;
#X connect 26 0 12 1;
#X connect 26 0 11 1;
#X restore 324 329 pd fm_pad_panner;
#X obj 192 193 / 21;
#X obj 131 352 cos;
#X floatatom 131 374 7 0 0 0 - - -;
#X obj 134 395 hsl 128 15 -1 1 0 0 empty empty empty -2 -8 0 10 -262144
-1 -1 0 1;
#X obj 130 333 * 10;
#X obj 153 485 cos;
#X floatatom 153 507 7 0 0 0 - - -;
#X obj 156 528 hsl 128 15 -1 1 0 0 empty empty empty -2 -8 0 10 -262144
-1 -1 0 1;
#X obj 152 466 * 9;
#X msg 253 94 250;
#X obj 239 422 + 1;
#X obj 239 443 / 2;
#X obj 320 504 + 1;
#X obj 320 525 / 2;
#X obj 361 381 dac~;
#X connect 0 0 3 0;
#X connect 1 0 0 0;
#X connect 2 0 17 0;
#X connect 3 0 8 0;
#X connect 4 0 5 0;
#X connect 5 0 6 0;
#X connect 6 0 12 0;
#X connect 6 0 7 0;
#X connect 7 0 22 0;
#X connect 7 1 22 1;
#X connect 8 0 4 0;
#X connect 9 0 10 0;
#X connect 10 0 11 0;
#X connect 11 0 16 0;
#X connect 11 0 18 0;
#X connect 12 0 9 0;
#X connect 13 0 14 0;
#X connect 14 0 15 0;
#X connect 15 0 20 0;
#X connect 16 0 13 0;
#X connect 17 0 0 1;
#X connect 18 0 19 0;
#X connect 19 0 7 1;
#X connect 20 0 21 0;
#X connect 21 0 7 2;
