#N canvas -2447 -57 2164 937 12;
#X text 7 8 hi SMC.;
#X msg 116 35 devices;
#X obj 96 68 comport 2 115200;
#X obj 69 119 sel 10 13;
#X obj 62 158 t b b;
#X obj 90 254 fudiparse;
#X obj 130 159 list prepend;
#X obj 90 226 list;
#X obj 135 191 t l l;
#X listbox 89 284 20 0 0 0 - - - 0;
#X obj 56 348 vsl 50 100 0 1 0 0 x empty empty 0 -9 0 12 #ff0400 #000000 #000000 0 1;
#X obj 88 310 unpack f f f;
#X obj 119 348 vsl 50 100 0 1 0 0 y empty empty 0 -9 0 12 #ff8300 #000000 #000000 0 1;
#X obj 180 348 vsl 50 100 0 1 0 0 z empty empty 0 -9 0 12 #faff00 #000000 #000000 0 1;
#X obj 339 193 fmsynth;
#X obj 350 309 dac~;
#X obj 439 30 vsl 19 162 0 1 0 0 empty empty empty 0 -9 0 12 #fcfcfc #000000 #000000 0 1;
#X floatatom 438 201 5 0 0 0 - - - 0;
#X obj 275 51 r x;
#X obj 321 51 r y;
#X obj 372 49 r z;
#X obj 267 144 lop~ 3;
#X obj 321 144 lop~ 3;
#X obj 375 143 lop~ 3;
#X obj 265 96 * 1000;
#X floatatom 265 119 5 0 0 0 - - - 0;
#X floatatom 321 111 5 0 0 0 - - - 0;
#X obj 385 86 * 10;
#X floatatom 385 109 5 0 0 0 - - - 0;
#X obj 321 88 * 3;
#X obj 309 260 rev2~ 100 80 3000 20;
#X obj 550 49 r x;
#X obj 596 49 r y;
#X obj 647 47 r z;
#X floatatom 557 166 5 0 0 0 - - - 0;
#X obj 557 127 expr sqrt(pow(0.5-$f1 \, 2) + pow(0.5-$f2 \, 2) + pow(0.5-$f3 \, 2));
#X obj 559 196 - 0.26;
#X obj 438 221 lop~ 3;
#X floatatom 560 243 12 0 0 0 - - - 0;
#X obj 559 220 abs;
#X obj 476 311 vline~;
#X obj 536 334 bng 19 250 50 0 empty empty empty 0 -10 0 12 #fcfcfc #000000 #000000;
#X obj 560 288 sel 1;
#X obj 560 265 > 0.03;
#X msg 535 359 0 10 \, 0.2 5000 2000;
#X connect 1 0 2 0;
#X connect 2 0 3 0;
#X connect 3 0 4 0;
#X connect 3 1 4 0;
#X connect 3 2 6 0;
#X connect 4 0 7 0;
#X connect 4 1 6 1;
#X connect 5 0 9 0;
#X connect 6 0 8 0;
#X connect 7 0 5 0;
#X connect 8 0 7 1;
#X connect 8 1 6 1;
#X connect 9 0 11 0;
#X connect 11 0 10 0;
#X connect 11 1 12 0;
#X connect 11 2 13 0;
#X connect 14 0 30 0;
#X connect 16 0 17 0;
#X connect 17 0 37 0;
#X connect 18 0 24 0;
#X connect 19 0 29 0;
#X connect 20 0 27 0;
#X connect 21 0 14 0;
#X connect 22 0 14 1;
#X connect 23 0 14 2;
#X connect 24 0 25 0;
#X connect 25 0 21 0;
#X connect 26 0 22 0;
#X connect 27 0 28 0;
#X connect 28 0 23 0;
#X connect 29 0 26 0;
#X connect 30 0 15 0;
#X connect 30 1 15 1;
#X connect 31 0 35 0;
#X connect 32 0 35 1;
#X connect 33 0 35 2;
#X connect 34 0 36 0;
#X connect 35 0 34 0;
#X connect 36 0 39 0;
#X connect 38 0 43 0;
#X connect 38 0 16 0;
#X connect 39 0 38 0;
#X connect 40 0 14 3;
#X connect 41 0 44 0;
#X connect 42 0 41 0;
#X connect 43 0 42 0;
#X connect 44 0 40 0;
