#N canvas -2252 109 733 491 12;
#X obj 101 161 sel 10 13;
#X obj 163 224 list prepend;
#X obj 163 248 t l l;
#X obj 101 194 t b b;
#X obj 101 218 list;
#X obj 101 281 fudiparse;
#X listbox 101 309 20 0 0 0 - - - 0;
#X obj 101 332 unpack f f f;
#X obj 101 365 vsl 50 100 0 1 0 1 empty empty 0 -9 0 0 4 #ff0400 #000000 #000001 5158 0;
#X obj 168 365 vsl 50 100 0 1 0 1 empty empty 0 -9 0 0 4 #ff8300 #000000 #000001 5138 0;
#X obj 233 366 vsl 50 100 0 1 0 1 empty empty 0 -9 0 0 4 #faff00 #000000 #000001 2089 0;
#X msg 155 67 devices;
#X obj 99 110 comport 2 115200;
#X floatatom 327 307 5 0 0 0 - - - 0;
#X obj 325 276 expr sqrt(pow($f1-0.5 \, 2) + pow($f2-0.5 \, 2) + pow($f3-0.5 \, 2));
#X connect 0 0 3 0;
#X connect 0 1 3 0;
#X connect 0 2 1 0;
#X connect 1 0 2 0;
#X connect 2 0 4 1;
#X connect 2 1 1 1;
#X connect 3 0 4 0;
#X connect 3 1 1 1;
#X connect 4 0 5 0;
#X connect 5 0 6 0;
#X connect 6 0 7 0;
#X connect 7 0 8 0;
#X connect 7 0 14 0;
#X connect 7 1 9 0;
#X connect 7 1 14 1;
#X connect 7 2 10 0;
#X connect 7 2 14 2;
#X connect 11 0 12 0;
#X connect 12 0 0 0;
#X connect 14 0 13 0;
