#N canvas 418 165 376 564 12;
#N canvas 196 234 450 300 basic-counter 1;
#X obj 46 16 inlet;
#X obj 51 200 outlet;
#X obj 49 92 f;
#X obj 79 92 + 1;
#X connect 0 0 2 0;
#X connect 2 0 1 0;
#X connect 2 0 3 0;
#X connect 3 0 2 1;
#X restore 17 58 pd basic-counter;
#X obj 17 8 bng 40 250 50 0 empty empty empty 0 -10 0 12 #ffc7c6 #000000 #000000;
#X floatatom 17 83 5 0 0 0 - - - 0;
#N canvas 589 203 692 463 advanced-counter 0;
#X obj 46 16 inlet;
#X obj 51 200 outlet;
#X obj 49 92 f;
#X obj 79 92 + 1;
#X floatatom 155 58 5 0 0 1 last\ number - - 0;
#X floatatom 155 81 5 0 0 1 next\ number - - 0;
#X connect 0 0 2 0;
#X connect 2 0 1 0;
#X connect 2 0 3 0;
#X connect 2 0 4 0;
#X connect 3 0 2 1;
#X connect 3 0 5 0;
#X coords 0 -1 1 1 130 85 1 150 20;
#X restore 17 154 pd advanced-counter;
#X obj 17 109 bng 40 250 50 0 empty empty empty 0 -10 0 12 #ffc7c6 #000000 #000000;
#X floatatom 17 246 5 0 0 0 - - - 0;
#X connect 0 0 2 0;
#X connect 1 0 0 0;
#X connect 3 0 5 0;
#X connect 4 0 3 0;
