#N canvas 604 51 450 300 12;
#X obj 50 151 oscparse;
#X obj 43 109 netreceive -u -b;
#X obj 48 225 route pad;
#X obj 45 253 unpack f f;
#X msg 41 63 listen 3000;
#X obj 207 38 vsl 19 162 0 127 0 0 empty empty empty 0 -9 0 12 #fcfcfc #000000 #000000 0 1;
#X obj 235 214 hsl 162 19 0 127 0 0 empty empty empty -2 -10 0 12 #fcfcfc #000000 #000000 0 1;
#X obj 126 212 print;
#X obj 50 190 list trim;
#X obj 40 23 loadbang;
#X connect 0 0 8 0;
#X connect 1 0 0 0;
#X connect 2 0 3 0;
#X connect 3 0 6 0;
#X connect 3 1 5 0;
#X connect 4 0 1 0;
#X connect 8 0 2 0;
#X connect 8 0 7 0;
#X connect 9 0 4 0;
