#N canvas 66 95 683 577 12;
#X obj 268 42 vu 30 200 master_snd empty -1 -10 0 12 #404040 #000000 1 0;
#X obj 111 129 osc~ 440;
#X obj 111 153 *~;
#X obj 194 42 vsl 19 162 0 2 0 0 empty empty empty 0 -9 0 12 #fcfcfc #000000 #000000 0 1;
#X obj 111 177 env~;
#X obj 111 201 - 100;
#X floatatom 111 225 5 0 0 0 master_snd - master_snd 0;
#X floatatom 194 213 5 0 0 0 - - - 0;
#X floatatom 43 42 5 0 0 0 - - - 0;
#X obj 43 65 dbtorms;
#X floatatom 43 89 5 0 0 0 - - - 0;
#X connect 1 0 2 0;
#X connect 2 0 4 0;
#X connect 3 0 2 1;
#X connect 3 0 7 0;
#X connect 4 0 5 0;
#X connect 5 0 6 0;
#X connect 8 0 9 0;
#X connect 9 0 10 0;
#X connect 10 0 3 0;
