#N canvas 331 163 1141 649 12;
#X obj 507 41 adc~;
#X obj 411 100 fiddle~;
#X obj 383 374 line~;
#X msg 383 349 \$1 50;
#X obj 848 230 vsl 19 162 0 1 0 0 vol empty empty 0 -9 0 12 #fcfcfc #000000 #000000 0 1;
#X obj 332 472 dac~;
#X floatatom 345 116 5 0 0 0 - - - 0;
#X obj 384 325 r vol;
#X obj 490 374 line~;
#X msg 490 349 \$1 50;
#X obj 491 325 r vol;
#X obj 602 373 line~;
#X msg 602 348 \$1 50;
#X obj 603 324 r vol;
#X obj 710 371 line~;
#X msg 710 346 \$1 50;
#X obj 711 322 r vol;
#X obj 378 191 f;
#X obj 413 194 + 1;
#X obj 378 214 % 4;
#X floatatom 378 238 5 0 0 0 - - - 0;
#X obj 394 264 pack f f;
#X obj 404 144 t b f;
#X obj 518 267 route 0 1 2 3;
#X obj 656 396 fmsynth 0.2 1;
#X obj 548 398 fmsynth 0.2 1;
#X obj 436 399 fmsynth 0.2 1;
#X obj 329 399 fmsynth 0.2 1;
#X connect 0 0 1 0;
#X connect 1 0 6 0;
#X connect 1 0 22 0;
#X connect 2 0 27 1;
#X connect 3 0 2 0;
#X connect 7 0 3 0;
#X connect 8 0 26 1;
#X connect 9 0 8 0;
#X connect 10 0 9 0;
#X connect 11 0 25 1;
#X connect 12 0 11 0;
#X connect 13 0 12 0;
#X connect 14 0 24 1;
#X connect 15 0 14 0;
#X connect 16 0 15 0;
#X connect 17 0 18 0;
#X connect 17 0 19 0;
#X connect 18 0 17 1;
#X connect 19 0 20 0;
#X connect 20 0 21 0;
#X connect 21 0 23 0;
#X connect 22 0 17 0;
#X connect 22 1 21 1;
#X connect 23 0 27 0;
#X connect 23 1 26 0;
#X connect 23 2 25 0;
#X connect 23 3 24 0;
#X connect 24 0 5 0;
#X connect 24 0 5 1;
#X connect 25 0 5 0;
#X connect 25 0 5 1;
#X connect 26 0 5 0;
#X connect 26 0 5 1;
#X connect 27 0 5 0;
#X connect 27 0 5 1;
