#N canvas 135 435 627 634 12;
#X obj 16 30 key;
#X floatatom 16 54 5 0 0 0 - - - 0;
#X floatatom 66 54 5 0 0 0 - - - 0;
#X obj 66 30 keyup;
#X floatatom 117 54 5 0 0 0 - - - 0;
#X obj 117 30 keyname;
#X symbolatom 163 54 10 0 0 0 - - - 0;
#X text 13 7 Get data from keyboard...;
#X obj 130 164 t f b;
#X msg 162 189 0;
#X listbox 128 270 20 0 0 0 - - - 0;
#X obj 129 239 pack f f;
#X obj 162 212 tabread yaxis;
#X obj 130 139 r xaxis;
#N canvas 0 50 450 250 (subpatch) 0;
#X array yaxis 1 float 3;
#A 0 41.5;
#X coords 0 0 1 100 105 100 1 0 0;
#X restore 14 132 graph;
#X obj 17 132 hsl 100 100 0 99 0 0 xaxis empty empty -2 -8 0 10 #fcfcfc #000000 #000000 0 0;
#X text 16 94 Mouse hacks: overlaying hslider and array;
#X connect 0 0 1 0;
#X connect 3 0 2 0;
#X connect 5 0 4 0;
#X connect 5 1 6 0;
#X connect 8 0 11 0;
#X connect 8 1 9 0;
#X connect 9 0 12 0;
#X connect 11 0 10 0;
#X connect 12 0 11 1;
#X connect 13 0 8 0;
