#N canvas -1222 246 929 552 12;
#X obj 136 444 dac~;
#X obj 143 415 *~;
#X obj 44 244 vsl 19 162 0 1 0 0 empty empty output\ volume 0 -9 0 12 #fcfcfc #000000 #000000 0 1;
#X obj 44 413 pack 0 10;
#X obj 44 437 line~;
#N canvas -2179 314 670 394 operators 0;
#X obj 313 341 outlet~;
#X obj 139 119 r pit;
#X obj 183 119 r vel;
#X obj 162 150 phmodop~;
#X obj 141 206 r pit;
#X obj 185 206 r vel;
#X obj 164 237 phmodop~;
#X obj 278 119 r pit;
#X obj 322 119 r vel;
#X obj 301 150 phmodop~;
#X obj 280 206 r pit;
#X obj 324 206 r vel;
#X obj 303 237 phmodop~;
#X obj 414 120 r pit;
#X obj 458 120 r vel;
#X obj 437 151 phmodop~;
#X obj 416 207 r pit;
#X obj 460 207 r vel;
#X obj 439 238 phmodop~;
#X obj 16 14 r freqparams;
#X obj 16 38 route op1 op2 op3 op4 op5 op6;
#X obj 354 36 route op1 op2 op3 op4 op5 op6;
#X obj 354 12 r envparams;
#X obj 549 126 r fbamount;
#X obj 520 183 throw~ fbloop;
#X obj 517 101 catch~ fbloop;
#X obj 516 123 *~;
#X msg 273 38 0;
#X obj 272 12 loadbang;
#X obj 272 62 sig~;
#X floatatom 548 153 5 0 0 0 - - - 0;
#X obj 310 293 *~ 0.1;
#X connect 1 0 3 0;
#X connect 2 0 3 3;
#X connect 3 0 6 1;
#X connect 4 0 6 0;
#X connect 5 0 6 3;
#X connect 6 0 31 0;
#X connect 7 0 9 0;
#X connect 8 0 9 3;
#X connect 9 0 12 1;
#X connect 10 0 12 0;
#X connect 11 0 12 3;
#X connect 12 0 31 0;
#X connect 13 0 15 0;
#X connect 14 0 15 3;
#X connect 15 0 18 1;
#X connect 15 0 24 0;
#X connect 16 0 18 0;
#X connect 17 0 18 3;
#X connect 18 0 31 0;
#X connect 19 0 20 0;
#X connect 20 0 6 2;
#X connect 20 1 3 2;
#X connect 20 2 12 2;
#X connect 20 3 9 2;
#X connect 20 4 18 2;
#X connect 20 5 15 2;
#X connect 21 0 6 4;
#X connect 21 1 3 4;
#X connect 21 2 12 4;
#X connect 21 3 9 4;
#X connect 21 4 18 4;
#X connect 21 5 15 4;
#X connect 22 0 21 0;
#X connect 23 0 26 1;
#X connect 23 0 30 0;
#X connect 25 0 26 0;
#X connect 26 0 15 1;
#X connect 27 0 29 0;
#X connect 28 0 27 0;
#X connect 29 0 3 1;
#X connect 29 0 9 1;
#X connect 31 0 0 0;
#X restore 130 331 pd operators;
#N canvas 0 25 450 300 seq 0;
#X obj 26 13 inlet;
#X obj 36 265 s notes;
#X obj 34 210 makenote;
#X obj 322 62 vsl 19 162 0 127 0 1 empty empty velocity 0 -9 0 12 #fcfcfc #000000 #000000 14300 1;
#X obj 390 63 vsl 19 162 0 0.99 0 1 empty empty duration 0 -9 0 12 #fcfcfc #000000 #000000 4200 1;
#X floatatom 322 232 5 0 0 0 - - - 0;
#X floatatom 390 233 5 0 0 0 - - - 0;
#X msg 113 51 180;
#X floatatom 114 104 5 0 0 0 - - - 0;
#X obj 31 64 metro;
#X obj 113 153 *;
#X obj 264 62 vsl 19 162 30 200 0 1 empty empty tempo 0 -9 0 12 #fcfcfc #000000 #000000 5400 1;
#X floatatom 264 232 5 0 0 0 - - - 0;
#X obj 114 80 expr 60000/(4 * $f1);
#X obj 34 238 pack 0 0;
#X obj 41 90 bng 19 250 50 0 empty empty empty 0 -10 0 12 #fcfcfc #000000 #000000;
#X floatatom 107 181 5 0 0 0 - - - 0;
#X obj 114 129 f;
#N canvas -1946 463 450 300 notes 0;
#X obj 70 53 inlet;
#X obj 71 249 outlet;
#X obj 176 83 loadbang;
#X msg 176 106 0 60 63 62 67 72 65 84 77 65 67;
#X obj 176 129 s quavs;
#X obj 176 153 table quavs 10;
#X obj 60 130 mod 10;
#X obj 60 150 tabread quavs;
#X floatatom 60 171 5 0 0 0 - - - 0;
#X obj 89 109 + 1;
#X obj 60 109 f;
#X obj 62 219 - 12;
#X connect 0 0 10 0;
#X connect 2 0 3 0;
#X connect 3 0 4 0;
#X connect 6 0 7 0;
#X connect 7 0 8 0;
#X connect 8 0 11 0;
#X connect 9 0 10 1;
#X connect 10 0 6 0;
#X connect 10 0 9 0;
#X connect 11 0 1 0;
#X restore 37 145 pd notes;
#X connect 0 0 9 0;
#X connect 2 0 14 0;
#X connect 2 1 14 1;
#X connect 3 0 2 1;
#X connect 3 0 5 0;
#X connect 4 0 6 0;
#X connect 6 0 10 1;
#X connect 7 0 13 0;
#X connect 8 0 9 1;
#X connect 8 0 17 1;
#X connect 9 0 15 0;
#X connect 9 0 18 0;
#X connect 10 0 16 0;
#X connect 11 0 12 0;
#X connect 12 0 13 0;
#X connect 13 0 8 0;
#X connect 14 0 1 0;
#X connect 15 0 17 0;
#X connect 16 0 2 2;
#X connect 17 0 10 0;
#X connect 18 0 2 0;
#X restore 145 35 pd seq;
#X obj 145 9 tgl 19 0 empty empty empty 0 -10 0 12 #fcfcfc #000000 #000000 0 1;
#X obj 8 6 notein;
#X obj 8 31 pack 0 0;
#X obj 73 4 r notes;
#X obj 8 130 s pit;
#X obj 233 152 s freqparams;
#X obj 500 346 s envparams;
#X obj 639 346 s fbamount;
#X obj 648 117 vsl 19 162 0 1 0 0 empty empty feedback 0 -9 0 12 #fcfcfc #000000 #000000 0 1;
#X obj 648 286 pack 0 10;
#X obj 648 310 line;
#X floatatom 7 84 5 0 0 0 - - - 0;
#X obj 7 107 mtof;
#X obj 9 57 unpack 0 0;
#X obj 69 103 s vel;
#X obj 229 35 loadbang;
#X msg 254 116 op1 1 \, op2 2 \, op3 2 \, op4 6 \, op5 3 \, op6 9;
#X msg 228 71 op1 1.07 \, op2 3.57 \, op3 1.02 \, op4 3.55 \, op5 1.03 \, op6 1.07;
#X msg 304 391 op1 1 3 1 1 1500 \, op2 1 200 1 1 750 \, op3 1 150 1 1200 \, op4 1 3 1 1 500 \, op5 1 3 1500 0.8 1500 \, op6 1 500 750 0.8 750;
#X msg 357 252 op2 2.5 800 200 0.7 500;
#X msg 361 277 op4 5 100 200 0.7 500;
#X msg 359 302 op6 1 1200 200 0.5 500;
#X obj 328 228 loadbang;
#X floatatom 44 461 5 0 0 0 - - - 0;
#X floatatom 676 263 5 0 0 0 - - - 0;
#X obj 139 369 *~ 0.3;
#X connect 1 0 0 0;
#X connect 1 0 0 1;
#X connect 2 0 3 0;
#X connect 2 0 30 0;
#X connect 3 0 4 0;
#X connect 4 0 1 1;
#X connect 5 0 32 0;
#X connect 7 0 6 0;
#X connect 8 0 9 0;
#X connect 8 1 9 1;
#X connect 9 0 20 0;
#X connect 10 0 20 0;
#X connect 15 0 16 0;
#X connect 15 0 31 0;
#X connect 16 0 17 0;
#X connect 17 0 14 0;
#X connect 18 0 19 0;
#X connect 19 0 11 0;
#X connect 20 0 18 0;
#X connect 20 1 21 0;
#X connect 22 0 24 0;
#X connect 23 0 12 0;
#X connect 24 0 12 0;
#X connect 25 0 13 0;
#X connect 26 0 13 0;
#X connect 27 0 13 0;
#X connect 28 0 13 0;
#X connect 29 0 26 0;
#X connect 29 0 27 0;
#X connect 29 0 28 0;
#X connect 32 0 1 0;
