#N canvas -1803 34 450 300 12;
#X obj 150 219 dac~;
#X obj 43 160 *~;
#X obj 304 22 vsl 19 162 0 1 0 0 empty empty empty 0 -9 0 12 #fcfcfc #000000 #000000 0 1;
#X msg 184 72 1;
#X msg 41 74 220;
#X floatatom 329 168 5 0 0 0 - - - 0;
#X obj 312 214 pack 0 10;
#X obj 311 248 line~;
#X obj 24 190 throw~ opout;
#X obj 84 72 catch~ opout;
#X obj 97 31 loadbang;
#X obj 93 125 phmodop-simple~;
#X obj 150 176 *~ 0.05;
#X connect 1 0 8 0;
#X connect 2 0 5 0;
#X connect 2 0 6 0;
#X connect 3 0 11 2;
#X connect 4 0 11 0;
#X connect 6 0 7 0;
#X connect 7 0 1 1;
#X connect 9 0 11 1;
#X connect 10 0 4 0;
#X connect 10 0 3 0;
#X connect 11 0 1 0;
#X connect 11 0 12 0;
#X connect 12 0 0 0;
#X connect 12 0 0 1;
