#N canvas -1736 153 209 300 10;
#X obj 10 216 outlet~;
#X obj 10 175 osc~;
#X obj 10 152 +~;
#X obj 25 131 *~;
#X obj 25 109 osc~;
#X obj 10 196 *~;
#X obj 124 162 inlet~;
#X obj 23 34 *~ \$1;
#X obj 61 110 *~ \$2;
#X obj 10 9 inlet~;
#X text 8 254 1st arg is the harmonicity ratio;
#X text 8 270 2nd arg is the modulation index;
#X text 9 238 a simple fmsynth, f 37;
#X connect 1 0 5 0;
#X connect 2 0 1 0;
#X connect 3 0 2 1;
#X connect 4 0 3 0;
#X connect 5 0 0 0;
#X connect 6 0 5 1;
#X connect 7 0 4 0;
#X connect 7 0 8 0;
#X connect 8 0 3 1;
#X connect 9 0 7 0;
#X connect 9 0 2 0;
