#N canvas -1640 396 397 291 12;
#X obj 39 150 phasor~;
#X obj 39 95 inlet~;
#X obj 99 96 inlet~;
#X obj 39 174 +~;
#X obj 39 198 cos~;
#X obj 39 246 outlet~;
#X text 37 18 inlets:;
#X obj 164 119 sig~;
#X obj 39 122 *~;
#X obj 164 95 inlet;
#X text 35 41 frequency \, phase \, freq-scale \, velocity \, env-params;
#X text 38 59 env-params format is: peak-level A D S R;
#X connect 0 0 3 0;
#X connect 1 0 8 0;
#X connect 2 0 3 1;
#X connect 3 0 4 0;
#X connect 4 0 5 0;
#X connect 7 0 8 1;
#X connect 8 0 0 0;
#X connect 9 0 7 0;
