#N canvas 156 388 397 291 12;
#X obj 39 150 phasor~;
#X obj 39 95 inlet~;
#X obj 99 96 inlet~;
#X obj 39 174 +~;
#X obj 39 198 cos~;
#X obj 39 222 *~;
#X obj 39 246 outlet~;
#X text 37 18 inlets:;
#X obj 164 119 sig~;
#X obj 39 122 *~;
#N canvas 345 120 515 487 adsr 0;
#X obj 180 429 outlet~;
#X obj 181 403 vline~;
#X obj 31 13 inlet;
#X obj 308 35 inlet;
#X obj 307 61 unpack 0 0 0 0 0;
#X text 190 7 format: level \, A \, D \, S \, R (S is 0-1);
#X obj 60 159 bng 19 250 50 0 empty empty empty 0 -10 0 12 #fcfcfc #000000 #000000;
#X text 77 314 attack;
#X obj 233 159 delay;
#X obj 34 49 sel 0;
#X text 249 310 decay;
#X text 387 300 release;
#X msg 377 237 0;
#X obj 373 202 bng 19 250 50 0 empty empty empty 0 -10 0 12 #fcfcfc #000000 #000000;
#X obj 378 274 pack 0 500;
#X obj 61 208 f 1;
#X obj 243 190 f 0.7;
#X obj 62 283 pack 0 50;
#X obj 240 273 pack 0 150;
#X obj 67 86 / 127;
#X obj 72 128 t b f f;
#X obj 61 248 *;
#X obj 241 230 *;
#X floatatom 144 90 5 0 0 0 - - - 0;
#X floatatom 108 252 5 0 0 0 - - - 0;
#X floatatom 278 235 5 0 0 0 - - - 0;
#X connect 1 0 0 0;
#X connect 2 0 9 0;
#X connect 3 0 4 0;
#X connect 4 0 15 1;
#X connect 4 1 8 1;
#X connect 4 1 17 1;
#X connect 4 2 18 1;
#X connect 4 3 16 1;
#X connect 4 4 14 1;
#X connect 6 0 8 0;
#X connect 6 0 15 0;
#X connect 8 0 16 0;
#X connect 9 0 13 0;
#X connect 9 1 19 0;
#X connect 12 0 14 0;
#X connect 13 0 12 0;
#X connect 14 0 1 0;
#X connect 15 0 21 0;
#X connect 16 0 22 0;
#X connect 17 0 1 0;
#X connect 18 0 1 0;
#X connect 19 0 20 0;
#X connect 19 0 23 0;
#X connect 20 0 6 0;
#X connect 20 1 21 1;
#X connect 20 2 22 1;
#X connect 21 0 17 0;
#X connect 21 0 24 0;
#X connect 22 0 18 0;
#X connect 22 0 25 0;
#X restore 217 147 pd adsr;
#X obj 164 95 inlet;
#X obj 212 94 inlet;
#X obj 261 94 inlet;
#X text 35 41 frequency \, phase \, freq-scale \, velocity \, env-params;
#X text 38 59 env-params format is: peak-level A D S R;
#X connect 0 0 3 0;
#X connect 1 0 9 0;
#X connect 2 0 3 1;
#X connect 3 0 4 0;
#X connect 4 0 5 0;
#X connect 5 0 6 0;
#X connect 8 0 9 1;
#X connect 9 0 0 0;
#X connect 10 0 5 1;
#X connect 11 0 8 0;
#X connect 12 0 10 0;
#X connect 13 0 10 1;
